<?xml version="1.0" standalone="no"?>
<!DOCTYPE svg PUBLIC "-//W3C//DTD SVG 1.1//EN" "http://www.w3.org/Graphics/SVG/1.1/DTD/svg11.dtd" >
<svg>
<metadata>
Created by FontForge 20090914 at Thu Nov  3 05:15:24 2016
 By www-data
This Font Software is licensed under the SIL Open Font License, Version 1.0. No modification of the license is permitted, only verbatim copy is allowed. This license and a FAQ is also available at: http://scripts.sil.org/OFL
</metadata>
<defs>
<font id="SolaimanLipiNormal" horiz-adv-x="1138" >
  <font-face 
    font-family="SolaimanLipi"
    font-weight="400"
    font-stretch="normal"
    units-per-em="2048"
    panose-1="3 0 6 9 0 0 0 0 0 0"
    ascent="1638"
    descent="-410"
    x-height="1073"
    cap-height="1493"
    bbox="-1372 -752 2224 2020"
    underline-thickness="160"
    underline-position="-137"
    unicode-range="U+000C-U+25CC"
  />
<missing-glyph horiz-adv-x="884" 
d="M68 0v1364h682v-1364h-682zM135 68h547v1228h-547v-1228z" />
    <glyph glyph-name="IJ" unicode="IJ" horiz-adv-x="569" 
d="M1092 1493h189.998v-1120c0 -169.333 -61.333 -290.333 -184 -363c-66.667 -38 -145.667 -57 -237 -57c-169.333 0 -289.666 58.667 -360.999 176c-36.667 61.333 -55 134.333 -55 219v131h194v-96c0 -151.333 55.333 -239.333 166 -264l58 -6
c78.667 0 139.334 30.667 182.001 92c31.333 46 47 125 47 237v1051zM396.998 1493v-1493h-192v1493h192z" />
    <glyph glyph-name="ij" unicode="ij" horiz-adv-x="454" 
d="M454 1073h170v-1296c0 -140.667 -87.333 -215 -262 -223h-31l-36 2l-21 4v145l39 -2h2c71.333 0 114.333 22 129 66c6.66699 18.667 10 43.667 10 75v1229zM624 1493v-215h-170v215h170zM307 1073v-1073h-170v1073h170zM307 1493v-215h-172v215h172z" />
    <glyph glyph-name="Ldot" unicode="L&#xb7;" 
d="M954 874v-256h-254v256h254zM354 1493v-1325h738v-168h-928v1493h190z" />
    <glyph glyph-name="ldot" unicode="l&#xb7;" horiz-adv-x="454" 
d="M887 874v-256h-254v256h254zM311 1493v-1493h-172v1493h172z" />
    <glyph glyph-name=".notdef" horiz-adv-x="884" 
d="M68 0v1364h682v-1364h-682zM135 68h547v1228h-547v-1228z" />
    <glyph glyph-name=".null" horiz-adv-x="0" 
 />
    <glyph glyph-name=".null" horiz-adv-x="0" 
 />
    <glyph glyph-name="nonmarkingreturn" horiz-adv-x="682" 
 />
    <glyph glyph-name="nonmarkingreturn" unicode="&#xd;" horiz-adv-x="682" 
 />
    <glyph glyph-name="space" unicode=" " horiz-adv-x="569" 
 />
    <glyph glyph-name="exclam" unicode="!" horiz-adv-x="569" 
d="M426 1493v-692l-45 -457h-80l-45 457v692h170zM426 213v-213h-172v213h172z" />
    <glyph glyph-name="quotedbl" unicode="&#x22;" horiz-adv-x="727" 
d="M106 1452h191v-227l-55 -275h-80l-56 275v227zM434 1452h191v-227l-56 -275h-80l-55 275v227z" />
    <glyph glyph-name="numbersign" unicode="#" 
d="M993 1427l-73 -401h190v-139h-217l-64 -357h215v-139h-239l-80 -432h-156l78 432h-254l-80 -432h-155l78 432h-207v139h233l64 357h-222v139h248l74 401h156l-74 -401h256l72 401h157zM737 887h-254l-65 -357h256z" />
    <glyph glyph-name="dollar" unicode="$" 
d="M498 1577l120.001 0.000976562v-111c170.667 -12 288.334 -80.667 353.001 -206c30 -56 45 -121.667 45 -197h-162c-1.33301 105.333 -41 181 -119 227c-27.333 15.333 -57.333 25.666 -90 30.999l-27 2v-510c118 -35.333 192 -60 222 -74l24 -12l2 -2l21 -10
c114.667 -66 172.667 -171.333 174 -316c0 -142 -46.333 -254.667 -139 -338l-50 -36c-66.667 -40 -151.334 -64 -254.001 -72v-211h-120v211c-210.667 13.333 -345.334 100 -404.001 260c-22 62.667 -30.667 133.667 -26 213h161l7 -55
c6.66699 -67.333 18 -115.333 34 -144c2.66699 -5.33301 6.33398 -10.666 11.001 -15.999c47.333 -65.333 119.666 -104.333 216.999 -117v557c-86 26 -147 47.333 -183 64c-27.333 12 -52.333 26.333 -75 43c-97.333 69.333 -146 169 -146 299
c0 199.333 95.667 327.666 287 384.999c35.333 10.667 74.333 18.667 117 24v111zM498.001 829.001l-0.000976562 492.001c-131.333 -18 -208.666 -78.667 -231.999 -182l-6 -62c0 -122.667 79.333 -205.334 238 -248.001zM618 633.002v-539
c83.333 10 146.333 35.333 189 76c57.333 54.667 86 123 86 205c0 83.333 -32 145.333 -96 186c-40 24.667 -99.667 48.667 -179 72z" />
    <glyph glyph-name="percent" unicode="%" horiz-adv-x="1820" 
d="M408 1403c114.667 0 206.667 -45.001 276 -135.001h2c48 -62.667 72 -135.667 72 -219c0 -108 -43 -197 -129 -267c-64.667 -53.333 -137.667 -80 -219 -80c-110.667 0 -201.667 43 -273 129c-52 64.667 -78 138.667 -78 222c0 110.667 43 201.334 129 272.001
c64.667 52 138 78 220 78zM408 1260c-74 0 -131.331 -31.666 -171.998 -94.999h-3c-21.333 -34 -32 -71.333 -32 -112c0 -72.667 30.667 -130 92 -172c35.333 -23.333 74.333 -35 117 -35c73.333 0 130.666 30.667 171.999 92c22.667 34 34 71.667 34 113
c0 77.333 -32.667 136.666 -98 177.999c-32.667 20.667 -69.334 31 -110.001 31zM1247 1452h135l-809 -1493h-135zM1409 659c116 0 209.001 -45 279.001 -135c47.333 -62.667 71 -135 71 -217c0 -108 -43 -196.667 -129 -266c-64 -53.333 -137 -80 -219 -80
c-110.667 0 -201.334 43 -272.001 129c-52 64 -78 137.667 -78 221c0 110.667 43.667 201 131 271c64 51.333 136.333 77 217 77zM1409 516c-74 0 -131.334 -30.668 -172.001 -92.001c-23.333 -34 -35 -71.667 -35 -113c0 -74.667 32 -132.667 96 -174h2v-2h3
c0 -1.33301 0.666992 -2 2 -2c32.667 -19.333 68 -29 106 -29c74 0 131.333 31 172 93c23.333 32.667 35 69.334 35 110.001c0 78 -32.667 137.333 -98 178v0l-2 2c-23.333 14 -48.666 23 -75.999 27c-5.33301 0 -16.333 0.666992 -33 2z" />
    <glyph glyph-name="ampersand" unicode="&#x26;" horiz-adv-x="1366" 
d="M1010 684l163.998 -0.00195312c0 -49.333 -7 -100 -21 -152c-19.333 -77.333 -52 -151.666 -98 -222.999l250 -309h-224l-127 160c-61.333 -58.667 -108.333 -99.667 -141 -123l-16 -10c-76.667 -49.333 -167 -74 -271 -74c-158 0 -275.333 56 -352 168
c-45.333 66.667 -68 146.334 -68 239.001c0 110.667 35.667 202.334 107 275.001l10 10l10 8c46.667 44 115 92 205 144c-95.333 120 -150.666 231 -165.999 333l4 -49c0 2.66699 -0.666992 5.66699 -2 9l-2 40c0 104 43.667 188 131 252c64.667 46.667 138 70 220 70
c122.667 0 215.334 -45 278.001 -135v-2c36.667 -52 55 -113.667 55 -185c0 -92.667 -35.333 -171 -106 -235c-41.333 -36.667 -100 -77 -176 -121l272 -334c20.667 37.333 37 79.666 49 126.999c11.333 42.667 16.333 81.667 15 117zM583.998 882.998
c88.667 56 147.331 102.999 175.998 140.999c23.333 32.667 35 69.667 35 111c0 70.667 -31 121.667 -93 153c-25.333 14 -54 21 -86 21c-81.333 0 -135.666 -34.333 -162.999 -103c-8.66699 -21.333 -13 -45.666 -13 -72.999l4 -50c4.66699 -13.333 10.334 -27 17.001 -41
c16 -31.333 57 -84.333 123 -159zM855.995 280.997l-328 409c-98 -62.667 -164.667 -118.667 -200 -168c-32.667 -43.333 -49 -92.333 -49 -147c0 -88.667 36.667 -159 110 -211c48 -34 100.667 -51 158 -51c43.333 0 85 8 125 24c56 24.667 117.333 72.667 184 144z" />
    <glyph glyph-name="quotesingle" unicode="'" horiz-adv-x="391" 
d="M98 1452h193v-227l-55 -275h-82l-56 275v227z" />
    <glyph glyph-name="parenleft" unicode="(" horiz-adv-x="681" 
d="M483 1493l113 0.00195312c-132.667 -214.667 -218.667 -446.667 -258 -696c-15.333 -88.667 -23 -177.667 -23 -267c0 -78.667 5.66699 -158.334 17 -239.001c38 -258 126 -499.667 264 -725h-113c-142 185.333 -240.333 399.666 -295 642.999
c-25.333 110.667 -38 217.667 -38 321c0 105.333 13.333 214.666 40 327.999c56 240.667 153.667 452.334 293 635.001z" />
    <glyph glyph-name="parenright" unicode=")" horiz-adv-x="681" 
d="M190 -434h-112c132 214 218 446 258 696c14.667 88.667 22 177.334 22 266.001c0 79.333 -5.33301 159.333 -16 240c-38 258 -126 499.667 -264 725h112c142 -186 240.333 -400.333 295 -643c26 -110.667 39 -218 39 -322c0 -104.667 -13.667 -213.667 -41 -327
c-56 -240.667 -153.667 -452.334 -293 -635.001z" />
    <glyph glyph-name="asterisk" unicode="*" horiz-adv-x="796" 
d="M328 1493h129l-11 -229l218 77l38 -120l-221 -62l144 -182l-105 -74l-127 191l-129 -191l-102 74l141 182l-221 62l39 120l217 -77z" />
    <glyph glyph-name="plus" unicode="+" horiz-adv-x="1196" 
d="M1094 547v-144h-424v-423h-144v423h-424v144h424v424h144v-424h424z" />
    <glyph glyph-name="comma" unicode="," horiz-adv-x="569" 
d="M178 213l215 -0.000976562v-246c0 -178.667 -71.667 -268 -215 -268v78c58.667 2.66699 95 25 109 67c9.33301 24.667 14 64.334 14 119.001v37h-123v213z" />
    <glyph glyph-name="hyphen" unicode="-" horiz-adv-x="681" 
d="M582 639v-147h-488v147h488z" />
    <glyph glyph-name="period" unicode="." horiz-adv-x="569" 
d="M391 213v-213h-213v213h213z" />
    <glyph glyph-name="slash" unicode="/" horiz-adv-x="569" 
d="M469 1493h113l-486 -1534h-112z" />
    <glyph glyph-name="zero" unicode="0" 
d="M563 1452c140.667 0 250.667 -51.333 330 -154c1.33301 -2.66699 2.66602 -4.66699 3.99902 -6c94 -128 141 -328.667 141 -602c0 -370 -94 -602 -282 -696c-57.333 -27.333 -121.666 -41 -192.999 -41c-240 0 -389.333 147.333 -448 442c-18 88.667 -27 191 -27 307
c0 266.667 47 463.334 141 590.001c74 97.333 176 150.666 306 159.999h28zM563 1292c-194 0 -291 -197.332 -291 -591.999c0 -398.667 95.667 -598 287 -598c161.333 0 256.333 131.333 285 394c6.66699 61.333 10 131.666 10 210.999c0 390 -97 585 -291 585z" />
    <glyph glyph-name="one" unicode="1" 
d="M530 1034l-321.001 -0.000976562v129l16 2c132.667 18 219.334 43.333 260.001 76c36 28.667 66 81.334 90 158.001l17 53h119v-1452h-181v1034z" />
    <glyph glyph-name="two" unicode="2" 
d="M1036 178v-178h-966c9.33301 174.667 48 307.667 116 399c40 50.667 94 100 162 148c36.667 26 79.667 53.333 129 82l189 106c129.333 74 194.666 169.667 195.999 287c0 98 -41 173.667 -123 227c-47.333 30 -102 45 -164 45c-102 0 -180.333 -38.667 -235 -116
c-4 -6 -7.33301 -12.333 -10 -19l-4 -6c-23.333 -44 -37.666 -112.333 -42.999 -205h-181c4.66699 136.667 30.667 242 78 316c82 125.333 216 188 402 188c134.667 0 244.334 -38.333 329.001 -115c90.667 -80 136 -183.667 136 -311c0 -180 -102.667 -326 -308 -438
l-204 -111c-72.667 -42 -127.334 -81 -164.001 -117c-54.667 -50 -87.667 -110.667 -99 -182h764z" />
    <glyph glyph-name="three" unicode="3" 
d="M453 666l-0.000976562 153c114.667 1.33301 194.334 11.666 239.001 30.999c76.667 31.333 115.667 97 117 197c0 116 -47.667 192.333 -143 229c-33.333 12 -71 18 -113 18c-106.667 0 -183.667 -36 -231 -108l-3 -2l-10 -19c-20 -39.333 -31 -100 -33 -182h-180
c5.33301 286.667 135 442.334 389 467.001l66 2c190 0 320.333 -63.333 391 -190c34 -58.667 51 -128.334 51 -209.001c0 -148 -67.333 -248.333 -202 -301c126.667 -44 203.667 -118 231 -222c9.33301 -35.333 14 -76.666 14 -123.999c0 -168 -64 -293 -192 -375
c-82 -52 -181.667 -78 -299 -78c-202 0 -340.667 70.333 -416 211c-35.333 65.333 -56.333 151.333 -63 258h180c10.667 -180 87.667 -281 231 -303c23.333 -4 48 -6 74 -6c142 0 234.667 53.667 278 161c15.333 37.333 23 80.333 23 129c0 176.667 -100.333 265 -301 265
l-76 -2h-22z" />
    <glyph glyph-name="four" unicode="4" 
d="M670 348h-613v191l660 913h133v-942h215v-162h-215v-348h-180v348zM670 510v635l-455 -635h455z" />
    <glyph glyph-name="five" unicode="5" 
d="M975 1452l-0.000976562 -178h-604l-58 -406l23 17c73.333 47.333 155.333 71 246 71c163.333 0 288.666 -59.333 375.999 -178c62 -83.333 93 -185 93 -305c0 -176 -59.667 -313.333 -179 -412c-87.333 -72 -193.666 -108 -318.999 -108
c-151.333 0 -271.333 45.667 -360 137l-33 37c-32.667 40.667 -58.667 100 -78 178l-10 51h180c42 -162 141 -243 297 -243c138 0 233 55.333 285 166c21.333 47.333 32 104 32 170c0 148.667 -51.667 251.667 -155 309c-46.667 26 -100.667 39 -162 39
c-82 0 -150.333 -24 -205 -72c-19.333 -16.667 -39.666 -37.667 -60.999 -63h-166l108 790h750z" />
    <glyph glyph-name="six" unicode="6" 
d="M1020 1073l-179.999 -0.00195312c-24.667 118.667 -85.667 189.667 -183 213c-18.667 4 -39 6 -61 6c-151.333 0 -250.333 -98.333 -297 -295c-18 -73.333 -27 -158.666 -27 -255.999c79.333 108 190.666 162 333.999 162c152 0 270.333 -56.667 355 -170
c60 -80.667 90 -177.667 90 -291c0 -162 -56 -289.667 -168 -383c-84.667 -70.667 -187.334 -106 -308.001 -106c-162 0 -283.333 60 -364 180c-79.333 120 -120.333 288.667 -123 506v23c0 252 43.667 446.333 131 583c76.667 114.667 183.334 182.334 320.001 203.001
c22.667 2.66699 45.667 4 69 4c157.333 0 273.333 -63.333 348 -190c32 -53.333 53.333 -116.333 64 -189zM584.001 742.998c-116 0 -201.334 -45 -256.001 -135c-30 -47.333 -45 -104 -45 -170c0 -117.333 41.667 -207.333 125 -270
c48.667 -36.667 105.334 -55 170.001 -55c103.333 0 182.333 43 237 129c34 53.333 51 115.333 51 186c0 139.333 -48.333 234.333 -145 285c-39.333 20 -85 30 -137 30z" />
    <glyph glyph-name="seven" unicode="7" 
d="M1065 1452l0.000976562 -152.001c-118.667 -158 -218.334 -311.333 -299.001 -460c-143.333 -265.333 -240.333 -545.333 -291 -840h-192c51.333 228 250 652.667 596 1274l-400 -668c86 188.667 219.333 411.334 400 668.001h-785v178h971z" />
    <glyph glyph-name="eight" unicode="8" 
d="M801 764c165.333 -79.333 248.666 -200.332 249.999 -362.999c0 -152.667 -59 -270.667 -177 -354c-86 -62.667 -189.667 -94 -311 -94c-169.333 0 -299.666 56 -390.999 168c-64 78 -96 172 -96 282c0 161.333 82.667 281.666 248 360.999
c-34.667 22 -63.334 42.333 -86.001 61c-68.667 57.333 -105.667 128.333 -111 213v2v25c0 135.333 55.333 239 166 311c75.333 50.667 165.333 76 270 76c158.667 0 278.334 -52 359.001 -156c51.333 -64 77 -141 77 -231c0 -92.667 -30.667 -167.667 -92 -225l-26 -23z
M563 1292c-109.333 0 -184.332 -39.333 -224.999 -118l-2 -3v0c-16.667 -31.333 -25 -67.333 -25 -108c0 -95.333 41.667 -162.333 125 -201c37.333 -17.333 79.666 -26 126.999 -26c109.333 0 184.333 38.667 225 116c2 0 3 0.666992 3 2c16 30 24 65.667 24 107
c0 102 -44.333 171.667 -133 209c-34 14.667 -73.667 22 -119 22zM563.001 684.001c-121.333 0 -208.668 -43.667 -262.001 -131c-27.333 -44 -41 -95.333 -41 -154c0 -112 45 -193.667 135 -245c46.667 -27.333 101.334 -41 164.001 -41c124 0 212.667 44.333 266 133
c27.333 43.333 41 94.333 41 153c0 112 -45.667 194 -137 246c-48 26 -103.333 39 -166 39z" />
    <glyph glyph-name="nine" unicode="9" 
d="M109 332l180 0.000976562c24.667 -118.667 85.334 -189.667 182.001 -213c19.333 -4 39.666 -6 60.999 -6c152 0 251 98.333 297 295c18 73.333 27 158.666 27 255.999c-87.333 -105.333 -198 -159.333 -332 -162c-152.667 0 -271.334 56.667 -356.001 170
c-60 80.667 -90 177.667 -90 291c0 162 56 289.667 168 383c84.667 70.667 187 106 307 106c162.667 0 285 -60 367 -180c78.667 -120 119.334 -288.667 122.001 -506v-23c0 -252 -44.333 -446.333 -133 -583c-72 -110.667 -174.333 -177.667 -307 -201l-82 -6
c-156.667 0 -272.667 63.333 -348 190c-31.333 54.667 -52.333 117.667 -63 189zM551 1294c-104 0 -183.332 -43.668 -237.999 -131.001l-2 -2c-32.667 -52 -49 -113.333 -49 -184c0 -139.333 48.667 -234.333 146 -285c39.333 -20 85 -30 137 -30
c113.333 0 198 44.333 254 133c31.333 48.667 47 106 47 172c0 118.667 -41.667 209.334 -125 272.001c-50.667 36.667 -107.334 55 -170.001 55z" />
    <glyph glyph-name="colon" unicode=":" horiz-adv-x="569" 
d="M438 213v-213h-213v213h213zM438 1073v-213h-213v213h213z" />
    <glyph glyph-name="semicolon" unicode=";" horiz-adv-x="569" 
d="M440 1073v-213h-213v213h213zM225 213l215 -0.000976562v-246c0 -178.667 -71.667 -268 -215 -268v78c58.667 2.66699 95 25 109 67c9.33301 24.667 14 64.334 14 119.001v37h-123v213z" />
    <glyph glyph-name="less" unicode="&#x3c;" horiz-adv-x="1196" 
d="M92 406v141l1002 424v-162l-807 -330l807 -336v-161z" />
    <glyph glyph-name="equal" unicode="=" horiz-adv-x="1196" 
d="M1094 723v-143h-992v143h992zM1094 371v-144h-992v144h992z" />
    <glyph glyph-name="greater" unicode="&#x3e;" horiz-adv-x="1196" 
d="M1104 547v-141l-1002 -424v161l807 330l-807 336v162z" />
    <glyph glyph-name="question" unicode="?" 
d="M676 408l-184.001 -0.000976562v112c0 52 9.33301 95.667 28 131l29 47l20 27l6 8c3.33301 4 7 8 11 12l119 109c57.333 50.667 98 99 122 145c20.667 38.667 31 80.334 31 125.001c0 96 -41.667 164.333 -125 205h-2c-39.333 19.333 -84.333 29 -135 29
c-112 0 -188.333 -39.667 -229 -119c-23.333 -46.667 -35 -113.667 -35 -201h-174c0 288 122.667 446.333 368 475l80 5c172 0 296.333 -56.667 373 -170l2 -2v0v-3c40.667 -61.333 61 -134.333 61 -219c0 -64 -13.667 -122 -41 -174c-28.667 -56 -83 -120 -163 -192
c-83.333 -78 -132.666 -134.667 -147.999 -170l-8 -21l-6 -61v-2v-96zM675.999 212.999v-213h-184v213h184z" />
    <glyph glyph-name="at" unicode="@" horiz-adv-x="2078" 
d="M1362 1026l170 -0.000976562l-184 -573c-16.667 -46.667 -25 -81 -25 -103c0 -36.667 19.667 -64 59 -82h2c12.667 -5.33301 26.334 -8 41.001 -8c87.333 0 167.333 49.333 240 148c69.333 96.667 104 204.334 104 323.001c0 164 -66 306.667 -198 428
c-135.333 126 -298.666 193 -489.999 201h-32c-200.667 0 -378.334 -69.667 -533.001 -209l-63 -64c-139.333 -154 -209 -330 -209 -528c0 -192.667 71.667 -355 215 -487c147.333 -136.667 331.666 -205 552.999 -205c108 0 239.667 21.667 395 65l57 -137
c-84.667 -31.333 -172.667 -54.333 -264 -69c-68 -11.333 -134.333 -17 -199 -17c-245.333 0 -457.333 73 -636 219c-166.667 136.667 -263 305.334 -289 506.001l-6 94l2 52c10.667 210 84.334 399 221.001 567c31.333 38 64.666 73.333 99.999 106
c147.333 134 323.666 218 528.999 252c13.333 1.33301 26.333 3.33301 39 6l114 7c226.667 0 424 -69 592 -207c158.667 -128.667 250.334 -285 275.001 -469c4 -28.667 6 -57.334 6 -86.001l-4 -72c-16.667 -142 -74 -270.333 -172 -385c-104 -121.333 -231 -182 -381 -182
c-131.333 0 -206.666 52.333 -225.999 157c-21.333 -22.667 -43 -43 -65 -61c-68.667 -57.333 -144 -86 -226 -86c-111.333 0 -199.333 47 -264 141c-46 66 -69 144 -69 234c0 148.667 53.667 280.334 161 395.001c105.333 113.333 227 170.666 365 171.999
c113.333 0 196.666 -59.333 249.999 -178zM1055 937.999c-90 0 -169.332 -48.333 -237.999 -145c-61.333 -86 -92 -183.667 -92 -293c0 -92 32 -161 96 -207h2c31.333 -23.333 66.333 -35 105 -35c79.333 0 149 44.333 209 133l12 19c26 46 49.333 105.333 70 178
c17.333 60 26.666 111 27.999 153c4 75.333 -25.333 131.333 -88 168c-31.333 19.333 -66 29 -104 29z" />
    <glyph glyph-name="A" unicode="A" horiz-adv-x="1366" 
d="M971 449h-576l-157 -449h-203l532 1493h246l524 -1493h-213zM918 608l-230 680l-246 -680h476z" />
    <glyph glyph-name="B" unicode="B" horiz-adv-x="1366" 
d="M162 0v1493h606c140.667 0 248.667 -34.667 324 -104c78.667 -70 118 -161.667 118 -275c0 -152.667 -68.667 -261.334 -206 -326.001c143.333 -55.333 229.333 -137.666 258 -246.999c8 -27.333 12.667 -56.666 14 -87.999v-27c0 -120 -38.333 -220.333 -115 -301
c-76 -83.333 -184.333 -125 -325 -125h-674zM352 849.999h369c98 0 170.333 17.667 217 53c54.667 41.333 82 102.666 82 183.999c0 80.667 -27.333 142.334 -82 185.001c-46.667 35.333 -119 53 -217 53h-369v-475zM352 167.999l465.001 0.000976562
c87.333 0 153.666 24 198.999 72c46 47.333 69 108.666 69 183.999s-23 137.333 -69 186c-44 48 -110.333 72 -199 72h-465v-514z" />
    <glyph glyph-name="C" unicode="C" horiz-adv-x="1478" 
d="M1356 1030l-194.999 -0.000976562c-20.667 102.667 -56.667 177.667 -108 225c-64.667 60.667 -163 92.334 -295 95.001c-174.667 0 -303.667 -78.667 -387 -236c-54.667 -102 -82 -229.667 -82 -383c0 -232 64.667 -402 194 -510c80.667 -66.667 177.667 -100 291 -100
c148.667 0 258 52.667 328 158c8 10.667 14.667 22 20 34c30 57.333 52.667 134.666 68 231.999h196c-44.667 -394.667 -249.334 -592 -614.001 -592c-192.667 0 -345 58 -457 174c-144.667 148.667 -217 349.334 -217 602.001c0 250 69.667 450.667 209 602
c112 124.667 269.667 187 473 187c325.333 0 517.333 -162.667 576 -488z" />
    <glyph glyph-name="D" unicode="D" horiz-adv-x="1478" 
d="M182 0l-0.000976562 1493h576c222.667 0 387.667 -90 495 -270c1.33301 -1.33301 2 -2.66602 2 -3.99902c74 -124.667 111 -281.667 111 -471c0 -286 -79.333 -493.667 -238 -623c-99.333 -83.333 -222.666 -125 -369.999 -125h-576zM372.999 167.999h352
c237.333 0 381.333 123.667 432 371c12.667 61.333 19 130 19 206c0 336 -115 526 -345 570c-34 6.66699 -69.333 10 -106 10h-352v-1157z" />
    <glyph glyph-name="E" unicode="E" horiz-adv-x="1366" 
d="M375 680v-512h880v-168h-1071v1493h1035v-168h-844v-477h813v-168h-813z" />
    <glyph glyph-name="F" unicode="F" horiz-adv-x="1251" 
d="M375 680v-680h-191v1493h1002v-168h-811v-477h712v-168h-712z" />
    <glyph glyph-name="G" unicode="G" horiz-adv-x="1593" 
d="M1452 788l0.00195312 -795.999h-121l-47 198c-142 -158 -312 -237 -510 -237c-208.667 0 -377.334 77.667 -506.001 233c-118.667 142 -178 323.667 -178 545c0 240.667 69.667 436 209 586c19.333 20.667 39.666 39.667 60.999 57c116.667 96 265.667 144 447 144
c244.667 0 422 -80.667 532 -242c45.333 -66.667 76.333 -145.334 93 -236.001h-195c-28.667 134 -108 225.667 -238 275c-57.333 23.333 -122 35 -194 35c-180 0 -318.667 -71 -416 -213c-72 -106.667 -108 -238.667 -108 -396c0 -172 41.667 -315.333 125 -430l32 -39
c90 -98 215.667 -148.333 377 -151c156 0 279 54.667 369 164c66.667 82 100 180.333 100 295v41h-455v167h623z" />
    <glyph glyph-name="H" unicode="H" horiz-adv-x="1478" 
d="M1128 680h-766v-680h-192v1493h190v-645h768v645h191v-1493h-191v680z" />
    <glyph glyph-name="I" unicode="I" horiz-adv-x="569" 
d="M397 1493v-1493h-192v1493h192z" />
    <glyph glyph-name="J" unicode="J" horiz-adv-x="1024" 
d="M682 1493h189.998v-1120c0 -169.333 -61.333 -290.333 -184 -363c-66.667 -38 -145.667 -57 -237 -57c-169.333 0 -289.666 58.667 -360.999 176c-36.667 61.333 -55 134.333 -55 219v131h194v-96c0 -151.333 55.333 -239.333 166 -264l58 -6
c78.667 0 139.334 30.667 182.001 92c31.333 46 47 125 47 237v1051z" />
    <glyph glyph-name="K" unicode="K" horiz-adv-x="1366" 
d="M352 522v-522h-190v1493h190v-756l744 756h245l-608 -608l615 -885h-226l-526 766z" />
    <glyph glyph-name="L" unicode="L" 
d="M354 1493v-1325h738v-168h-928v1493h190z" />
    <glyph glyph-name="M" unicode="M" horiz-adv-x="1705" 
d="M958 0h-200l-424 1251v-1251h-180v1493h264l442 -1300l434 1300h265v-1493h-181v1251z" />
    <glyph glyph-name="N" unicode="N" horiz-adv-x="1478" 
d="M1323 1493v-1493h-215l-772 1210v-1210h-180v1493h206l781 -1221v1221h180z" />
    <glyph glyph-name="O" unicode="O" horiz-adv-x="1593" 
d="M797 1518c237.333 0 422.333 -84.001 555 -252.001l2 -2l4 -4c82 -108 133 -240 153 -396c6 -44.667 9 -91.667 9 -141c0 -202 -56 -374.667 -168 -518c-27.333 -35.333 -57.333 -66.666 -90 -93.999c-124.667 -105.333 -279 -158 -463 -158c-228 0 -409 80 -543 240
c-118.667 142 -178 322.667 -178 542c0 251.333 75.667 450 227 596c130 124.667 294 187 492 187zM797 1350c-178 0 -316 -69.667 -414 -209c-76.667 -108 -115 -243.333 -115 -406c0 -215.333 65 -379.666 195 -492.999c91.333 -80.667 203.333 -121 336 -121
c176 0 313 68.333 411 205c79.333 106 119 239.667 119 401c0 225.333 -67 394.666 -201 507.999c-90 76.667 -200.333 115 -331 115z" />
    <glyph glyph-name="P" unicode="P" horiz-adv-x="1366" 
d="M377 633l-0.000976562 -633h-191v1493h617c220 0 362 -80.667 426 -242c23.333 -56 35 -121.333 35 -196c0 -132.667 -43 -238 -129 -316c-79.333 -70.667 -175.666 -106 -288.999 -106h-469zM376.999 801l397 -0.000976562c139.333 0 229.333 50.333 270 151
c14 31.333 21 68.333 21 111c0 122.667 -54 203.334 -162 242.001h-2c-36.667 13.333 -79 20 -127 20h-397v-524z" />
    <glyph glyph-name="Q" unicode="Q" horiz-adv-x="1593" 
d="M1501 -2l-96.001 -119l-215 178c-117.333 -69.333 -247.666 -104 -390.999 -104c-228 0 -409 80 -543 240c-118.667 142 -178 322.667 -178 542c0 251.333 75.667 450 227 596c131.333 124.667 296 187 494 187c226.667 0 406.667 -79.333 540 -238
c120.667 -140.667 181 -321 181 -541c0 -234.667 -70.333 -429 -211 -583zM984.999 420l182.001 -150c108 122 162 277.667 162 467c0 214.667 -64 378.667 -192 492c-93.333 80.667 -206 121 -338 121c-179.333 0 -318 -69.667 -416 -209
c-76.667 -108 -115 -243.333 -115 -406c0 -216.667 65 -381.667 195 -495c91.333 -79.333 202.666 -119 333.999 -119c46 0 127.667 19 245 57l-114 -43c35.333 10 73.333 24.333 114 43l-151 127z" />
    <glyph glyph-name="R" unicode="R" horiz-adv-x="1478" 
d="M381 643v-642.999h-191v1493h689c232 0 376 -82 432 -246c14.667 -44.667 22 -95.667 22 -153c0 -134 -49 -236 -147 -306c-26 -17.333 -55.333 -34.333 -88 -51c84.667 -36.667 140 -82.334 166 -137.001c22.667 -50.667 34.667 -134.667 36 -252
c3.33301 -130.667 16.333 -214.667 39 -252c12.667 -17.333 30 -33.666 52 -48.999v-47h-232c-28.667 65.333 -43 146.666 -43 243.999l2 133c0 148.667 -54.667 234.667 -164 258c-24 5.33301 -51.333 8 -82 8h-491zM381 811.001h461c165.333 0 260 58.667 284 176
c6 23.333 9 50 9 80c0 90 -26 157 -78 201c-44 38 -115.667 57 -215 57h-461v-514z" />
    <glyph glyph-name="S" unicode="S" horiz-adv-x="1366" 
d="M1221 1055l-181.001 0.00292969c-1.33301 151.333 -76.333 246.666 -225 285.999c-43.333 11.333 -92.333 17 -147 17c-142 0 -241 -42.333 -297 -127v0c-24.667 -36.667 -37 -78.334 -37 -125.001c0 -76.667 36.667 -134 110 -172c34.667 -18 80 -34.333 136 -49
l374 -101c164 -44.667 265 -133.334 303 -266.001c10 -34 15 -70 15 -108v-29c-8 -114.667 -53.667 -211.667 -137 -291l-27 -22c-100 -76.667 -240 -115 -420 -115c-230.667 0 -398 71 -502 213c-57.333 78 -86.666 181 -87.999 309h181c-2 -88.667 23.667 -165 77 -229
c70 -83.333 184.667 -125 344 -125c122 0 213.667 21 275 63c61.333 44 96 104.333 104 181c1.33301 4 2 8.66699 2 14v12c0 104 -75 179.667 -225 227c-14.667 6 -31 11 -49 15l-371 98c-194 50.667 -291.667 166.667 -293 348c0 169.333 71 292.333 213 369
c87.333 46.667 193.333 70 318 70c240 0 403 -76 489 -228c38.667 -66.667 58 -145 58 -235z" />
    <glyph glyph-name="T" unicode="T" horiz-adv-x="1251" 
d="M725 1325v-1325h-190v1325h-492v168h1171v-168h-489z" />
    <glyph glyph-name="U" unicode="U" horiz-adv-x="1478" 
d="M1130 1493l191 -0.000976562v-1049c0 -177.333 -71 -310.333 -213 -399c-98 -61.333 -219 -92 -363 -92c-224.667 0 -387 69 -487 207c-54.667 77.333 -82.667 172 -84 284v1049h191v-1049c0 -107.333 36 -189 108 -245c72.667 -52 163.334 -78 272.001 -78
c168 0 283 54 345 162c25.333 44.667 38.666 98.334 39.999 161.001v1049z" />
    <glyph glyph-name="V" unicode="V" horiz-adv-x="1366" 
d="M803 0h-205l-537 1493h205l439 -1264l413 1264h203z" />
    <glyph glyph-name="W" unicode="W" horiz-adv-x="1933" 
d="M1524 0h-209l-344 1227l-334 -1227h-209l-383 1493h213l281 -1212l331 1212h205l340 -1212l275 1212h213z" />
    <glyph glyph-name="X" unicode="X" horiz-adv-x="1366" 
d="M801 766l528 -766h-235l-408 623l-410 -623h-231l528 766l-495 727h231l383 -586l385 586h228z" />
    <glyph glyph-name="Y" unicode="Y" horiz-adv-x="1366" 
d="M793 586v-586h-191v586l-575 907h235l438 -727l426 727h228z" />
    <glyph glyph-name="Z" unicode="Z" horiz-adv-x="1251" 
d="M1190 1493v-172l-893 -1153h897v-168h-1137v168l897 1157h-839v168h1075z" />
    <glyph glyph-name="bracketleft" unicode="[" horiz-adv-x="569" 
d="M512 1493v-147h-211v-1633h211v-147h-381v1927h381z" />
    <glyph glyph-name="backslash" unicode="\" horiz-adv-x="569" 
d="M96 1493l486 -1534h-113l-485 1534h112z" />
    <glyph glyph-name="bracketright" unicode="]" horiz-adv-x="569" 
d="M47 -434v147h211v1633h-211v147h381v-1927h-381z" />
    <glyph glyph-name="asciicircum" unicode="^" horiz-adv-x="960" 
d="M403 1452h150l317 -778h-141l-250 614l-248 -614h-141z" />
    <glyph glyph-name="underscore" unicode="_" 
d="M1184 -258v-102h-1229v102h1229z" />
    <glyph glyph-name="grave" unicode="`" horiz-adv-x="681" 
d="M276 1516l197 -304h-123l-305 304h231z" />
    <glyph glyph-name="a" unicode="a" 
d="M1096 100l-0.000976562 -129.003c-40 -10.667 -71.667 -16.667 -95 -18h-2h-20c-96.667 0 -154 43 -172 129l-4 29c-38.667 -36 -76.334 -64.667 -113.001 -86c-76.667 -48 -160.667 -72 -252 -72c-150 0 -254.333 51 -313 153c-26 46.667 -39 101.334 -39 164.001
c0 139.333 62.667 235 188 287l23 8l70 21c12 2.66699 25 5.33398 39 8.00098c40.667 6.66699 111.334 16.334 212.001 29.001c100 12 157.667 37.667 173 77v2v3l6 36v45c0 88 -55.333 140 -166 156c-23.333 2.66699 -48 4 -74 4c-140.667 0 -222.667 -51 -246 -153
c-2.66699 -12.667 -4.66699 -25 -6 -37h-172c4 98 28.667 172.333 74 223c74.667 83.333 193.334 125 356.001 125c240.667 0 374 -79.333 400 -238c2.66699 -16 4 -34.333 4 -55v-631c0 -56 30.667 -84 92 -84h4c8 0 15.333 0.666992 22 2h2zM796.999 337.997
l-0.000976562 191.999l-21 -8c-22 -9.33301 -48 -17.333 -78 -24l-176 -27c-144.667 -20.667 -228 -67.667 -250 -141l-8 -54v-2c0 -88.667 45.667 -143 137 -163c22 -6 46.667 -9 74 -9c98.667 0 183.334 32.333 254.001 97c18 16 32.333 31.667 43 47
c16.667 24.667 25 55.334 25 92.001z" />
    <glyph glyph-name="b" unicode="b" 
d="M111 1493h170v-565c77.333 117.333 187.666 176 330.999 176c174.667 0 302.334 -73.667 383.001 -221c50.667 -93.333 76 -207.333 76 -342c0 -220 -62 -382.667 -186 -488c-78 -66.667 -171.667 -100 -281 -100c-146 0 -259.333 61.333 -340 184v-137h-153v1493z
M580 944c-113.333 0 -196.668 -57.332 -250.001 -171.999c-32.667 -66.667 -49 -148 -49 -244c0 -170.667 47 -291.334 141 -362.001c44.667 -35.333 97.334 -53 158.001 -53c114.667 0 200.667 53.667 258 161c36.667 70 55 152.667 55 248
c0 173.333 -49.333 296.333 -148 369c-44.667 34 -99.667 51.667 -165 53z" />
    <glyph glyph-name="c" unicode="c" horiz-adv-x="1024" 
d="M965 713l-171.999 0.000976562c-18 132 -84.333 208.333 -199 229c-10.667 1.33301 -29 2.66602 -55 3.99902c-128.667 0 -217 -68.333 -265 -205c-21.333 -62.667 -32 -137 -32 -223c0 -186.667 53.667 -311 161 -373c40 -22.667 86.667 -34 140 -34
c146 0 233.333 86 262 258h172c-15.333 -187.333 -94 -312.333 -236 -375c-58.667 -27.333 -126 -41 -202 -41c-176.667 0 -307.334 71.667 -392.001 215c-56 94 -84 210.667 -84 350c0 218.667 63 380.667 189 486c80.667 66.667 177 100 289 100
c144.667 0 256.667 -46.333 336 -139l16 -21c39.333 -58.667 63.333 -135.667 72 -231z" />
    <glyph glyph-name="d" unicode="d" 
d="M1014 1493v-1493h-152v141c-79.333 -113.333 -177.666 -175.333 -294.999 -186c-14.667 -1.33301 -30.334 -2 -47.001 -2c-177.333 0 -307 76.333 -389 229c-52 96 -78 215 -78 357c0 210 61 366.333 183 469c77.333 64 170 96 278 96
c147.333 0 257.333 -55.333 330 -166v555h170zM543 944c-116 0 -202.001 -55.999 -258.001 -167.999c-27.333 -52 -44.666 -112.667 -51.999 -182c-1.33301 -20.667 -2 -42.667 -2 -66c0 -166 48 -286 144 -360c49.333 -36.667 106 -55 170 -55
c112 0 194.667 55.333 248 166c34 68 51 149.667 51 245c0 179.333 -49.333 303.666 -148 372.999c-44.667 31.333 -95.667 47 -153 47z" />
    <glyph glyph-name="e" unicode="e" 
d="M1051 479l-791 -0.000976562c1.33301 -98 20.333 -174.333 57 -229c59.333 -92.667 145.333 -139 258 -139c139.333 0 233 71.667 281 215h172c-30 -165.333 -116 -277.333 -258 -336c-60 -24.667 -127 -37 -201 -37c-185.333 0 -321 75 -407 225
c-53.333 92.667 -80 207.334 -80 344.001c0 216 64 376.667 192 482c82 66.667 181.667 100 299 100c157.333 0 280.333 -56 369 -168c27.333 -34 49.333 -72.333 66 -115c28.667 -73.333 43 -187.333 43 -342zM264 617.999h601.999l2 13
c0 109.333 -40 194.666 -120 255.999c-52 39.333 -111 59 -177 59c-116 0 -202 -51 -258 -153c-27.333 -49.333 -43.666 -107.666 -48.999 -174.999z" />
    <glyph glyph-name="f" unicode="f" horiz-adv-x="569" 
d="M528 1073v-139.001h-178v-934h-170v934h-143v139h143v182c0 120.667 50.667 197.334 152 230.001c30 9.33301 63.333 14 100 14l41 -2l55 -8v-141l-51 2h-8c-78 0 -117.667 -36.333 -119 -109v-168h178z" />
    <glyph glyph-name="g" unicode="g" 
d="M844 1073l156.997 -0.000976562v-897c0 -210 -27.667 -358.667 -83 -446l-29 -39c-65.333 -82 -172.666 -127 -321.999 -135c-14.667 -1.33301 -29.667 -2 -45 -2c-188 0 -316.333 60 -385 180c-23.333 42 -37.666 89.667 -42.999 143h174
c8.66699 -52 28.667 -91.667 60 -119l6 -4c49.333 -38 114 -57 194 -57c110.667 0 190 33.333 238 100c40.667 56 61 153.667 61 293v55l-14 -18c-79.333 -106.667 -170.666 -164 -273.999 -172c-12.667 -1.33301 -25 -2 -37 -2h-19
c-113.333 6.66699 -209.333 54.334 -288 143.001c-90.667 104 -136 244.667 -136 422c0 206 56.667 363 170 471c79.333 76.667 175 115 287 115c134 0 243.333 -62 328 -186v155zM534.997 945.999c-120.667 0 -206 -61.333 -256 -184c-27.333 -64 -41 -142 -41 -234
c0 -189.333 53 -316.333 159 -381c40 -24 86.667 -36 140 -36c121.333 0 206 62.667 254 188c24 62.667 36 137 36 223c0 204.667 -56 336.667 -168 396c-36.667 18.667 -78 28 -124 28z" />
    <glyph glyph-name="h" unicode="h" 
d="M143 1493l170.001 -0.000976562v-567l37 43c72.667 82 160 126.333 262 133l45 2c150.667 0 252.667 -50.667 306 -152c21.333 -40.667 32 -87.667 32 -141v-811h-170v743c0 75.333 -23 129.333 -69 162c-44 32.667 -94.667 49 -152 49
c-114.667 0 -197.334 -52.333 -248.001 -157c-28.667 -57.333 -43 -125.666 -43 -204.999v-592h-170v1493z" />
    <glyph glyph-name="i" unicode="i" horiz-adv-x="454" 
d="M307 1073v-1073h-170v1073h170zM307 1493v-215h-172v215h172z" />
    <glyph glyph-name="j" unicode="j" horiz-adv-x="454" 
d="M143 1073h170v-1296c0 -140.667 -87.333 -215 -262 -223h-31l-36 2l-21 4v145l39 -2h2c71.333 0 114.333 22 129 66c6.66699 18.667 10 43.667 10 75v1229zM313 1493v-215h-170v215h170z" />
    <glyph glyph-name="k" unicode="k" horiz-adv-x="1024" 
d="M289 1493v-875l454 455h220l-373 -371l438 -702h-211l-362 582l-166 -164v-418h-170v1493h170z" />
    <glyph glyph-name="l" unicode="l" horiz-adv-x="454" 
d="M311 1493v-1493h-172v1493h172z" />
    <glyph glyph-name="m" unicode="m" horiz-adv-x="1705" 
d="M143 1073l157.999 0.00292969v-151c74 103.333 161.333 162.666 262 177.999c12.667 1.33301 26.334 2.66602 41.001 3.99902h27c121.333 0 211.333 -44.333 270 -133c6.66699 -10 13 -20.333 19 -31l59 64c69.333 65.333 159.333 98.666 270 99.999
c166.667 0 267 -67 301 -201c7.33301 -30 11 -62.667 11 -98v-805h-172v739c0 110.667 -43 179 -129 205c-22 6.66699 -45.333 10 -70 10c-83.333 0 -150.333 -36.667 -201 -110c-34 -49.333 -51 -106 -51 -170v-674h-172v739c0 119.333 -48.333 189 -145 209l-54 6
c-84.667 0 -152 -38 -202 -114c-33.333 -48 -50 -103.333 -50 -166v-674h-172v1073z" />
    <glyph glyph-name="n" unicode="n" 
d="M143 1073h158.001v-180c74 116 162.667 183.667 266 203c27.333 5.33301 57.333 8 90 8c142 0 241.667 -47 299 -141c26 -42.667 39.667 -93.334 41 -152.001v-811h-170v743c0 94.667 -39.333 159 -118 193c-30 12 -64.333 18 -103 18
c-114.667 0 -197.334 -52.333 -248.001 -157c-28.667 -57.333 -43 -125.666 -43 -204.999v-592h-172v1073z" />
    <glyph glyph-name="o" unicode="o" 
d="M557 1104c207.333 0 350 -87.999 428 -263.999c39.333 -88.667 59 -195.334 59 -320.001c0 -228 -69.333 -390.333 -208 -487c-76.667 -53.333 -169 -80 -277 -80c-196.667 0 -336 81.333 -418 244c-44.667 90 -67 200.333 -67 331c0 238 71.667 404.667 215 500
c74.667 50.667 164 76 268 76zM559 946.001c-126.667 0 -216 -62.667 -268 -188c-26 -64 -39 -140.667 -39 -230c0 -186.667 53.333 -312.667 160 -378c42 -26 91 -39 147 -39c122.667 0 210.667 60 264 180c28.667 64 43 141 43 231c0 198 -56 328.333 -168 391
c-40.667 22 -87 33 -139 33z" />
    <glyph glyph-name="p" unicode="p" 
d="M111 -446l-0.000976562 1519h157v-162c80.667 128.667 194.667 193 342 193c173.333 0 301 -75.667 383 -227c52 -97.333 78 -217 78 -359c0 -210 -60.667 -366.333 -182 -469c-53.333 -44.667 -115.666 -74 -186.999 -88c-28.667 -5.33301 -58.667 -8 -90 -8
c-132 0 -241.667 53.333 -329 160v-559h-172zM581.999 944c-113.333 0 -196.667 -57.332 -250 -171.999c-32.667 -66.667 -49 -148 -49 -244c0 -170.667 47 -291.334 141 -362.001c45.333 -35.333 98 -53 158 -53c114.667 0 200 53.667 256 161c36.667 70 55 152.667 55 248
c0 173.333 -48.333 296.333 -145 369c-48 35.333 -103.333 53 -166 53z" />
    <glyph glyph-name="q" unicode="q" 
d="M1014 -446h-169.998v569c-78 -113.333 -188.667 -170 -332 -170c-174.667 0 -302.334 73.667 -383.001 221c-50.667 92.667 -76 206.667 -76 342c0 220 62.333 382.667 187 488c77.333 66.667 170.666 100 279.999 100c146 0 260 -58 342 -174v143h152v-1519z
M545.002 944c-114.667 0 -200.667 -55.332 -258 -165.999c-37.333 -68 -56 -151.333 -56 -250c0 -166 48 -286 144 -360c49.333 -36.667 106 -55 170 -55c112 0 195.333 55.333 250 166c32.667 68 49 149 49 243c0 179.333 -48.667 303.666 -146 372.999
c-44.667 32.667 -95.667 49 -153 49z" />
    <glyph glyph-name="r" unicode="r" horiz-adv-x="681" 
d="M141 1073h158.002v-194c34 56 67.333 101 100 135c57.333 60 121.666 90 192.999 90h22l43 -6v-174c-98 -1.33301 -168.333 -16.333 -211 -45c-2.66699 -1.33301 -5.33398 -3 -8.00098 -5l-4 -4c-80.667 -58.667 -121 -163 -121 -313v-557h-172v1073z" />
    <glyph glyph-name="s" unicode="s" horiz-adv-x="1024" 
d="M897 774l-179.999 0.00195312c-4 114.667 -75.667 172 -215 172c-112 0 -183.667 -33.333 -215 -100c-8.66699 -18 -13 -38.667 -13 -62c0 -61.333 45.333 -107 136 -137l63 -16l164 -39c161.333 -38 257.666 -105 288.999 -201c9.33301 -28.667 14 -61.334 14 -98.001
c0 -131.333 -61.333 -227 -184 -287c-71.333 -35.333 -157.333 -53 -258 -53c-265.333 0 -407.333 110.667 -426 332l-2 34h180c8 -64 24.333 -109.667 49 -137c45.333 -47.333 116.333 -71 213 -71c114.667 0 191 32 229 96c14 20.667 21 44.667 21 72
c0 62.667 -37 107 -111 133c-12 4 -25 8 -39 12h-2l-14 4l-160 39c-162 39.333 -264.333 94 -307 164c-12 22 -21 47.333 -27 76l-6 69c0 127.333 57.333 219.666 172 276.999c67.333 34 147.333 51 240 51c198 0 321 -69 369 -207c13.333 -36.667 20 -77.667 20 -123z" />
    <glyph glyph-name="t" unicode="t" horiz-adv-x="569" 
d="M520 1073l-0.00195312 -139h-176v-735c0 -52 15 -82 45 -90l49 -7c34 0 61.333 3 82 9v-144c-53.333 -9.33301 -99.666 -14 -138.999 -14c-121.333 0 -189.666 45.667 -204.999 137l-2 33v811h-145v139h145v295h170v-295h176z" />
    <glyph glyph-name="u" unicode="u" 
d="M987 0h-153v150c-76.667 -108 -165.667 -171 -267 -189c-27.333 -5.33301 -58 -8 -92 -8c-146 0 -247 47.667 -303 143c-26 42.667 -39 92.667 -39 150v827h170v-760c0 -95.333 40.333 -159.333 121 -192c28.667 -12.667 62 -19 100 -19c116 0 200 53.333 252 160
c27.333 57.333 41 125 41 203v608h170v-1073z" />
    <glyph glyph-name="v" unicode="v" horiz-adv-x="1024" 
d="M584 0h-187l-377 1073h193l287 -870l303 870h192z" />
    <glyph glyph-name="w" unicode="w" horiz-adv-x="1478" 
d="M1135 0h-195l-217 842l-207 -842h-192l-312 1073h189l219 -835l205 835h209l210 -835l213 835h193z" />
    <glyph glyph-name="x" unicode="x" horiz-adv-x="1024" 
d="M598 555l371 -555h-199l-268 412l-273 -412h-194l379 547l-359 526h195l258 -389l258 389h192z" />
    <glyph glyph-name="y" unicode="y" horiz-adv-x="1024" 
d="M795 1073l183.999 0.000976562l-477 -1298l-8 -19v-2c-27.333 -66.667 -63.666 -116.334 -108.999 -149.001c-35.333 -26 -76.333 -42.333 -123 -49c-12 -1.33301 -24.333 -2 -37 -2c-42 0 -80 8.66699 -114 26v154c36.667 -8.66699 66.667 -13 90 -13
c61.333 0 104.333 27.333 129 82l8 23l65 170l-362 1077h182l275 -835z" />
    <glyph glyph-name="z" unicode="z" horiz-adv-x="1024" 
d="M907 1073v-151l-637 -772h666v-150h-873v154l642 770h-599v149h801z" />
    <glyph glyph-name="braceleft" unicode="{" horiz-adv-x="684" 
d="M565 1493l0.000976562 -133h-30c-64.667 0 -104.334 -18.333 -119.001 -55v0c-6.66699 -19.333 -10 -46.666 -10 -81.999v-371c0 -134 -28 -224.667 -84 -272l-3 -2c-13.333 -12.667 -29 -23 -47 -31l-34 -17c112 -51.333 168 -159 168 -323v-371
c0 -68 17 -109.667 51 -125c17.333 -8 43.333 -12 78 -12h30v-133h-94c-112 0 -182.333 54.667 -211 164c-8 30 -12 64.667 -12 104v342c0 127.333 -24 209.333 -72 246c-22 16 -51.333 28.333 -88 37v141c74 15.333 120.333 53 139 113c14 38 21 94.667 21 170v342
c0 139.333 48.333 224.666 145 255.999c24.667 8 50.667 12 78 12h94z" />
    <glyph glyph-name="bar" unicode="|" horiz-adv-x="532" 
d="M205 1493h123v-1927h-123v1927z" />
    <glyph glyph-name="braceright" unicode="}" horiz-adv-x="684" 
d="M59 -434l0.00195312 133.003h33c65.333 0 105.666 18.333 120.999 55c5.33301 15.333 8.66602 42.666 9.99902 81.999v371c0 164 56 271 168 321c-112 52 -168 160 -168 324v371c0 68 -17.667 109.667 -53 125c-18 8 -44 12 -78 12h-33v133h97
c113.333 0 184.333 -55.333 213 -166c8 -30 12 -64 12 -102v-342c0 -128.667 24.667 -211.334 74 -248.001c20 -16.667 47.333 -28.334 82 -35.001v-141c-71.333 -15.333 -117.333 -54.333 -138 -117c-12 -38 -18 -93.333 -18 -166v-342c0 -140.667 -50 -226.667 -150 -258
c-22.667 -6.66699 -47.667 -10 -75 -10h-97z" />
    <glyph glyph-name="asciitilde" unicode="~" horiz-adv-x="1196" 
d="M932 842l108.001 -0.00195312v-33c0 -116 -38.667 -194.667 -116 -236c-28.667 -16 -61.667 -24 -99 -24c-28.667 0 -59.334 6 -92.001 18c-26 8.66699 -50.667 20.334 -74 35.001l-200 129l-15 8h-2l-28 11l-43 10c-40 0 -70.667 -24 -92 -72
c-7.33301 -17.333 -13 -46.666 -17 -87.999h-108c9.33301 178.667 71.333 277 186 295l35 2l37 -4c24.667 -5.33301 49 -15 73 -29l240 -141c38 -23.333 72 -35 102 -35c60.667 0 95 33.333 103 100z" />
    <glyph glyph-name="nonbreakingspace" unicode="&#xa0;" horiz-adv-x="569" 
 />
    <glyph glyph-name="exclamdown" unicode="&#xa1;" horiz-adv-x="681" 
d="M250 -420v692l45 457h80l45 -457v-692h-170zM248 860v213h172v-213h-172z" />
    <glyph glyph-name="cent" unicode="&#xa2;" 
d="M639 946v-837c131.333 13.333 209 100 233 260h172c-9.33301 -169.333 -77.333 -289.666 -204 -360.999c-58.667 -32.667 -125.667 -51 -201 -55v-199h-86v201c-176 14.667 -302.333 98.667 -379 252c-45.333 87.333 -68 191 -68 311c0 222.667 67 386 201 490
c70 52.667 152 84 246 94v184h86v-182c186 -12.667 307.667 -93.334 365 -242.001c16 -44.667 25.333 -94.334 28 -149.001h-172c-12 114.667 -64.667 188.334 -158 221.001c-18.667 6.66699 -39.667 10.667 -63 12zM553 113l-0.000976562 831
c-177.333 -32.667 -266.666 -174.667 -267.999 -426c0 -188 58 -313 174 -375c28.667 -14.667 60 -24.667 94 -30z" />
    <glyph glyph-name="sterling" unicode="&#xa3;" 
d="M750 770l-0.000976562 -112.998h-279c20.667 -58.667 31 -107 31 -145l-2 -37c-11.333 -73.333 -68.666 -166.666 -171.999 -279.999l-68 -70c80.667 53.333 164 80 250 80l43 -2c31.333 -2.66699 73 -12.334 125 -29.001c75.333 -22 129.333 -33 162 -33
c54.667 0 111.334 20.667 170.001 62l86 -135l-19 -17c-72 -65.333 -155.333 -98 -250 -98l-34 2c-52 2.66699 -140.333 26 -265 70l-67 16l-68 6c-72 0 -146.333 -25.333 -223 -76l-98 135c133.333 115.333 213.666 213.666 240.999 294.999c10 30 15 62.333 15 97
c0 26 -4.33301 52.667 -13 80c-9.33301 26.667 -21.333 53 -36 79h-226v113h166c-60 100 -94 170.333 -102 211l-6 74c0 134.667 54.333 245 163 331c90.667 71.333 198.667 107 324 107c154 0 273.333 -50.667 358 -152l35 -51
c37.333 -62.667 56.666 -153.334 57.999 -272.001h-181c-5.33301 210 -98 315 -278 315c-121.333 0 -206.666 -43 -255.999 -129c-22 -38 -33 -82.333 -33 -133l4 -59c4 -23.333 13 -49.333 27 -78l57 -107l25 -43l2 -2l2 -6l2 -2l2 -4h328z" />
    <glyph glyph-name="currency" unicode="&#xa4;" 
d="M993 389l-118.999 -109.998l-108 108c-54.667 -40.667 -123 -61 -205 -61l-37 2c-60 5.33301 -111.667 21.666 -155 48.999l-105 -105l-114 117l98 100c-34 45.333 -55.333 100 -64 164c-1.33301 15.333 -2 30.333 -2 45l2 37c7.33301 66 28.666 123.333 63.999 172
l-111 113l115 108l113 -112c60 35.333 126 53 198 53c79.333 0 146.333 -19 201 -57l121 108l116 -119l-112 -112c24.667 -38.667 41 -84.334 49 -137.001c2.66699 -18 4 -36 4 -54c0 -68 -19.667 -134 -59 -198zM561.001 911.002c-78 0 -137.999 -31.999 -179.999 -95.999
l-2 -2c-23.333 -35.333 -35 -74.333 -35 -117c0 -74.667 32 -133.334 96 -176.001c37.333 -24.667 78.333 -37 123 -37c75.333 0 134.666 30.667 177.999 92c26 36 39 75.667 39 119c0 79.333 -32.667 140.333 -98 183c-36.667 22.667 -77 34 -121 34z" />
    <glyph glyph-name="yen" unicode="&#xa5;" 
d="M1014 725v-104h-348v-158h348v-105h-348v-358h-181v358h-352v105h352v158h-352v104h309l-419 727h174l378 -659l367 659h174l-411 -727h309z" />
    <glyph glyph-name="brokenbar" unicode="&#xa6;" horiz-adv-x="532" 
d="M205 1493h123v-821h-123v821zM205 387h123v-821h-123v821z" />
    <glyph glyph-name="section" unicode="&#xa7;" 
d="M950 1073l-171.996 -0.00195312v19v34c0 97.333 -37.333 161.666 -112 192.999c-24.667 10.667 -53.334 16 -86.001 16c-74 0 -127.333 -29.333 -160 -88l-2 -2v0c-12.667 -23.333 -19.667 -51.333 -21 -84c0 -30 39 -82.333 117 -157l-86 71
c8 -9.33301 18.333 -19.666 31 -30.999l55 -40l299 -193c39.333 -26 72.666 -50.667 99.999 -74c76.667 -66.667 117.667 -147 123 -241v-27c0 -157.333 -74.333 -263.666 -223 -318.999c44 -49.333 73.333 -93.333 88 -132c14 -31.333 21 -68 21 -110
c0 -116 -48.667 -207.667 -146 -275c-68 -46 -147 -69 -237 -69c-136.667 0 -240.667 47 -312 141c-20 27.333 -35.667 57.333 -47 90l-12 45c-6.66699 26 -10 69.667 -10 131h174c0 -73.333 12.333 -126.333 37 -159c39.333 -60.667 96.666 -91 171.999 -91
c87.333 0 146.666 32.333 177.999 97c12 23.333 18 50 18 80c0 62.667 -30 117 -90 163v0l-22 17l-349 239c-114.667 79.333 -176.667 174.333 -186 285c-1.33301 10.667 -2 23 -2 37c0 114.667 54 206.667 162 276c14.667 10 32.334 20.333 53.001 31
c-28.667 32.667 -49.667 63.334 -63 92.001c-18 34.667 -27 73.667 -27 117c0 108 46.333 195.333 139 262c68.667 50.667 148.667 76 240 76c135.333 0 235.666 -50.667 300.999 -152c38 -58.667 57 -129 57 -211v-40v-17zM385.004 468.998l340.001 -251.999
c98 52 147.667 121.667 149 209c0 83.333 -49.667 159.666 -149 228.999l-330 224c-38 -24.667 -67.333 -48 -88 -70c-38 -38 -57 -83.667 -57 -137c0 -42.667 9.66699 -77.667 29 -105c17.333 -26 52.666 -58.667 105.999 -98z" />
    <glyph glyph-name="dieresis" unicode="&#xa8;" horiz-adv-x="681" 
d="M274 1464v-211h-213v211h213zM606 1464v-211h-213v211h213z" />
    <glyph glyph-name="copyright" unicode="&#xa9;" horiz-adv-x="1509" 
d="M1114 895l-144.999 0.00195312c-27.333 105.333 -75.333 166.666 -144 183.999c-16 4 -35 6 -57 6c-102.667 0 -175.667 -51.667 -219 -155c-24.667 -54.667 -37 -120.334 -37 -197.001c0 -108 24.667 -192.667 74 -254c35.333 -46 81.666 -76 138.999 -90
c15.333 -2.66699 29.666 -4 42.999 -4c112 0 183 77.667 213 233l4 21h145l-12 -61c-17.333 -74 -41 -133 -71 -177c-67.333 -95.333 -160.333 -143 -279 -143c-138 0 -243.667 58 -317 174c-53.333 82 -80 181.667 -80 299c0 178.667 54.667 311.667 164 399
c66.667 54.667 146.334 82 239.001 82c164 0 272.667 -88 326 -264l2 -2c4 -16 8 -33 12 -51zM756.001 1520c206 0 384 -70.333 534 -211c147.333 -138 229.333 -307.333 246 -508c1.33301 -19.333 2 -40 2 -62c0 -211.333 -72.333 -392 -217 -542
c-140.667 -148 -315.334 -228 -524.001 -240l-52 -2c-197.333 0 -370.666 69.667 -519.999 209c-146 138 -228.667 304.667 -248 500c-2.66699 22.667 -4 47 -4 73c0 206.667 70.333 385 211 535c139.333 147.333 309.333 229.333 510 246zM756.001 1393
c-176 0 -327.001 -63.665 -453.001 -190.998c-125.333 -126.667 -188.666 -281.667 -189.999 -465c0 -177.333 62 -330 186 -458c121.333 -127.333 271 -193 449 -197c184 0 338.667 64.667 464 194c124.667 127.333 187 281.666 187 462.999c0 179.333 -63 333 -189 461
c-124 127.333 -275.333 191.666 -454 192.999z" />
    <glyph glyph-name="ordfeminine" unicode="&#xaa;" horiz-adv-x="757" 
d="M655 725v-104h-567v104h567zM682 920l-0.000976562 -91.001l-37 -10h-4l-2 -2h-2h-2h-19c-60 0 -96.667 25.333 -110 76l-2 12c-67.333 -58.667 -139 -88 -215 -88c-101.333 0 -167.666 38.333 -198.999 115c-9.33301 24.667 -14 52 -14 82c0 84.667 39 144 117 178l20 8
c50.667 14 112 23.667 184 29c58.667 4 91.667 19 99 45v2v2v2l2 16v27c0 58.667 -46 88.667 -138 90c-64 0 -104.667 -19 -122 -57c-7.33301 -15.333 -13 -34.666 -17 -57.999h-121c4 140.667 84.667 214.667 242 222h23c164.667 0 247.667 -64.333 249 -193v-366
c0 -32 16 -48 48 -48zM497.999 1059v104h-2l-37 -12v0l-117 -21c-86 -10.667 -134.333 -37.667 -145 -81v-2v-3v-2v-2v-2l-2 -2v-16c0 -57.333 38.667 -89.333 116 -96c71.333 0 125.333 23.667 162 71l2 2c15.333 19.333 23 40 23 62z" />
    <glyph glyph-name="guillemotleft" unicode="&#xab;" 
d="M201 465v182l311 250v-170l-217 -170l217 -170v-170zM621 465v182l311 250v-170l-217 -170l217 -170v-170z" />
    <glyph glyph-name="logicalnot" unicode="&#xac;" horiz-adv-x="1196" 
d="M82 768h1032v-592h-143v449h-889v143z" />
    <glyph glyph-name="softhyphen" unicode="&#xad;" horiz-adv-x="681" 
d="M582 639v-147h-488v147h488z" />
    <glyph glyph-name="registered" unicode="&#xae;" horiz-adv-x="1509" 
d="M557 666l0.000976562 -379.001h-143v911h422c190.667 0 286.667 -86 288 -258c0 -66.667 -20.333 -120.667 -61 -162l-2 -2l-47 -39l24 -16c20.667 -15.333 35 -32.333 43 -51c15.333 -27.333 23.666 -81.333 24.999 -162c1.33301 -83.333 11 -134.666 29 -153.999l6 -6
l10 -8l2 -2v-51h-162c-20 46 -30 98.333 -30 157l2 82c0 80.667 -31.667 126.667 -95 138h-2l-35 2h-274zM557.001 794.999l264 0.000976562c96 0 147.333 45.667 154 137c0 79.333 -35.667 123.666 -107 132.999c0 1.33301 -0.666992 2 -2 2
c-13.333 1.33301 -28.333 2 -45 2h-264v-274zM756.001 1520c206 0 384 -70.333 534 -211c147.333 -138 229.333 -307.333 246 -508c1.33301 -19.333 2 -40 2 -62c0 -211.333 -72.333 -392 -217 -542c-140.667 -148 -315.334 -228 -524.001 -240l-52 -2
c-197.333 0 -370.666 69.667 -519.999 209c-146 138 -228.667 304.667 -248 500c-2.66699 22.667 -4 47 -4 73c0 206.667 70.333 385 211 535c139.333 147.333 309.333 229.333 510 246zM756.001 1393c-176 0 -327.001 -63.665 -453.001 -190.998
c-125.333 -126.667 -188.666 -281.667 -189.999 -465c0 -177.333 62 -330 186 -458c121.333 -127.333 271 -193 449 -197c184 0 338.667 64.667 464 194c124.667 127.333 187 281.666 187 462.999c0 179.333 -63 333 -189 461c-124 127.333 -275.333 191.666 -454 192.999z
" />
    <glyph glyph-name="macron" unicode="&#xaf;" horiz-adv-x="681" 
d="M618 1436v-144h-561v144h561z" />
    <glyph glyph-name="degree" unicode="&#xb0;" horiz-adv-x="1241" 
d="M621 1405c100.667 0 181.667 -40.333 243 -121c42.667 -54.667 64.667 -117.334 66 -188.001c0 -104 -41 -186.667 -123 -248c-56 -42.667 -119.667 -64 -191 -64c-98 0 -178.333 40.333 -241 121c-44 56 -66 119.667 -66 191c0 100.667 41 182.334 123 245.001
c54.667 42.667 117.667 64 189 64zM621 1288c-71.333 0 -125.999 -30.001 -163.999 -90.001c-20.667 -31.333 -31 -65.333 -31 -102c0 -70 30 -124.667 90 -164c31.333 -20.667 64.666 -31 99.999 -31c75.333 0 131.333 31.333 168 94c19.333 30 29 63.667 29 101
c0 70.667 -30 125.334 -90 164.001c-31.333 18.667 -65.333 28 -102 28z" />
    <glyph glyph-name="plusminus" unicode="&#xb1;" horiz-adv-x="1196" 
d="M1094 852v-143h-424v-424h-144v424h-424v143h424v424h144v-424h424zM1094 121v-144h-992v144h992z" />
    <glyph glyph-name="twosuperior" unicode="&#xb2;" horiz-adv-x="718" 
d="M662 700l0.00195312 -117.999h-623c5.33301 117.333 34.666 204.666 87.999 261.999c20.667 22 46.667 43.667 78 65c1.33301 1.33301 3.33301 2 6 2c24.667 18 54 36 88 54l119 63c79.333 42.667 119.666 96.667 120.999 162c0 61.333 -29.333 106.333 -88 135
c-26 12 -54.667 18 -86 18c-70 0 -120.667 -26.333 -152 -79c-13.333 -23.333 -22.333 -64.333 -27 -123h-127c6 198 100.333 301.667 283 311h27c118.667 0 204.667 -40.333 258 -121v0v0c16 -23.333 26.667 -48.666 32 -75.999c6 -18.667 9 -39 9 -61
c0 -110.667 -65.667 -198.667 -197 -264l-129 -66l-41 -24c-53.333 -34.667 -89.333 -81.334 -108 -140.001h469z" />
    <glyph glyph-name="threesuperior" unicode="&#xb3;" horiz-adv-x="718" 
d="M276 975l-0.000976562 103.999c116.667 0 186.334 18 209.001 54c11.333 16 17 39.667 17 71c0 70 -33.667 114.333 -101 133c-16 4 -34.333 6 -55 6c-72 0 -121 -23.667 -147 -71c-12.667 -23.333 -19 -60.333 -19 -111h-129c4 194 102.333 291 295 291
c131.333 0 218.666 -45 261.999 -135c15.333 -31.333 23 -68.333 23 -111c0 -80.667 -39 -138.667 -117 -174c95.333 -31.333 143.666 -99.666 144.999 -204.999c0 -112 -48.333 -191 -145 -237c-49.333 -24.667 -106.666 -37 -171.999 -37c-154 0 -251 58.667 -291 176
c-12 32.667 -18 71 -18 115h127c5.33301 -106.667 51 -166 137 -178l49 -4c98.667 0 158 38 178 114l6 51c0 63.333 -27 107 -81 131c-11.333 6 -23.666 10.333 -36.999 13z" />
    <glyph glyph-name="acute" unicode="&#xb4;" horiz-adv-x="681" 
d="M385 1516h231l-305 -304h-123z" />
    <glyph glyph-name="mu" unicode="&#xb5;" 
d="M1114 100l-0.000976562 -129.001c-36.667 -9.33301 -66 -14.666 -88 -15.999c-8 -1.33301 -17.667 -2 -29 -2c-107.333 0 -165.333 49.667 -174 149c-1.33301 7.33301 -2 14.333 -2 21c-80.667 -113.333 -192 -170 -334 -170c-73.333 0 -134.666 17.667 -183.999 53v-457
h-170v1524h170v-760c0 -95.333 39.667 -159.333 119 -192c30 -12.667 63.333 -19 100 -19c116 0 200 53.333 252 160c27.333 57.333 41 125 41 203v608h170v-893c0 -56 30.667 -84 92 -84z" />
    <glyph glyph-name="paragraph" unicode="&#xb6;" horiz-adv-x="1099" 
d="M1069 1493l-0.000976562 -131h-117v-1724h-131v1724h-168v-1724h-131v892c-104.667 6 -190 36.333 -256 91c-99.333 82.667 -154.666 196 -165.999 340c-1.33301 12 -2 25.333 -2 40c0 153.333 52.667 278.333 158 375c84.667 78 185 117 301 117h512z" />
    <glyph glyph-name="periodcentered" unicode="&#xb7;" horiz-adv-x="569" 
d="M432 874v-256h-254v256h254z" />
    <glyph glyph-name="cedilla" unicode="&#xb8;" horiz-adv-x="681" 
d="M338 0h78.002l-47 -115l51 4h6c95.333 0 148.666 -37.333 159.999 -112l2 -25c0 -86 -45 -144 -135 -174c-34.667 -10.667 -73.667 -16 -117 -16l-64 4c-32.667 4 -72 15.667 -118 35l-74 30l43 82l18 -8c67.333 -34 116.666 -53 147.999 -57l35 -2
c51.333 0 86 19.667 104 59c4 9.33301 6 20.333 6 33c0 44.667 -31.333 70 -94 76l-33 -4l-31 -13l-24 15z" />
    <glyph glyph-name="onesuperior" unicode="&#xb9;" horiz-adv-x="718" 
d="M328 1188l-203 0.000976562v94l31 2c83.333 8 137 25.667 161 53c16.667 19.333 31.667 51.666 45 96.999l5 18h88v-870h-127v606z" />
    <glyph glyph-name="ordmasculine" unicode="&#xba;" horiz-adv-x="747" 
d="M643 725v-104h-539v104h539zM373 1520c147.333 0 238.667 -72.333 274 -217c11.333 -41.333 17 -88 17 -140c0 -162 -54 -268.333 -162 -319c-37.333 -18 -80.333 -27 -129 -27c-138 0 -227.667 65 -269 195c-14.667 44.667 -22 97 -22 157c0 172 57.333 281.333 172 328
c35.333 15.333 75 23 119 23zM373.001 1413c-80.667 0 -133.999 -45.667 -159.999 -137v-2v-2c-8 -30 -12 -64.333 -12 -103c0 -126.667 37.333 -205 112 -235c19.333 -6.66699 39.333 -10 60 -10c80.667 0 133.667 45.667 159 137v0v4
c7.33301 23.333 11.666 49.333 12.999 78v22c0 131.333 -39 211.333 -117 240c-18 5.33301 -36.333 8 -55 8z" />
    <glyph glyph-name="guillemotright" unicode="&#xbb;" 
d="M516 649v-182l-315 -250v170l221 170l-221 170v170zM924 649v-182l-316 -250v170l221 170l-221 170v170z" />
    <glyph glyph-name="onequarter" unicode="&#xbc;" horiz-adv-x="1779" 
d="M328 1188l-203 0.000976562v94l31 2c83.333 8 137 25.667 161 53c16.667 19.333 31.667 51.666 45 96.999l5 18h88v-870h-127v606zM1317 1452h119l-926 -1493h-119zM1475 205.001h-385v121l417 544h95v-557h137v-108h-137v-205h-127v205zM1475 313.001v349l-265 -349h265
z" />
    <glyph glyph-name="onehalf" unicode="&#xbd;" horiz-adv-x="1779" 
d="M328 1188l-203 0.000976562v94l31 2c83.333 8 137 25.667 161 53c16.667 19.333 31.667 51.666 45 96.999l5 18h88v-870h-127v606zM1268 1452h118l-925 -1493h-119zM1722 119.001v-118.999h-622c5.33301 117.333 34.666 204.666 87.999 261.999
c20.667 23.333 48.667 46 84 68v2l2 2l86 49l119 63c78.667 42.667 118.667 96.667 120 162c0 61.333 -29.333 106.333 -88 135c-25.333 12.667 -54 19 -86 19c-69.333 0 -119.666 -26.667 -150.999 -80c-14 -23.333 -23 -64.333 -27 -123h-127
c5.33301 198 99.666 301.667 282.999 311h27c118.667 0 204.667 -40 258 -120l2 -2c26 -40 39 -85.333 39 -136c0 -110.667 -65.667 -198.667 -197 -264l-129 -65l-41 -25c-53.333 -34 -89.666 -80.333 -108.999 -139h469z" />
    <glyph glyph-name="threequarters" unicode="&#xbe;" horiz-adv-x="1779" 
d="M276 975l-0.000976562 103.999c116.667 0 186.334 18 209.001 54c11.333 16 17 39.667 17 71c0 70 -33.667 114.333 -101 133c-16 4 -34.333 6 -55 6c-72 0 -121 -23.667 -147 -71c-12.667 -23.333 -19 -60.333 -19 -111h-129c4 194 102.333 291 295 291
c131.333 0 218.666 -45 261.999 -135c15.333 -31.333 23 -68.333 23 -111c0 -80.667 -39 -138.667 -117 -174c95.333 -31.333 143.666 -99.666 144.999 -204.999c0 -112 -48.333 -191 -145 -237c-49.333 -24.667 -106.666 -37 -171.999 -37c-154 0 -251 58.667 -291 176
c-12 32.667 -18 71 -18 115h127c5.33301 -106.667 51 -166 137 -178l49 -4c98.667 0 158 38 178 114l6 51c0 63.333 -27 107 -81 131c-11.333 6 -23.666 10.333 -36.999 13zM1337 1452h119l-926 -1493h-118zM1475 204.999h-385v121l417 544h95v-557h137v-108h-137v-205h-127
v205zM1475 312.999v349l-265 -349h265z" />
    <glyph glyph-name="questiondown" unicode="&#xbf;" horiz-adv-x="1251" 
d="M563 666l184.998 0.000976562v-113c0 -52 -9.66699 -95.667 -29 -131l-29 -47l-22 -27l-6 -8l-39 -39l-2 -2l-89 -80c-57.333 -50.667 -98 -99 -122 -145c-20.667 -38.667 -31 -80.334 -31 -125.001c0 -96 41.667 -164.333 125 -205c36.667 -18 83 -27.667 139 -29
c112 0 188.333 39.667 229 119c23.333 46.667 35 113.667 35 201h174c0 -288 -122.667 -446.333 -368 -475l-80 -4c-176 0 -301.667 58 -377 174c-39.333 60 -59.666 133 -60.999 219c0 66.667 14.333 126 43 178c28.667 54.667 82.334 117.334 161.001 188.001
c84.667 76.667 134.667 132 150 166c6.66699 15.333 10.667 31.666 12 48.999l2 39v97zM562.998 860.001v213h185v-213h-185z" />
    <glyph glyph-name="Agrave" unicode="&#xc0;" horiz-adv-x="1366" 
d="M971 449h-576l-157 -449h-203l532 1493h246l524 -1493h-213zM918 608l-230 680l-246 -680h476zM623 1923l196 -303h-123l-305 303h232z" />
    <glyph glyph-name="Aacute" unicode="&#xc1;" horiz-adv-x="1366" 
d="M971 449h-576l-157 -449h-203l532 1493h246l524 -1493h-213zM918 608l-230 680l-246 -680h476zM758 1923h231l-305 -303h-123z" />
    <glyph glyph-name="Acircumflex" unicode="&#xc2;" horiz-adv-x="1366" 
d="M971 449h-576l-157 -449h-203l532 1493h246l524 -1493h-213zM918 608l-230 680l-246 -680h476zM590 1925h194l197 -307h-129l-166 197l-162 -197h-131z" />
    <glyph glyph-name="Atilde" unicode="&#xc3;" horiz-adv-x="1366" 
d="M971 449h-576l-157 -449h-203l532 1493h246l524 -1493h-213zM918 608l-230 680l-246 -680h476zM889 1876l118.997 -0.000976562c-20.667 -142 -81.667 -213 -183 -213h-16c-12 1.33301 -25.667 4 -41 8l-117 43c-47.333 18 -80.666 27 -99.999 27
c-31.333 0 -54 -25.333 -68 -76h-118c21.333 126.667 72.333 196.334 153 209.001c6.66699 1.33301 14.334 2 23.001 2l32 -2c6 0 12.333 -1.33301 19 -4h2l90 -33l25 -10c44.667 -18 79.334 -27 104.001 -27c34 0 59.333 25.333 76 76z" />
    <glyph glyph-name="Adieresis" unicode="&#xc4;" horiz-adv-x="1366" 
d="M971 449h-576l-157 -449h-203l532 1493h246l524 -1493h-213zM918 608l-230 680l-246 -680h476zM627 1872v-211h-213v211h213zM958 1872v-211h-213v211h213z" />
    <glyph glyph-name="Aring" unicode="&#xc5;" horiz-adv-x="1366" 
d="M971 449h-576l-157 -449h-203l532 1493h246l524 -1493h-213zM918 608l-230 680l-246 -680h476zM686 1952c68 0 120 -29.335 156 -88.002v0c16 -27.333 24 -58 24 -92c0 -67.333 -29.333 -118.666 -88 -153.999c-28.667 -16.667 -59.334 -25 -92.001 -25
c-65.333 0 -116.666 28.667 -153.999 86c-17.333 28.667 -26 60.334 -26 95.001c0 64 28.667 114.333 86 151c28.667 18 60 27 94 27zM686 1862c-39.333 0 -67.333 -18.667 -84 -56l-6 -32c0 -40 18.333 -67.333 55 -82l35 -9c39.333 0 67.333 18.667 84 56l6 33
c0 42 -19 69.667 -57 83c-11.333 4.66699 -22.333 7 -33 7z" />
    <glyph glyph-name="AE" unicode="&#xc6;" horiz-adv-x="2048" 
d="M958 438h-550l-175 -438h-210l612 1493h1274v-168h-760v-477h721v-168h-721v-512h797v-168h-988v438zM958 606v719h-204l-283 -719h487z" />
    <glyph glyph-name="Ccedilla" unicode="&#xc7;" horiz-adv-x="1478" 
d="M776 -47l-25.998 -68l51 4h6c95.333 0 148.666 -37.333 159.999 -112l2 -25c0 -86 -45 -144 -135 -174c-34.667 -10.667 -73.667 -16 -117 -16l-58 4c-44.667 5.33301 -110.667 27 -198 65l43 82l18 -8c68.667 -34 120 -53 154 -57l29 -2c51.333 0 86 19.667 104 59
c4 9.33301 6 20.333 6 33c0 44.667 -31.333 70 -94 76l-33 -4l-31 -13l-22 15l63 141c-110.667 16 -193.667 40 -249 72l-56 34c-148.667 106.667 -241.334 268.667 -278.001 486c-11.333 58.667 -17 120 -17 184c0 243.333 66.333 440.666 199 591.999l10 10
c112 124.667 269.667 187 473 187c325.333 0 517.333 -162.667 576 -488h-195c-20.667 102.667 -56.667 177.667 -108 225c-63.333 58.667 -161 90.334 -293 95.001c-176 0 -305.667 -78.667 -389 -236c-54.667 -102 -82 -229.667 -82 -383c0 -234.667 65.333 -406 196 -514
c80.667 -65.333 177 -98 289 -98c148.667 0 258 52.333 328 157c8 11.333 14.667 23 20 35c30 58.667 52.667 136.667 68 234h196c-44.667 -394.667 -248 -592 -610 -592z" />
    <glyph glyph-name="Egrave" unicode="&#xc8;" horiz-adv-x="1366" 
d="M375 680v-512h880v-168h-1071v1493h1035v-168h-844v-477h813v-168h-813zM655 1923l197 -303h-123l-305 303h231z" />
    <glyph glyph-name="Eacute" unicode="&#xc9;" horiz-adv-x="1366" 
d="M375 680v-512h880v-168h-1071v1493h1035v-168h-844v-477h813v-168h-813zM750 1923h231l-305 -303h-123z" />
    <glyph glyph-name="Ecircumflex" unicode="&#xca;" horiz-adv-x="1366" 
d="M375 680v-512h880v-168h-1071v1493h1035v-168h-844v-477h813v-168h-813zM608 1925h195l196 -307h-129l-165 197l-162 -197h-131z" />
    <glyph glyph-name="Edieresis" unicode="&#xcb;" horiz-adv-x="1366" 
d="M375 680v-512h880v-168h-1071v1493h1035v-168h-844v-477h813v-168h-813zM645 1872v-211h-213v211h213zM977 1872v-211h-213v211h213z" />
    <glyph glyph-name="Igrave" unicode="&#xcc;" horiz-adv-x="569" 
d="M395 1493v-1493h-190v1493h190zM233 1923l197 -303h-123l-305 303h231z" />
    <glyph glyph-name="Iacute" unicode="&#xcd;" horiz-adv-x="569" 
d="M395 1493v-1493h-190v1493h190zM342 1923h231l-305 -303h-123z" />
    <glyph glyph-name="Icircumflex" unicode="&#xce;" horiz-adv-x="569" 
d="M395 1493v-1493h-190v1493h190zM195 1925h194l197 -307h-129l-166 197l-162 -197h-131z" />
    <glyph glyph-name="Idieresis" unicode="&#xcf;" horiz-adv-x="569" 
d="M395 1493v-1493h-190v1493h190zM231 1858v-211h-213v211h213zM563 1858v-211h-213v211h213z" />
    <glyph glyph-name="Eth" unicode="&#xd0;" horiz-adv-x="1478" 
d="M182 694l-141 -0.000976562v137h141v662h578c222.667 0 387 -90 493 -270l2 -2c66 -112 102.333 -248.667 109 -410l2 -63c0 -287.333 -79.333 -495.666 -238 -624.999c-99.333 -82 -222 -123 -368 -123h-578v694zM373 693.999v-526h354c243.333 0 388 130.333 434 391
c10 56 15 119 15 189c0 326 -110 514.333 -330 565c-35.333 8 -75 12 -119 12h-354v-494h350v-137h-350z" />
    <glyph glyph-name="Ntilde" unicode="&#xd1;" horiz-adv-x="1478" 
d="M1323 1493v-1493h-215l-772 1210v-1210h-180v1493h206l781 -1221v1221h180zM956 1876l119.001 -0.000976562c-20.667 -142 -81.334 -213 -182.001 -213h-16c-12.667 1.33301 -26.334 4 -41.001 8l-117 43c-48 18 -81.667 27 -101 27
c-31.333 0 -53.666 -25.333 -66.999 -76h-119c22 126.667 73.333 196.334 154 209.001c6.66699 1.33301 14 2 22 2l33 -2c5.33301 0 11.333 -1.33301 18 -4h3l90 -33l24 -10c45.333 -18 80.333 -27 105 -27c34 0 59 25.333 75 76z" />
    <glyph glyph-name="Ograve" unicode="&#xd2;" horiz-adv-x="1593" 
d="M797 1518c237.333 0 422.333 -84.001 555 -252.001l2 -2l4 -4c82 -108 133 -240 153 -396c6 -44.667 9 -91.667 9 -141c0 -202 -56 -374.667 -168 -518c-27.333 -35.333 -57.333 -66.666 -90 -93.999c-124.667 -105.333 -279 -158 -463 -158c-228 0 -409 80 -543 240
c-118.667 142 -178 322.667 -178 542c0 251.333 75.667 450 227 596c130 124.667 294 187 492 187zM797 1350c-178 0 -316 -69.667 -414 -209c-76.667 -108 -115 -243.333 -115 -406c0 -215.333 65 -379.666 195 -492.999c91.333 -80.667 203.333 -121 336 -121
c176 0 313 68.333 411 205c79.333 106 119 239.667 119 401c0 225.333 -67 394.666 -201 507.999c-90 76.667 -200.333 115 -331 115zM735 1923l197 -303h-123l-305 303h231z" />
    <glyph glyph-name="Oacute" unicode="&#xd3;" horiz-adv-x="1593" 
d="M797 1518c237.333 0 422.333 -84.001 555 -252.001l2 -2l4 -4c82 -108 133 -240 153 -396c6 -44.667 9 -91.667 9 -141c0 -202 -56 -374.667 -168 -518c-27.333 -35.333 -57.333 -66.666 -90 -93.999c-124.667 -105.333 -279 -158 -463 -158c-228 0 -409 80 -543 240
c-118.667 142 -178 322.667 -178 542c0 251.333 75.667 450 227 596c130 124.667 294 187 492 187zM797 1350c-178 0 -316 -69.667 -414 -209c-76.667 -108 -115 -243.333 -115 -406c0 -215.333 65 -379.666 195 -492.999c91.333 -80.667 203.333 -121 336 -121
c176 0 313 68.333 411 205c79.333 106 119 239.667 119 401c0 225.333 -67 394.666 -201 507.999c-90 76.667 -200.333 115 -331 115zM856 1923h231l-305 -303h-123z" />
    <glyph glyph-name="Ocircumflex" unicode="&#xd4;" horiz-adv-x="1593" 
d="M797 1518c237.333 0 422.333 -84.001 555 -252.001l2 -2l4 -4c82 -108 133 -240 153 -396c6 -44.667 9 -91.667 9 -141c0 -202 -56 -374.667 -168 -518c-27.333 -35.333 -57.333 -66.666 -90 -93.999c-124.667 -105.333 -279 -158 -463 -158c-228 0 -409 80 -543 240
c-118.667 142 -178 322.667 -178 542c0 251.333 75.667 450 227 596c130 124.667 294 187 492 187zM797 1350c-178 0 -316 -69.667 -414 -209c-76.667 -108 -115 -243.333 -115 -406c0 -215.333 65 -379.666 195 -492.999c91.333 -80.667 203.333 -121 336 -121
c176 0 313 68.333 411 205c79.333 106 119 239.667 119 401c0 225.333 -67 394.666 -201 507.999c-90 76.667 -200.333 115 -331 115zM702 1925h195l197 -307h-129l-166 197l-162 -197h-131z" />
    <glyph glyph-name="Otilde" unicode="&#xd5;" horiz-adv-x="1593" 
d="M797 1518c237.333 0 422.333 -84.001 555 -252.001l2 -2l4 -4c82 -108 133 -240 153 -396c6 -44.667 9 -91.667 9 -141c0 -202 -56 -374.667 -168 -518c-27.333 -35.333 -57.333 -66.666 -90 -93.999c-124.667 -105.333 -279 -158 -463 -158c-228 0 -409 80 -543 240
c-118.667 142 -178 322.667 -178 542c0 251.333 75.667 450 227 596c130 124.667 294 187 492 187zM797 1350c-178 0 -316 -69.667 -414 -209c-76.667 -108 -115 -243.333 -115 -406c0 -215.333 65 -379.666 195 -492.999c91.333 -80.667 203.333 -121 336 -121
c176 0 313 68.333 411 205c79.333 106 119 239.667 119 401c0 225.333 -67 394.666 -201 507.999c-90 76.667 -200.333 115 -331 115zM1008 1876l118.002 -0.000976562c-20 -142 -80.667 -213 -182 -213h-16c-12.667 1.33301 -26.334 4 -41.001 8l-117 43
c-48 18 -81.333 27 -100 27c-31.333 0 -54 -25.333 -68 -76h-119c22 126.667 73.333 196.334 154 209.001c6.66699 1.33301 14 2 22 2l33 -2c5.33301 0 11.666 -1.33301 18.999 -4h2l90 -33l24 -10c45.333 -18 80.333 -27 105 -27c34 0 59.333 25.333 76 76z" />
    <glyph glyph-name="Odieresis" unicode="&#xd6;" horiz-adv-x="1593" 
d="M797 1518c237.333 0 422.333 -84.001 555 -252.001l2 -2l4 -4c82 -108 133 -240 153 -396c6 -44.667 9 -91.667 9 -141c0 -202 -56 -374.667 -168 -518c-27.333 -35.333 -57.333 -66.666 -90 -93.999c-124.667 -105.333 -279 -158 -463 -158c-228 0 -409 80 -543 240
c-118.667 142 -178 322.667 -178 542c0 251.333 75.667 450 227 596c130 124.667 294 187 492 187zM797 1350c-178 0 -316 -69.667 -414 -209c-76.667 -108 -115 -243.333 -115 -406c0 -215.333 65 -379.666 195 -492.999c91.333 -80.667 203.333 -121 336 -121
c176 0 313 68.333 411 205c79.333 106 119 239.667 119 401c0 225.333 -67 394.666 -201 507.999c-90 76.667 -200.333 115 -331 115zM739 1872v-211h-213v211h213zM1071 1872v-211h-213v211h213z" />
    <glyph glyph-name="multiply" unicode="&#xd7;" horiz-adv-x="1196" 
d="M897 874l100 -102l-299 -299l301 -301l-102 -102l-301 301l-299 -299l-102 100l301 301l-299 299l100 100l299 -297z" />
    <glyph glyph-name="Oslash" unicode="&#xd8;" horiz-adv-x="1593" 
d="M61 39l166.001 181.999c-103.333 144.667 -155 316.667 -155 516c0 251.333 76.333 449.333 229 594c130 124.667 294 187 492 187c186.667 0 343.667 -55.333 471 -166l178 194l82 -73l-183 -199c114.667 -143.333 172 -323.666 172 -540.999
c0 -251.333 -76.333 -449.333 -229 -594c-129.333 -124 -293 -186 -491 -186c-196.667 0 -361.334 61.333 -494.001 184l-158 -172zM356.001 359.999l787 859c-100 87.333 -216.667 131 -350 131c-180.667 0 -320 -70.333 -418 -211c-75.333 -108 -113 -242 -113 -402
c0 -142 31.333 -267.667 94 -377zM1214 1135l-792.001 -863c100.667 -100.667 224.334 -151 371.001 -151c180 0 319 70.333 417 211c75.333 108 113 241.667 113 401c0 156 -36.333 290 -109 402z" />
    <glyph glyph-name="Ugrave" unicode="&#xd9;" horiz-adv-x="1478" 
d="M1130 1493l191 -0.000976562v-1049c0 -177.333 -71 -310.333 -213 -399c-98 -61.333 -219 -92 -363 -92c-224.667 0 -387 69 -487 207c-54.667 77.333 -82.667 172 -84 284v1049h191v-1049c0 -107.333 36 -189 108 -245c72.667 -52 163.334 -78 272.001 -78
c168 0 283 54 345 162c25.333 44.667 38.666 98.334 39.999 161.001v1049zM684 1923l197 -303h-123l-305 303h231z" />
    <glyph glyph-name="Uacute" unicode="&#xda;" horiz-adv-x="1478" 
d="M1130 1493l191 -0.000976562v-1049c0 -177.333 -71 -310.333 -213 -399c-98 -61.333 -219 -92 -363 -92c-224.667 0 -387 69 -487 207c-54.667 77.333 -82.667 172 -84 284v1049h191v-1049c0 -107.333 36 -189 108 -245c72.667 -52 163.334 -78 272.001 -78
c168 0 283 54 345 162c25.333 44.667 38.666 98.334 39.999 161.001v1049zM793 1923h231l-305 -303h-123z" />
    <glyph glyph-name="Ucircumflex" unicode="&#xdb;" horiz-adv-x="1478" 
d="M1130 1493l191 -0.000976562v-1049c0 -177.333 -71 -310.333 -213 -399c-98 -61.333 -219 -92 -363 -92c-224.667 0 -387 69 -487 207c-54.667 77.333 -82.667 172 -84 284v1049h191v-1049c0 -107.333 36 -189 108 -245c72.667 -52 163.334 -78 272.001 -78
c168 0 283 54 345 162c25.333 44.667 38.666 98.334 39.999 161.001v1049zM651 1925h195l196 -307h-129l-165 197l-162 -197h-131z" />
    <glyph glyph-name="Udieresis" unicode="&#xdc;" horiz-adv-x="1478" 
d="M1130 1493l191 -0.000976562v-1049c0 -177.333 -71 -310.333 -213 -399c-98 -61.333 -219 -92 -363 -92c-224.667 0 -387 69 -487 207c-54.667 77.333 -82.667 172 -84 284v1049h191v-1049c0 -107.333 36 -189 108 -245c72.667 -52 163.334 -78 272.001 -78
c168 0 283 54 345 162c25.333 44.667 38.666 98.334 39.999 161.001v1049zM688 1872v-211h-213v211h213zM1020 1872v-211h-213v211h213z" />
    <glyph glyph-name="Yacute" unicode="&#xdd;" horiz-adv-x="1363" 
d="M793 586v-586h-191v586l-575 907h235l438 -727l426 727h228zM748 1923h231l-305 -303h-123z" />
    <glyph glyph-name="Thorn" unicode="&#xde;" horiz-adv-x="1363" 
d="M377 387l-0.000976562 -387h-191v1493h191v-246h426c189.333 0 322.333 -64.667 399 -194c40 -67.333 60 -147.333 60 -240c0 -150 -53.333 -264.667 -160 -344c-71.333 -54.667 -156.666 -82 -255.999 -82h-469zM376.999 555l397 -0.000976562
c136.667 0 224.667 51.333 264 154c12.667 31.333 19 67.333 19 108c0 124.667 -53.333 205.334 -160 242.001c-35.333 13.333 -76.333 20 -123 20h-397v-524z" />
    <glyph glyph-name="germandbls" unicode="&#xdf;" horiz-adv-x="1251" 
d="M618 715l0.00195312 167.998h19c113.333 0 195.333 36.667 246 110c18.667 28.667 29.334 60 32.001 94c2 7.33301 3 15 3 23c0 88.667 -38.333 153 -115 193c-36.667 20 -79 30 -127 30c-109.333 0 -184.333 -41 -225 -123c-15.333 -31.333 -23 -67.333 -23 -108v-1102
h-170v1102c0 122.667 35.667 215.334 107 278.001c87.333 75.333 195.666 113 324.999 113c153.333 0 266.666 -52.667 339.999 -158c44 -61.333 66 -134.333 66 -219c0 -142 -74.667 -240.333 -224 -295c157.333 -53.333 249.666 -142.666 276.999 -267.999
c6.66699 -31.333 10 -66 10 -104c0 -191.333 -64 -330 -192 -416c-74 -49.333 -163 -74 -267 -74l-45 2l-45 6v160h17h57c112 0 195.333 44.333 250 133c31.333 49.333 47 108 47 176c0 118.667 -43 200.667 -129 246c-18 9.33301 -37 16 -57 20l-37 7l-2 2
c-22 2.66699 -68 4 -138 4z" />
    <glyph glyph-name="agrave" unicode="&#xe0;" 
d="M1096 100l-0.000976562 -129.003c-40 -10.667 -71.667 -16.667 -95 -18h-2h-20c-96.667 0 -154 43 -172 129l-4 29c-38.667 -36 -76.334 -64.667 -113.001 -86c-76.667 -48 -160.667 -72 -252 -72c-150 0 -254.333 51 -313 153c-26 46.667 -39 101.334 -39 164.001
c0 139.333 62.667 235 188 287l23 8l70 21c12 2.66699 25 5.33398 39 8.00098c40.667 6.66699 111.334 16.334 212.001 29.001c100 12 157.667 37.667 173 77v2v3l6 36v45c0 88 -55.333 140 -166 156c-23.333 2.66699 -48 4 -74 4c-140.667 0 -222.667 -51 -246 -153
c-2.66699 -12.667 -4.66699 -25 -6 -37h-172c4 98 28.667 172.333 74 223c74.667 83.333 193.334 125 356.001 125c240.667 0 374 -79.333 400 -238c2.66699 -16 4 -34.333 4 -55v-631c0 -56 30.667 -84 92 -84h4c8 0 15.333 0.666992 22 2h2zM796.999 337.997
l-0.000976562 191.999l-21 -8c-22 -9.33301 -48 -17.333 -78 -24l-176 -27c-144.667 -20.667 -228 -67.667 -250 -141l-8 -54v-2c0 -88.667 45.667 -143 137 -163c22 -6 46.667 -9 74 -9c98.667 0 183.334 32.333 254.001 97c18 16 32.333 31.667 43 47
c16.667 24.667 25 55.334 25 92.001zM511.998 1516l197 -304h-123l-305 304h231z" />
    <glyph glyph-name="aacute" unicode="&#xe1;" 
d="M1096 100l-0.000976562 -129.003c-40 -10.667 -71.667 -16.667 -95 -18h-2h-20c-96.667 0 -154 43 -172 129l-4 29c-38.667 -36 -76.334 -64.667 -113.001 -86c-76.667 -48 -160.667 -72 -252 -72c-150 0 -254.333 51 -313 153c-26 46.667 -39 101.334 -39 164.001
c0 139.333 62.667 235 188 287l23 8l70 21c12 2.66699 25 5.33398 39 8.00098c40.667 6.66699 111.334 16.334 212.001 29.001c100 12 157.667 37.667 173 77v2v3l6 36v45c0 88 -55.333 140 -166 156c-23.333 2.66699 -48 4 -74 4c-140.667 0 -222.667 -51 -246 -153
c-2.66699 -12.667 -4.66699 -25 -6 -37h-172c4 98 28.667 172.333 74 223c74.667 83.333 193.334 125 356.001 125c240.667 0 374 -79.333 400 -238c2.66699 -16 4 -34.333 4 -55v-631c0 -56 30.667 -84 92 -84h4c8 0 15.333 0.666992 22 2h2zM796.999 337.997
l-0.000976562 191.999l-21 -8c-22 -9.33301 -48 -17.333 -78 -24l-176 -27c-144.667 -20.667 -228 -67.667 -250 -141l-8 -54v-2c0 -88.667 45.667 -143 137 -163c22 -6 46.667 -9 74 -9c98.667 0 183.334 32.333 254.001 97c18 16 32.333 31.667 43 47
c16.667 24.667 25 55.334 25 92.001zM620.998 1516h231l-305 -304h-123z" />
    <glyph glyph-name="acircumflex" unicode="&#xe2;" 
d="M1096 100l-0.000976562 -129.003c-40 -10.667 -71.667 -16.667 -95 -18h-2h-20c-96.667 0 -154 43 -172 129l-4 29c-38.667 -36 -76.334 -64.667 -113.001 -86c-76.667 -48 -160.667 -72 -252 -72c-150 0 -254.333 51 -313 153c-26 46.667 -39 101.334 -39 164.001
c0 139.333 62.667 235 188 287l23 8l70 21c12 2.66699 25 5.33398 39 8.00098c40.667 6.66699 111.334 16.334 212.001 29.001c100 12 157.667 37.667 173 77v2v3l6 36v45c0 88 -55.333 140 -166 156c-23.333 2.66699 -48 4 -74 4c-140.667 0 -222.667 -51 -246 -153
c-2.66699 -12.667 -4.66699 -25 -6 -37h-172c4 98 28.667 172.333 74 223c74.667 83.333 193.334 125 356.001 125c240.667 0 374 -79.333 400 -238c2.66699 -16 4 -34.333 4 -55v-631c0 -56 30.667 -84 92 -84h4c8 0 15.333 0.666992 22 2h2zM796.999 337.997
l-0.000976562 191.999l-21 -8c-22 -9.33301 -48 -17.333 -78 -24l-176 -27c-144.667 -20.667 -228 -67.667 -250 -141l-8 -54v-2c0 -88.667 45.667 -143 137 -163c22 -6 46.667 -9 74 -9c98.667 0 183.334 32.333 254.001 97c18 16 32.333 31.667 43 47
c16.667 24.667 25 55.334 25 92.001zM466.998 1518h195l196 -308h-129l-166 197l-162 -197h-131z" />
    <glyph glyph-name="atilde" unicode="&#xe3;" 
d="M1096 100l-0.000976562 -129.003c-40 -10.667 -71.667 -16.667 -95 -18h-2h-20c-96.667 0 -154 43 -172 129l-4 29c-38.667 -36 -76.334 -64.667 -113.001 -86c-76.667 -48 -160.667 -72 -252 -72c-150 0 -254.333 51 -313 153c-26 46.667 -39 101.334 -39 164.001
c0 139.333 62.667 235 188 287l23 8l70 21c12 2.66699 25 5.33398 39 8.00098c40.667 6.66699 111.334 16.334 212.001 29.001c100 12 157.667 37.667 173 77v2v3l6 36v45c0 88 -55.333 140 -166 156c-23.333 2.66699 -48 4 -74 4c-140.667 0 -222.667 -51 -246 -153
c-2.66699 -12.667 -4.66699 -25 -6 -37h-172c4 98 28.667 172.333 74 223c74.667 83.333 193.334 125 356.001 125c240.667 0 374 -79.333 400 -238c2.66699 -16 4 -34.333 4 -55v-631c0 -56 30.667 -84 92 -84h4c8 0 15.333 0.666992 22 2h2zM796.999 337.997
l-0.000976562 191.999l-21 -8c-22 -9.33301 -48 -17.333 -78 -24l-176 -27c-144.667 -20.667 -228 -67.667 -250 -141l-8 -54v-2c0 -88.667 45.667 -143 137 -163c22 -6 46.667 -9 74 -9c98.667 0 183.334 32.333 254.001 97c18 16 32.333 31.667 43 47
c16.667 24.667 25 55.334 25 92.001zM765.998 1468h118.998c-20.667 -142 -81.667 -213 -183 -213h-16c-12 1.33301 -25.667 4.33301 -41 9l-117 43c-47.333 17.333 -80.666 26 -99.999 26c-31.333 0 -54 -25.333 -68 -76h-118c21.333 127.333 72.333 197 153 209
c7.33301 1.33301 15 2 23 2l33 -2c17.333 -2.66699 54 -14.667 110 -36l25 -11c44.667 -17.333 79.334 -26 104.001 -26c34 0 59.333 25 76 75z" />
    <glyph glyph-name="adieresis" unicode="&#xe4;" 
d="M1096 100l-0.000976562 -129.003c-40 -10.667 -71.667 -16.667 -95 -18h-2h-20c-96.667 0 -154 43 -172 129l-4 29c-38.667 -36 -76.334 -64.667 -113.001 -86c-76.667 -48 -160.667 -72 -252 -72c-150 0 -254.333 51 -313 153c-26 46.667 -39 101.334 -39 164.001
c0 139.333 62.667 235 188 287l23 8l70 21c12 2.66699 25 5.33398 39 8.00098c40.667 6.66699 111.334 16.334 212.001 29.001c100 12 157.667 37.667 173 77v2v3l6 36v45c0 88 -55.333 140 -166 156c-23.333 2.66699 -48 4 -74 4c-140.667 0 -222.667 -51 -246 -153
c-2.66699 -12.667 -4.66699 -25 -6 -37h-172c4 98 28.667 172.333 74 223c74.667 83.333 193.334 125 356.001 125c240.667 0 374 -79.333 400 -238c2.66699 -16 4 -34.333 4 -55v-631c0 -56 30.667 -84 92 -84h4c8 0 15.333 0.666992 22 2h2zM796.999 337.997
l-0.000976562 191.999l-21 -8c-22 -9.33301 -48 -17.333 -78 -24l-176 -27c-144.667 -20.667 -228 -67.667 -250 -141l-8 -54v-2c0 -88.667 45.667 -143 137 -163c22 -6 46.667 -9 74 -9c98.667 0 183.334 32.333 254.001 97c18 16 32.333 31.667 43 47
c16.667 24.667 25 55.334 25 92.001zM499.998 1464v-211h-213v211h213zM830.998 1464v-211h-213v211h213z" />
    <glyph glyph-name="aring" unicode="&#xe5;" 
d="M1096 100l-0.000976562 -129.003c-40 -10.667 -71.667 -16.667 -95 -18h-2h-20c-96.667 0 -154 43 -172 129l-4 29c-38.667 -36 -76.334 -64.667 -113.001 -86c-76.667 -48 -160.667 -72 -252 -72c-150 0 -254.333 51 -313 153c-26 46.667 -39 101.334 -39 164.001
c0 139.333 62.667 235 188 287l23 8l70 21c12 2.66699 25 5.33398 39 8.00098c40.667 6.66699 111.334 16.334 212.001 29.001c100 12 157.667 37.667 173 77v2v3l6 36v45c0 88 -55.333 140 -166 156c-23.333 2.66699 -48 4 -74 4c-140.667 0 -222.667 -51 -246 -153
c-2.66699 -12.667 -4.66699 -25 -6 -37h-172c4 98 28.667 172.333 74 223c74.667 83.333 193.334 125 356.001 125c240.667 0 374 -79.333 400 -238c2.66699 -16 4 -34.333 4 -55v-631c0 -56 30.667 -84 92 -84h4c8 0 15.333 0.666992 22 2h2zM796.999 337.997
l-0.000976562 191.999l-21 -8c-22 -9.33301 -48 -17.333 -78 -24l-176 -27c-144.667 -20.667 -228 -67.667 -250 -141l-8 -54v-2c0 -88.667 45.667 -143 137 -163c22 -6 46.667 -9 74 -9c98.667 0 183.334 32.333 254.001 97c18 16 32.333 31.667 43 47
c16.667 24.667 25 55.334 25 92.001zM562.998 1544c68.667 0 120.668 -29.333 156.001 -88v0c16 -27.333 24 -58 24 -92c0 -66.667 -29.333 -118 -88 -154c-28.667 -16 -59.334 -24 -92.001 -24c-65.333 0 -116.333 28.667 -153 86c-18 28.667 -27 60 -27 94
c0 64 28.667 114.667 86 152c28.667 17.333 60 26 94 26zM562.999 1454c-39.333 0 -67.333 -18.333 -84 -55l-6 -33c0 -39.333 18.333 -67.333 55 -84l35 -6c40 0 68 18.333 84 55l6 33c0 42 -19 70 -57 84c-10.667 4 -21.667 6 -33 6z" />
    <glyph glyph-name="ae" unicode="&#xe6;" horiz-adv-x="1820" 
d="M1538 326l172.001 0.000976562c-30 -160 -112 -270 -246 -330c-62.667 -28.667 -133 -43 -211 -43c-146 0 -259.333 45.667 -340 137l-24 33l-4 8l-4 4l-25 43c-68 -70.667 -132.667 -124 -194 -160c-76.667 -43.333 -159.334 -65 -248.001 -65
c-140.667 0 -240.334 49 -299.001 147c-28.667 48 -43.667 104.667 -45 170c0 138 63.333 233.667 190 287c65.333 28.667 179.333 50 342 64c95.333 8 151.333 29.667 168 65v2v0c6.66699 14 10 31.667 10 53v45c0 106.667 -80.333 160 -241 160
c-140.667 0 -222 -52.667 -244 -158c-2.66699 -9.33301 -4.66699 -20 -6 -32h-172c4 98 28.333 172.333 73 223c75.333 83.333 193 125 353 125c174.667 0 294 -56 358 -168c66.667 94 164.334 148.667 293.001 164c20.667 2.66699 41 4 61 4c152 0 273 -54.667 363 -164
c20.667 -24.667 37.667 -51.334 51 -80.001c6.66699 -12 13 -25 19 -39c28.667 -73.333 43 -187.333 43 -342h-791c1.33301 -98 20.333 -174.333 57 -229c58.667 -92.667 144.667 -139 258 -139c138 0 232.333 71.667 283 215zM780.001 322.001v206.002l-22 -8
c-16.667 -6.66699 -33.667 -12 -51 -16c-3.33301 -1.33301 -7 -2 -11 -2l-190 -33c-140.667 -20.667 -223.334 -63.667 -248.001 -129c-6.66699 -19.333 -10 -41.333 -10 -66c0 -82.667 41 -136.334 123 -161.001c24.667 -7.33301 52 -11 82 -11c83.333 0 159 26 227 78
c20.667 15.333 38.334 31.666 53.001 48.999c30 34.667 45.667 65.667 47 93zM944.001 618.003l601.999 -0.000976562c0 127.333 -44.333 221 -133 281c-46.667 31.333 -100.667 47 -162 47c-116 0 -202 -51 -258 -153c-27.333 -49.333 -43.666 -107.666 -48.999 -174.999z
" />
    <glyph glyph-name="ccedilla" unicode="&#xe7;" horiz-adv-x="1024" 
d="M541 -47l-27 -67.998l47 4h10c92 0 144.667 -34 158 -102l4 -35c0 -86 -45 -144 -135 -174c-34 -10.667 -73 -16 -117 -16l-63 4c-37.333 5.33301 -88 21 -152 47l-41 16l43 84l19 -8c66.667 -35.333 118.334 -54.333 155.001 -57l27 -2c52 0 86.667 19.667 104 59
c4.66699 9.33301 7 20.333 7 33c0 44.667 -31.667 70 -95 76l-30 -4l-33 -13l-25 15l64 145c-68.667 12 -123.334 31 -164.001 57l-27 19c-122.667 87.333 -190.667 228 -204 422l-3 63c0 218.667 63 380.667 189 486c80.667 66.667 177 100 289 100
c144.667 0 256.667 -46.333 336 -139l16 -21c39.333 -58.667 63.333 -135.667 72 -231h-172c-18 132 -84.333 208.333 -199 229c-10.667 1.33301 -29 2.66602 -55 3.99902c-128.667 0 -217 -68.333 -265 -205c-21.333 -62.667 -32 -137.667 -32 -225
c0 -186.667 53.667 -311 161 -373c40 -22.667 86.667 -34 140 -34c146 0 233.333 86.667 262 260h172c-9.33301 -166.667 -76.333 -286.334 -201 -359.001c-68 -38 -146.333 -57 -235 -57z" />
    <glyph glyph-name="egrave" unicode="&#xe8;" 
d="M1051 479l-791 -0.000976562c1.33301 -98 20.333 -174.333 57 -229c59.333 -92.667 145.333 -139 258 -139c139.333 0 233 71.667 281 215h172c-30 -165.333 -116 -277.333 -258 -336c-60 -24.667 -127 -37 -201 -37c-185.333 0 -321 75 -407 225
c-53.333 92.667 -80 207.334 -80 344.001c0 216 64 376.667 192 482c82 66.667 181.667 100 299 100c157.333 0 280.333 -56 369 -168c27.333 -34 49.333 -72.333 66 -115c28.667 -73.333 43 -187.333 43 -342zM264 617.999h601.999l2 13
c0 109.333 -40 194.666 -120 255.999c-52 39.333 -111 59 -177 59c-116 0 -202 -51 -258 -153c-27.333 -49.333 -43.666 -107.666 -48.999 -174.999zM515.999 1516l197 -304h-123l-305 304h231z" />
    <glyph glyph-name="eacute" unicode="&#xe9;" 
d="M1051 479l-791 -0.000976562c1.33301 -98 20.333 -174.333 57 -229c59.333 -92.667 145.333 -139 258 -139c139.333 0 233 71.667 281 215h172c-30 -165.333 -116 -277.333 -258 -336c-60 -24.667 -127 -37 -201 -37c-185.333 0 -321 75 -407 225
c-53.333 92.667 -80 207.334 -80 344.001c0 216 64 376.667 192 482c82 66.667 181.667 100 299 100c157.333 0 280.333 -56 369 -168c27.333 -34 49.333 -72.333 66 -115c28.667 -73.333 43 -187.333 43 -342zM264 617.999h601.999l2 13
c0 109.333 -40 194.666 -120 255.999c-52 39.333 -111 59 -177 59c-116 0 -202 -51 -258 -153c-27.333 -49.333 -43.666 -107.666 -48.999 -174.999zM630.999 1516h231l-305 -304h-123z" />
    <glyph glyph-name="ecircumflex" unicode="&#xea;" 
d="M1051 479l-791 -0.000976562c1.33301 -98 20.333 -174.333 57 -229c59.333 -92.667 145.333 -139 258 -139c139.333 0 233 71.667 281 215h172c-30 -165.333 -116 -277.333 -258 -336c-60 -24.667 -127 -37 -201 -37c-185.333 0 -321 75 -407 225
c-53.333 92.667 -80 207.334 -80 344.001c0 216 64 376.667 192 482c82 66.667 181.667 100 299 100c157.333 0 280.333 -56 369 -168c27.333 -34 49.333 -72.333 66 -115c28.667 -73.333 43 -187.333 43 -342zM264 617.999h601.999l2 13
c0 109.333 -40 194.666 -120 255.999c-52 39.333 -111 59 -177 59c-116 0 -202 -51 -258 -153c-27.333 -49.333 -43.666 -107.666 -48.999 -174.999zM488.999 1518h195l197 -308h-129l-166 197l-162 -197h-131z" />
    <glyph glyph-name="edieresis" unicode="&#xeb;" 
d="M1051 479l-791 -0.000976562c1.33301 -98 20.333 -174.333 57 -229c59.333 -92.667 145.333 -139 258 -139c139.333 0 233 71.667 281 215h172c-30 -165.333 -116 -277.333 -258 -336c-60 -24.667 -127 -37 -201 -37c-185.333 0 -321 75 -407 225
c-53.333 92.667 -80 207.334 -80 344.001c0 216 64 376.667 192 482c82 66.667 181.667 100 299 100c157.333 0 280.333 -56 369 -168c27.333 -34 49.333 -72.333 66 -115c28.667 -73.333 43 -187.333 43 -342zM264 617.999h601.999l2 13
c0 109.333 -40 194.666 -120 255.999c-52 39.333 -111 59 -177 59c-116 0 -202 -51 -258 -153c-27.333 -49.333 -43.666 -107.666 -48.999 -174.999zM525.999 1464v-211h-213v211h213zM857.999 1464v-211h-213v211h213z" />
    <glyph glyph-name="igrave" unicode="&#xec;" horiz-adv-x="569" 
d="M362 1073v-1073h-169v1073h169zM221 1516l197 -304h-123l-305 304h231z" />
    <glyph glyph-name="iacute" unicode="&#xed;" horiz-adv-x="569" 
d="M362 1073v-1073h-169v1073h169zM330 1516h231l-305 -304h-123z" />
    <glyph glyph-name="icircumflex" unicode="&#xee;" horiz-adv-x="569" 
d="M362 1073v-1073h-169v1073h169zM182 1518h195l196 -308h-129l-165 197l-162 -197h-131z" />
    <glyph glyph-name="idieresis" unicode="&#xef;" horiz-adv-x="569" 
d="M362 1073v-1073h-169v1073h169zM219 1450v-211h-213v211h213zM551 1450v-211h-213v211h213z" />
    <glyph glyph-name="eth" unicode="&#xf0;" 
d="M449 1255l-198.999 -92.001l-74 80l174 82l-43 33l-18 10c-20.667 14 -56.334 35.333 -107.001 64l90 90l25 -11l18 -8c33.333 -16 95 -52.667 185 -110l198 92l82 -76l-184 -84c69.333 -53.333 125.333 -101 168 -143c26 -26 50 -52.667 72 -80l55 -74
c1.33301 -4 3.33301 -7.33301 6 -10c31.333 -48 56.666 -93.667 75.999 -137c47.333 -104 71 -221 71 -351c0 -263.333 -82.333 -438 -247 -524c-68.667 -35.333 -148 -53 -238 -53c-211.333 0 -355.333 90 -432 270c-35.333 84.667 -53 186.334 -53 305.001
c0 242 71 408.667 213 500c70.667 48 148.334 72 233.001 72c10 0 19 -0.666992 27 -2c8 0 16 -0.666992 24 -2v0l2 -2l76 -21l-65 66l-11 8c-5.33301 5.33301 -12 11.333 -20 18v0zM559.001 945.999c-126.667 0 -216.001 -62.667 -268.001 -188
c-26 -64 -39 -140.667 -39 -230c0 -184 52.667 -309.333 158 -376c40.667 -26 90.334 -39.667 149.001 -41c122.667 0 210.667 60 264 180c28.667 64 43 141 43 231c0 198 -56 328.333 -168 391c-40.667 22 -87 33 -139 33z" />
    <glyph glyph-name="ntilde" unicode="&#xf1;" 
d="M143 1073h158.001v-180c74 116 162.667 183.667 266 203c27.333 5.33301 57.333 8 90 8c142 0 241.667 -47 299 -141c26 -42.667 39.667 -93.334 41 -152.001v-811h-170v743c0 94.667 -39.333 159 -118 193c-30 12 -64.333 18 -103 18
c-114.667 0 -197.334 -52.333 -248.001 -157c-28.667 -57.333 -43 -125.666 -43 -204.999v-592h-172v1073zM774.001 1468h119c-20.667 -142 -81.334 -213 -182.001 -213h-17c-12 1.33301 -25.667 4.33301 -41 9l-116 43c-48 17.333 -81.667 26 -101 26
c-31.333 0 -53.666 -25.333 -66.999 -76h-119c22 127.333 73 197 153 209c7.33301 1.33301 15 2 23 2l33 -2c17.333 -2.66699 54 -14.667 110 -36l25 -11c45.333 -17.333 80 -26 104 -26c34.667 0 60 25 76 75z" />
    <glyph glyph-name="ograve" unicode="&#xf2;" 
d="M557 1104c207.333 0 350 -87.999 428 -263.999c39.333 -88.667 59 -195.334 59 -320.001c0 -228 -69.333 -390.333 -208 -487c-76.667 -53.333 -169 -80 -277 -80c-196.667 0 -336 81.333 -418 244c-44.667 90 -67 200.333 -67 331c0 238 71.667 404.667 215 500
c74.667 50.667 164 76 268 76zM559 946.001c-126.667 0 -216 -62.667 -268 -188c-26 -64 -39 -140.667 -39 -230c0 -186.667 53.333 -312.667 160 -378c42 -26 91 -39 147 -39c122.667 0 210.667 60 264 180c28.667 64 43 141 43 231c0 198 -56 328.333 -168 391
c-40.667 22 -87 33 -139 33zM502 1516l196 -304h-123l-305 304h232z" />
    <glyph glyph-name="oacute" unicode="&#xf3;" 
d="M557 1104c207.333 0 350 -87.999 428 -263.999c39.333 -88.667 59 -195.334 59 -320.001c0 -228 -69.333 -390.333 -208 -487c-76.667 -53.333 -169 -80 -277 -80c-196.667 0 -336 81.333 -418 244c-44.667 90 -67 200.333 -67 331c0 238 71.667 404.667 215 500
c74.667 50.667 164 76 268 76zM559 946.001c-126.667 0 -216 -62.667 -268 -188c-26 -64 -39 -140.667 -39 -230c0 -186.667 53.333 -312.667 160 -378c42 -26 91 -39 147 -39c122.667 0 210.667 60 264 180c28.667 64 43 141 43 231c0 198 -56 328.333 -168 391
c-40.667 22 -87 33 -139 33zM610 1516h232l-305 -304h-123z" />
    <glyph glyph-name="ocircumflex" unicode="&#xf4;" 
d="M557 1104c207.333 0 350 -87.999 428 -263.999c39.333 -88.667 59 -195.334 59 -320.001c0 -228 -69.333 -390.333 -208 -487c-76.667 -53.333 -169 -80 -277 -80c-196.667 0 -336 81.333 -418 244c-44.667 90 -67 200.333 -67 331c0 238 71.667 404.667 215 500
c74.667 50.667 164 76 268 76zM559 946.001c-126.667 0 -216 -62.667 -268 -188c-26 -64 -39 -140.667 -39 -230c0 -186.667 53.333 -312.667 160 -378c42 -26 91 -39 147 -39c122.667 0 210.667 60 264 180c28.667 64 43 141 43 231c0 198 -56 328.333 -168 391
c-40.667 22 -87 33 -139 33zM463 1518h194l197 -308h-129l-166 197l-162 -197h-131z" />
    <glyph glyph-name="otilde" unicode="&#xf5;" 
d="M557 1104c207.333 0 350 -87.999 428 -263.999c39.333 -88.667 59 -195.334 59 -320.001c0 -228 -69.333 -390.333 -208 -487c-76.667 -53.333 -169 -80 -277 -80c-196.667 0 -336 81.333 -418 244c-44.667 90 -67 200.333 -67 331c0 238 71.667 404.667 215 500
c74.667 50.667 164 76 268 76zM559 946.001c-126.667 0 -216 -62.667 -268 -188c-26 -64 -39 -140.667 -39 -230c0 -186.667 53.333 -312.667 160 -378c42 -26 91 -39 147 -39c122.667 0 210.667 60 264 180c28.667 64 43 141 43 231c0 198 -56 328.333 -168 391
c-40.667 22 -87 33 -139 33zM768 1468h118.999c-20.667 -142 -81.334 -213 -182.001 -213h-17c-12 1.33301 -25.667 4.33301 -41 9l-117 43c-47.333 17.333 -80.666 26 -99.999 26c-31.333 0 -54 -25.333 -68 -76h-118c21.333 127.333 72.333 197 153 209
c7.33301 1.33301 15 2 23 2l33 -2c17.333 -2.66699 54 -14.667 110 -36l25 -11c44.667 -17.333 79.334 -26 104.001 -26c34 0 59.333 25 76 75z" />
    <glyph glyph-name="odieresis" unicode="&#xf6;" 
d="M557 1104c207.333 0 350 -87.999 428 -263.999c39.333 -88.667 59 -195.334 59 -320.001c0 -228 -69.333 -390.333 -208 -487c-76.667 -53.333 -169 -80 -277 -80c-196.667 0 -336 81.333 -418 244c-44.667 90 -67 200.333 -67 331c0 238 71.667 404.667 215 500
c74.667 50.667 164 76 268 76zM559 946.001c-126.667 0 -216 -62.667 -268 -188c-26 -64 -39 -140.667 -39 -230c0 -186.667 53.333 -312.667 160 -378c42 -26 91 -39 147 -39c122.667 0 210.667 60 264 180c28.667 64 43 141 43 231c0 198 -56 328.333 -168 391
c-40.667 22 -87 33 -139 33zM500 1464v-211h-213v211h213zM831 1464v-211h-213v211h213z" />
    <glyph glyph-name="divide" unicode="&#xf7;" horiz-adv-x="1196" 
d="M1094 555v-143h-992v143h992zM705 213v-213h-213v213h213zM705 967v-213h-213v213h213z" />
    <glyph glyph-name="oslash" unicode="&#xf8;" horiz-adv-x="1251" 
d="M1083 1047l-129 -146c60 -99.333 90 -223.666 90 -372.999c0 -240 -72.333 -407.667 -217 -503c-74.667 -48 -163.334 -72 -266.001 -72c-139.333 0 -250.666 42.333 -333.999 127l-125 -141l-65 57l135 151c-65.333 97.333 -98 224.333 -98 381
c0 239.333 72.333 406.666 217 501.999c74.667 49.333 164 74 268 74c138 0 251.333 -44.333 340 -133l119 133zM829 760l-486.999 -551c58.667 -65.333 131 -98 217 -98c127.333 0 216.666 62.667 267.999 188c26 64 39 140.333 39 229c0 90.667 -12.333 168 -37 232z
M295.001 289l489 551.002c-56 69.333 -131 104.666 -225 105.999c-126.667 0 -216 -62.667 -268 -188c-26 -64 -39 -140.667 -39 -230c0 -92.667 14.333 -172.334 43 -239.001z" />
    <glyph glyph-name="ugrave" unicode="&#xf9;" 
d="M987 0h-153v150c-76.667 -108 -165.667 -171 -267 -189c-27.333 -5.33301 -58 -8 -92 -8c-146 0 -247 47.667 -303 143c-26 42.667 -39 92.667 -39 150v827h170v-760c0 -95.333 40.333 -159.333 121 -192c28.667 -12.667 62 -19 100 -19c116 0 200 53.333 252 160
c27.333 57.333 41 125 41 203v608h170v-1073zM498 1516l196 -304h-123l-305 304h232z" />
    <glyph glyph-name="uacute" unicode="&#xfa;" 
d="M987 0h-153v150c-76.667 -108 -165.667 -171 -267 -189c-27.333 -5.33301 -58 -8 -92 -8c-146 0 -247 47.667 -303 143c-26 42.667 -39 92.667 -39 150v827h170v-760c0 -95.333 40.333 -159.333 121 -192c28.667 -12.667 62 -19 100 -19c116 0 200 53.333 252 160
c27.333 57.333 41 125 41 203v608h170v-1073zM606 1516h232l-306 -304h-122z" />
    <glyph glyph-name="ucircumflex" unicode="&#xfb;" 
d="M987 0h-153v150c-76.667 -108 -165.667 -171 -267 -189c-27.333 -5.33301 -58 -8 -92 -8c-146 0 -247 47.667 -303 143c-26 42.667 -39 92.667 -39 150v827h170v-760c0 -95.333 40.333 -159.333 121 -192c28.667 -12.667 62 -19 100 -19c116 0 200 53.333 252 160
c27.333 57.333 41 125 41 203v608h170v-1073zM465 1518h194l197 -308h-129l-166 197l-162 -197h-131z" />
    <glyph glyph-name="udieresis" unicode="&#xfc;" 
d="M987 0h-153v150c-76.667 -108 -165.667 -171 -267 -189c-27.333 -5.33301 -58 -8 -92 -8c-146 0 -247 47.667 -303 143c-26 42.667 -39 92.667 -39 150v827h170v-760c0 -95.333 40.333 -159.333 121 -192c28.667 -12.667 62 -19 100 -19c116 0 200 53.333 252 160
c27.333 57.333 41 125 41 203v608h170v-1073zM502 1464v-211h-213v211h213zM834 1464v-211h-213v211h213z" />
    <glyph glyph-name="yacute" unicode="&#xfd;" horiz-adv-x="1024" 
d="M795 1073l183.999 0.000976562l-477 -1298l-8 -19v-2c-27.333 -66.667 -63.666 -116.334 -108.999 -149.001c-35.333 -26 -76.333 -42.333 -123 -49c-12 -1.33301 -24.333 -2 -37 -2c-42 0 -80 8.66699 -114 26v154c36.667 -8.66699 66.667 -13 90 -13
c61.333 0 104.333 27.333 129 82l8 23l65 170l-362 1077h182l275 -835zM554.999 1516h231l-305 -304h-123z" />
    <glyph glyph-name="thorn" unicode="&#xfe;" horiz-adv-x="1136" 
d="M111 -446l-0.00195312 1908h170v-522c74.667 106.667 184.334 161.334 329.001 164.001c164 0 287.667 -71.667 371 -215c58.667 -100 88 -223.667 88 -371c0 -210 -60.667 -366.333 -182 -469c-53.333 -44.667 -115.666 -74 -186.999 -88
c-28.667 -5.33301 -58.667 -8 -90 -8c-132 0 -241.667 53.333 -329 160v-559h-170zM579.998 943.999c-113.333 0 -196.668 -57.332 -250.001 -171.999c-32.667 -66.667 -49 -148 -49 -244c0 -170.667 47 -291.334 141 -362.001c44.667 -35.333 97.334 -53 158.001 -53
c114.667 0 200 53.667 256 161c36.667 70 55 152.667 55 248c0 173.333 -48.667 296.333 -146 369c-47.333 35.333 -102.333 53 -165 53z" />
    <glyph glyph-name="ydieresis" unicode="&#xff;" horiz-adv-x="1024" 
d="M795 1073l183.999 0.000976562l-477 -1298l-8 -19v-2c-27.333 -66.667 -63.666 -116.334 -108.999 -149.001c-35.333 -26 -76.333 -42.333 -123 -49c-12 -1.33301 -24.333 -2 -37 -2c-42 0 -80 8.66699 -114 26v154c36.667 -8.66699 66.667 -13 90 -13
c61.333 0 104.333 27.333 129 82l8 23l65 170l-362 1077h182l275 -835zM443.999 1464v-211h-213v211h213zM775.999 1464v-211h-213v211h213z" />
    <glyph glyph-name="Amacron" unicode="&#x100;" horiz-adv-x="1366" 
d="M971 449h-576l-157 -449h-203l532 1493h246l524 -1493h-213zM918 608l-230 680l-246 -680h476zM967 1843v-143h-561v143h561z" />
    <glyph glyph-name="amacron" unicode="&#x101;" 
d="M1096 100l-0.000976562 -129.003c-40 -10.667 -71.667 -16.667 -95 -18h-2h-20c-96.667 0 -154 43 -172 129l-4 29c-38.667 -36 -76.334 -64.667 -113.001 -86c-76.667 -48 -160.667 -72 -252 -72c-150 0 -254.333 51 -313 153c-26 46.667 -39 101.334 -39 164.001
c0 139.333 62.667 235 188 287l23 8l70 21c12 2.66699 25 5.33398 39 8.00098c40.667 6.66699 111.334 16.334 212.001 29.001c100 12 157.667 37.667 173 77v2v3l6 36v45c0 88 -55.333 140 -166 156c-23.333 2.66699 -48 4 -74 4c-140.667 0 -222.667 -51 -246 -153
c-2.66699 -12.667 -4.66699 -25 -6 -37h-172c4 98 28.667 172.333 74 223c74.667 83.333 193.334 125 356.001 125c240.667 0 374 -79.333 400 -238c2.66699 -16 4 -34.333 4 -55v-631c0 -56 30.667 -84 92 -84h4c8 0 15.333 0.666992 22 2h2zM796.999 337.997
l-0.000976562 191.999l-21 -8c-22 -9.33301 -48 -17.333 -78 -24l-176 -27c-144.667 -20.667 -228 -67.667 -250 -141l-8 -54v-2c0 -88.667 45.667 -143 137 -163c22 -6 46.667 -9 74 -9c98.667 0 183.334 32.333 254.001 97c18 16 32.333 31.667 43 47
c16.667 24.667 25 55.334 25 92.001zM841.998 1436v-144h-561v144h561z" />
    <glyph glyph-name="Abreve" unicode="&#x102;" horiz-adv-x="1366" 
d="M971 449h-576l-157 -449h-203l532 1493h246l524 -1493h-213zM918 608l-230 680l-246 -680h476zM379 1907h121c10.667 -90 73.334 -135 188.001 -135c105.333 0 166.666 38.667 183.999 116l2 19h121c-14.667 -184.667 -118.334 -277 -311.001 -277
c-117.333 0 -204.666 39 -261.999 117l-4 6c-24.667 34 -37.667 85.333 -39 154z" />
    <glyph glyph-name="abreve" unicode="&#x103;" 
d="M1096 100l-0.000976562 -129.003c-40 -10.667 -71.667 -16.667 -95 -18h-2h-20c-96.667 0 -154 43 -172 129l-4 29c-38.667 -36 -76.334 -64.667 -113.001 -86c-76.667 -48 -160.667 -72 -252 -72c-150 0 -254.333 51 -313 153c-26 46.667 -39 101.334 -39 164.001
c0 139.333 62.667 235 188 287l23 8l70 21c12 2.66699 25 5.33398 39 8.00098c40.667 6.66699 111.334 16.334 212.001 29.001c100 12 157.667 37.667 173 77v2v3l6 36v45c0 88 -55.333 140 -166 156c-23.333 2.66699 -48 4 -74 4c-140.667 0 -222.667 -51 -246 -153
c-2.66699 -12.667 -4.66699 -25 -6 -37h-172c4 98 28.667 172.333 74 223c74.667 83.333 193.334 125 356.001 125c240.667 0 374 -79.333 400 -238c2.66699 -16 4 -34.333 4 -55v-631c0 -56 30.667 -84 92 -84h4c8 0 15.333 0.666992 22 2h2zM796.999 337.997
l-0.000976562 191.999l-21 -8c-22 -9.33301 -48 -17.333 -78 -24l-176 -27c-144.667 -20.667 -228 -67.667 -250 -141l-8 -54v-2c0 -88.667 45.667 -143 137 -163c22 -6 46.667 -9 74 -9c98.667 0 183.334 32.333 254.001 97c18 16 32.333 31.667 43 47
c16.667 24.667 25 55.334 25 92.001zM255.998 1499h120.999c10.667 -90 73.334 -135 188.001 -135c105.333 0 167 39 185 117l2 18h120c-14.667 -184 -118.334 -276 -311.001 -276c-117.333 0 -204.666 38.667 -261.999 116l-4 7c-24.667 36.667 -37.667 87.667 -39 153z
" />
    <glyph glyph-name="Aogonek" unicode="&#x104;" horiz-adv-x="1366" 
d="M971 449h-576.001l-157 -449h-203l532 1493h246l524 -1493c-129.333 -61.333 -194.666 -133 -195.999 -215c0 -75.333 49 -113 147 -113c50.667 0 93.667 7 129 21v-92l-63 -13l-92 -8l-70 6l-72 21c-84.667 32.667 -127.667 88 -129 166c0 78.667 48 144 144 196l63 31
h-74zM917.999 608l-230 680l-246 -680h476z" />
    <glyph glyph-name="aogonek" unicode="&#x105;" 
d="M1098 100l-0.00195312 -129.002c-97.333 -38 -149.333 -100 -156 -186c0 -75.333 49.333 -113 148 -113c51.333 0 95 7 131 21v-92l-41 -9c-23.333 -4 -46 -7.33301 -68 -10v0l-37 -2c-23.333 0 -52 3.33301 -86 10c-23.333 4.66699 -45 10.334 -65 17.001
c-83.333 27.333 -126.333 82 -129 164c0 61.333 30 112.333 90 153h2v0l2 2c13.333 8.66699 28.333 17.667 45 27c-78 13.333 -121 66 -129 158c-110.667 -105.333 -232.334 -158 -365.001 -158c-150 0 -254.333 51 -313 153c-26 46.667 -39 101.334 -39 164.001
c0 138 63.667 233.667 191 287l20 8c18 6.66699 36.333 12.334 55 17.001l15 4c40.667 8 125.334 20.333 254.001 37c95.333 12 151.333 35.667 168 71v2l2 2l6 43v45c0 105.333 -80 158.666 -240 159.999c-142 0 -224 -52.667 -246 -158
c-1.33301 -9.33301 -2.66602 -20 -3.99902 -32h-172c4 96.667 28 171 72 223c76.667 83.333 195.334 125 356.001 125c240.667 0 374 -79.333 400 -238c2.66699 -16 4 -34.333 4 -55v-631c0 -56 30.667 -84 92 -84h4c8 0 15.333 0.666992 22 2h3zM796.998 337.998
l-0.000976562 191.999l-21 -8c-22 -9.33301 -48 -17.333 -78 -24l-176 -27c-144.667 -20.667 -228 -67.667 -250 -141l-8 -54v-2c0 -88.667 45.667 -143 137 -163c22 -6 46.667 -9 74 -9c98.667 0 183.334 32.333 254.001 97c18 16 32.333 31.667 43 47
c16.667 24.667 25 55.334 25 92.001z" />
    <glyph glyph-name="Cacute" unicode="&#x106;" horiz-adv-x="1478" 
d="M1356 1030l-194.999 -0.000976562c-20.667 102.667 -56.667 177.667 -108 225c-64.667 60.667 -163 92.334 -295 95.001c-174.667 0 -303.667 -78.667 -387 -236c-54.667 -102 -82 -229.667 -82 -383c0 -232 64.667 -402 194 -510c80.667 -66.667 177.667 -100 291 -100
c148.667 0 258 52.667 328 158c8 10.667 14.667 22 20 34c30 57.333 52.667 134.666 68 231.999h196c-44.667 -394.667 -249.334 -592 -614.001 -592c-192.667 0 -345 58 -457 174c-144.667 148.667 -217 349.334 -217 602.001c0 250 69.667 450.667 209 602
c112 124.667 269.667 187 473 187c325.333 0 517.333 -162.667 576 -488zM831.001 1923h232l-305 -303h-123z" />
    <glyph glyph-name="cacute" unicode="&#x107;" horiz-adv-x="1024" 
d="M965 713l-171.999 0.000976562c-18 132 -84.333 208.333 -199 229c-10.667 1.33301 -29 2.66602 -55 3.99902c-128.667 0 -217 -68.333 -265 -205c-21.333 -62.667 -32 -137 -32 -223c0 -186.667 53.667 -311 161 -373c40 -22.667 86.667 -34 140 -34
c146 0 233.333 86 262 258h172c-15.333 -187.333 -94 -312.333 -236 -375c-58.667 -27.333 -126 -41 -202 -41c-176.667 0 -307.334 71.667 -392.001 215c-56 94 -84 210.667 -84 350c0 218.667 63 380.667 189 486c80.667 66.667 177 100 289 100
c144.667 0 256.667 -46.333 336 -139l16 -21c39.333 -58.667 63.333 -135.667 72 -231zM610.001 1516h232l-305 -304h-123z" />
    <glyph glyph-name="Ccircumflex" unicode="&#x108;" horiz-adv-x="1478" 
d="M533 1883h194l197 -308h-129l-166 197l-162 -197h-131zM1356 1030l-194.999 -0.000976562c-20.667 102.667 -56.667 177.667 -108 225c-64.667 60.667 -163 92.334 -295 95.001c-174.667 0 -303.667 -78.667 -387 -236c-54.667 -102 -82 -229.667 -82 -383
c0 -232 64.667 -402 194 -510c80.667 -66.667 177.667 -100 291 -100c148.667 0 258 52.667 328 158c8 10.667 14.667 22 20 34c30 57.333 52.667 134.666 68 231.999h196c-44.667 -394.667 -249.334 -592 -614.001 -592c-192.667 0 -345 58 -457 174
c-144.667 148.667 -217 349.334 -217 602.001c0 250 69.667 450.667 209 602c112 124.667 269.667 187 473 187c325.333 0 517.333 -162.667 576 -488z" />
    <glyph glyph-name="ccircumflex" unicode="&#x109;" horiz-adv-x="1024" 
d="M506 1463h194l197 -308h-129l-166 197l-162 -197h-131zM965 713l-171.999 0.000976562c-18 132 -84.333 208.333 -199 229c-10.667 1.33301 -29 2.66602 -55 3.99902c-128.667 0 -217 -68.333 -265 -205c-21.333 -62.667 -32 -137 -32 -223
c0 -186.667 53.667 -311 161 -373c40 -22.667 86.667 -34 140 -34c146 0 233.333 86 262 258h172c-15.333 -187.333 -94 -312.333 -236 -375c-58.667 -27.333 -126 -41 -202 -41c-176.667 0 -307.334 71.667 -392.001 215c-56 94 -84 210.667 -84 350
c0 218.667 63 380.667 189 486c80.667 66.667 177 100 289 100c144.667 0 256.667 -46.333 336 -139l16 -21c39.333 -58.667 63.333 -135.667 72 -231z" />
    <glyph glyph-name="Cdotaccent" unicode="&#x10a;" horiz-adv-x="1478" 
d="M895 1788v-213h-213v213h213zM1356 1030l-194.999 -0.000976562c-20.667 102.667 -56.667 177.667 -108 225c-64.667 60.667 -163 92.334 -295 95.001c-174.667 0 -303.667 -78.667 -387 -236c-54.667 -102 -82 -229.667 -82 -383c0 -232 64.667 -402 194 -510
c80.667 -66.667 177.667 -100 291 -100c148.667 0 258 52.667 328 158c8 10.667 14.667 22 20 34c30 57.333 52.667 134.666 68 231.999h196c-44.667 -394.667 -249.334 -592 -614.001 -592c-192.667 0 -345 58 -457 174c-144.667 148.667 -217 349.334 -217 602.001
c0 250 69.667 450.667 209 602c112 124.667 269.667 187 473 187c325.333 0 517.333 -162.667 576 -488z" />
    <glyph glyph-name="cdotaccent" unicode="&#x10b;" horiz-adv-x="1024" 
d="M635 1368v-213h-213v213h213zM965 713l-171.999 0.000976562c-18 132 -84.333 208.333 -199 229c-10.667 1.33301 -29 2.66602 -55 3.99902c-128.667 0 -217 -68.333 -265 -205c-21.333 -62.667 -32 -137 -32 -223c0 -186.667 53.667 -311 161 -373
c40 -22.667 86.667 -34 140 -34c146 0 233.333 86 262 258h172c-15.333 -187.333 -94 -312.333 -236 -375c-58.667 -27.333 -126 -41 -202 -41c-176.667 0 -307.334 71.667 -392.001 215c-56 94 -84 210.667 -84 350c0 218.667 63 380.667 189 486
c80.667 66.667 177 100 289 100c144.667 0 256.667 -46.333 336 -139l16 -21c39.333 -58.667 63.333 -135.667 72 -231z" />
    <glyph glyph-name="Ccaron" unicode="&#x10c;" horiz-adv-x="1478" 
d="M1356 1030l-194.999 -0.000976562c-20.667 102.667 -56.667 177.667 -108 225c-64.667 60.667 -163 92.334 -295 95.001c-174.667 0 -303.667 -78.667 -387 -236c-54.667 -102 -82 -229.667 -82 -383c0 -232 64.667 -402 194 -510c80.667 -66.667 177.667 -100 291 -100
c148.667 0 258 52.667 328 158c8 10.667 14.667 22 20 34c30 57.333 52.667 134.666 68 231.999h196c-44.667 -394.667 -249.334 -592 -614.001 -592c-192.667 0 -345 58 -457 174c-144.667 148.667 -217 349.334 -217 602.001c0 250 69.667 450.667 209 602
c112 124.667 269.667 187 473 187c325.333 0 517.333 -162.667 576 -488zM877.001 1618h-195l-197 307h129l166 -196l162 196h131z" />
    <glyph glyph-name="ccaron" unicode="&#x10d;" horiz-adv-x="1024" 
d="M965 713l-171.999 0.000976562c-18 132 -84.333 208.333 -199 229c-10.667 1.33301 -29 2.66602 -55 3.99902c-128.667 0 -217 -68.333 -265 -205c-21.333 -62.667 -32 -137 -32 -223c0 -186.667 53.667 -311 161 -373c40 -22.667 86.667 -34 140 -34
c146 0 233.333 86 262 258h172c-15.333 -187.333 -94 -312.333 -236 -375c-58.667 -27.333 -126 -41 -202 -41c-176.667 0 -307.334 71.667 -392.001 215c-56 94 -84 210.667 -84 350c0 218.667 63 380.667 189 486c80.667 66.667 177 100 289 100
c144.667 0 256.667 -46.333 336 -139l16 -21c39.333 -58.667 63.333 -135.667 72 -231zM641.001 1210h-195l-196 308h129l166 -197l162 197h131z" />
    <glyph glyph-name="Dcaron" unicode="&#x10e;" horiz-adv-x="1478" 
d="M182 0l-0.000976562 1493h576c222.667 0 387.667 -90 495 -270c1.33301 -1.33301 2 -2.66602 2 -3.99902c74 -124.667 111 -281.667 111 -471c0 -286 -79.333 -493.667 -238 -623c-99.333 -83.333 -222.666 -125 -369.999 -125h-576zM372.999 167.999h352
c237.333 0 381.333 123.667 432 371c12.667 61.333 19 130 19 206c0 336 -115 526 -345 570c-34 6.66699 -69.333 10 -106 10h-352v-1157zM790.999 1618h-195l-197 307h129l166 -196l162 196h131z" />
    <glyph glyph-name="dcaron" unicode="&#x10f;" horiz-adv-x="1300" 
d="M1014 1493v-1493h-152v141c-79.333 -113.333 -177.666 -175.333 -294.999 -186c-14.667 -1.33301 -30.334 -2 -47.001 -2c-177.333 0 -307 76.333 -389 229c-52 96 -78 215 -78 357c0 210 61 366.333 183 469c77.333 64 170 96 278 96
c147.333 0 257.333 -55.333 330 -166v555h170zM543 944c-116 0 -202.001 -55.999 -258.001 -167.999c-27.333 -52 -44.666 -112.667 -51.999 -182c-1.33301 -20.667 -2 -42.667 -2 -66c0 -166 48 -286 144 -360c49.333 -36.667 106 -55 170 -55
c112 0 194.667 55.333 248 166c34 68 51 149.667 51 245c0 179.333 -49.333 303.666 -148 372.999c-44.667 31.333 -95.667 47 -153 47zM1122 1493h205v-211c0 -104 -32.667 -177.667 -98 -221c-27.333 -18 -57.333 -27 -90 -27h-17v78c78 0 115.667 58.667 113 176h-113
v205z" />
    <glyph glyph-name="Dcroat" unicode="&#x110;" horiz-adv-x="1478" 
d="M182 694l-141 -0.000976562v137h141v662h578c222.667 0 387 -90 493 -270l2 -2c66 -112 102.333 -248.667 109 -410l2 -63c0 -287.333 -79.333 -495.666 -238 -624.999c-99.333 -82 -222 -123 -368 -123h-578v694zM373 693.999v-526h354c243.333 0 388 130.333 434 391
c10 56 15 119 15 189c0 326 -110 514.333 -330 565c-35.333 8 -75 12 -119 12h-354v-494h350v-137h-350z" />
    <glyph glyph-name="dcroat" unicode="&#x111;" 
d="M1012 1337l129 -0.000976562v-108h-129v-1229h-152v121c-95.333 -112 -210 -168 -344 -168c-161.333 0 -284.333 69 -369 207c-62.667 102 -94 229 -94 381c0 208.667 61 364.334 183 467.001c76 64 168 96 276 96c132.667 0 242.667 -53.333 330 -160v285h-307v108h307
v156h170v-156zM543 935.999c-116 0 -202.001 -55.3311 -258.001 -165.998c-36 -66.667 -54 -147.334 -54 -242.001c0 -160.667 46.667 -277.334 140 -350.001c48.667 -38 106 -57 172 -57c114.667 0 198.667 56 252 168c31.333 65.333 47 143.666 47 234.999
c0 174.667 -49.333 296.334 -148 365.001c-43.333 31.333 -93.666 47 -150.999 47z" />
    <glyph glyph-name="Emacron" unicode="&#x112;" horiz-adv-x="1366" 
d="M375 680v-512h880v-168h-1071v1493h1035v-168h-844v-477h813v-168h-813zM987 1843v-143h-561v143h561z" />
    <glyph glyph-name="emacron" unicode="&#x113;" 
d="M1051 479l-791 -0.000976562c1.33301 -98 20.333 -174.333 57 -229c59.333 -92.667 145.333 -139 258 -139c139.333 0 233 71.667 281 215h172c-30 -165.333 -116 -277.333 -258 -336c-60 -24.667 -127 -37 -201 -37c-185.333 0 -321 75 -407 225
c-53.333 92.667 -80 207.334 -80 344.001c0 216 64 376.667 192 482c82 66.667 181.667 100 299 100c157.333 0 280.333 -56 369 -168c27.333 -34 49.333 -72.333 66 -115c28.667 -73.333 43 -187.333 43 -342zM264 617.999h601.999l2 13
c0 109.333 -40 194.666 -120 255.999c-52 39.333 -111 59 -177 59c-116 0 -202 -51 -258 -153c-27.333 -49.333 -43.666 -107.666 -48.999 -174.999zM863.999 1436v-144h-561v144h561z" />
    <glyph glyph-name="Ebreve" unicode="&#x114;" horiz-adv-x="1366" 
d="M393 1851h121c10.667 -90 73.334 -135 188.001 -135c105.333 0 166.666 39 183.999 117l2 18h121c-14.667 -184 -118.334 -276 -311.001 -276c-117.333 0 -204.666 38.667 -261.999 116l-4 7c-24.667 36.667 -37.667 87.667 -39 153zM375 680v-512h880v-168h-1071v1493
h1035v-168h-844v-477h813v-168h-813z" />
    <glyph glyph-name="ebreve" unicode="&#x115;" 
d="M262 1431h121c10.667 -90 73.334 -135 188.001 -135c105.333 0 166.666 39 183.999 117l2 18h121c-14.667 -184 -118.334 -276 -311.001 -276c-117.333 0 -204.666 38.667 -261.999 116l-4 7c-24.667 36.667 -37.667 87.667 -39 153zM1051 479l-791 -0.000976562
c1.33301 -98 20.333 -174.333 57 -229c59.333 -92.667 145.333 -139 258 -139c139.333 0 233 71.667 281 215h172c-30 -165.333 -116 -277.333 -258 -336c-60 -24.667 -127 -37 -201 -37c-185.333 0 -321 75 -407 225c-53.333 92.667 -80 207.334 -80 344.001
c0 216 64 376.667 192 482c82 66.667 181.667 100 299 100c157.333 0 280.333 -56 369 -168c27.333 -34 49.333 -72.333 66 -115c28.667 -73.333 43 -187.333 43 -342zM264 617.999h601.999l2 13c0 109.333 -40 194.666 -120 255.999c-52 39.333 -111 59 -177 59
c-116 0 -202 -51 -258 -153c-27.333 -49.333 -43.666 -107.666 -48.999 -174.999z" />
    <glyph glyph-name="Edotaccent" unicode="&#x116;" horiz-adv-x="1366" 
d="M375 680v-512h880v-168h-1071v1493h1035v-168h-844v-477h813v-168h-813zM813 1874v-213h-213v213h213z" />
    <glyph glyph-name="edotaccent" unicode="&#x117;" 
d="M1051 479l-791 -0.000976562c1.33301 -98 20.333 -174.333 57 -229c59.333 -92.667 145.333 -139 258 -139c139.333 0 233 71.667 281 215h172c-30 -165.333 -116 -277.333 -258 -336c-60 -24.667 -127 -37 -201 -37c-185.333 0 -321 75 -407 225
c-53.333 92.667 -80 207.334 -80 344.001c0 216 64 376.667 192 482c82 66.667 181.667 100 299 100c157.333 0 280.333 -56 369 -168c27.333 -34 49.333 -72.333 66 -115c28.667 -73.333 43 -187.333 43 -342zM264 617.999h601.999l2 13
c0 109.333 -40 194.666 -120 255.999c-52 39.333 -111 59 -177 59c-116 0 -202 -51 -258 -153c-27.333 -49.333 -43.666 -107.666 -48.999 -174.999zM689.999 1466v-213h-213v213h213z" />
    <glyph glyph-name="Eogonek" unicode="&#x118;" horiz-adv-x="1366" 
d="M375 680l-0.00195312 -512.001h880v-168c-129.333 -61.333 -194.666 -133.666 -195.999 -216.999c0 -74 49 -111 147 -111c50.667 0 93.667 7 129 21v-92l-65 -13c-26 -4 -48.667 -6.66699 -68 -8h-20c-26 0 -54.667 3.33301 -86 10
c-19.333 4.66699 -38.666 10.334 -57.999 17.001c-84.667 32.667 -127.667 88 -129 166c0 83.333 52 150.666 156 201.999l2 2h2l47 23h-932v1493h1035v-168h-844v-477h813v-168h-813z" />
    <glyph glyph-name="eogonek" unicode="&#x119;" 
d="M1051 479l-791.005 -0.000976562c1.33301 -95.333 20.333 -171.666 57 -228.999c62 -92.667 148 -139 258 -139c138 0 232.333 71.667 283 215h172c-16 -86 -54.333 -166 -115 -240c-14.667 -18 -31.667 -36.333 -51 -55c-79.333 -82 -127.666 -166.667 -144.999 -254
l6 51l-6 -51c0 -56 33.333 -89.667 100 -101c15.333 -2.66699 31 -4 47 -4c52 0 95.667 7 131 21v-92c-43.333 -10 -80.666 -16.333 -111.999 -19h-29c-131.333 0 -218.666 35 -261.999 105c-15.333 21.333 -23 46.333 -23 75l7 43c9.33301 36 26.333 68.333 51 97l2 2
c2.66699 2.66699 6 5.33398 10 8.00098l70 57l-95 -14c-13.333 -1.33301 -28.333 -2 -45 -2c-193.333 0 -331.666 77.667 -414.999 233c-49.333 92 -74 203.333 -74 334c0 217.333 64.667 378.666 194 483.999c82 66.667 181 100 297 100
c154.667 0 276.334 -54 365.001 -162c27.333 -34 50 -72.333 68 -115l2 -6c30 -77.333 44.333 -191.333 43 -342zM867.995 617.999v13c0 109.333 -40 194.666 -120 255.999c-52 39.333 -111 59 -177 59c-116 0 -202 -51 -258 -153
c-27.333 -49.333 -43 -107.666 -47 -174.999h602z" />
    <glyph glyph-name="Ecaron" unicode="&#x11a;" horiz-adv-x="1366" 
d="M375 680v-512h880v-168h-1071v1493h1035v-168h-844v-477h813v-168h-813zM803 1618h-195l-196 307h129l166 -196l161 196h131z" />
    <glyph glyph-name="ecaron" unicode="&#x11b;" 
d="M1051 479l-791 -0.000976562c1.33301 -98 20.333 -174.333 57 -229c59.333 -92.667 145.333 -139 258 -139c139.333 0 233 71.667 281 215h172c-30 -165.333 -116 -277.333 -258 -336c-60 -24.667 -127 -37 -201 -37c-185.333 0 -321 75 -407 225
c-53.333 92.667 -80 207.334 -80 344.001c0 216 64 376.667 192 482c82 66.667 181.667 100 299 100c157.333 0 280.333 -56 369 -168c27.333 -34 49.333 -72.333 66 -115c28.667 -73.333 43 -187.333 43 -342zM264 617.999h601.999l2 13
c0 109.333 -40 194.666 -120 255.999c-52 39.333 -111 59 -177 59c-116 0 -202 -51 -258 -153c-27.333 -49.333 -43.666 -107.666 -48.999 -174.999zM683.999 1210h-195l-196 308h129l166 -197l162 197h131z" />
    <glyph glyph-name="Gcircumflex" unicode="&#x11c;" horiz-adv-x="1593" 
d="M730 1880h194l197 -264h-129l-166 169l-162 -169h-131zM1452 788l0.00195312 -795.999h-121l-47 198c-142 -158 -312 -237 -510 -237c-208.667 0 -377.334 77.667 -506.001 233c-118.667 142 -178 323.667 -178 545c0 240.667 69.667 436 209 586
c19.333 20.667 39.666 39.667 60.999 57c116.667 96 265.667 144 447 144c244.667 0 422 -80.667 532 -242c45.333 -66.667 76.333 -145.334 93 -236.001h-195c-28.667 134 -108 225.667 -238 275c-57.333 23.333 -122 35 -194 35c-180 0 -318.667 -71 -416 -213
c-72 -106.667 -108 -238.667 -108 -396c0 -172 41.667 -315.333 125 -430l32 -39c90 -98 215.667 -148.333 377 -151c156 0 279 54.667 369 164c66.667 82 100 180.333 100 295v41h-455v167h623z" />
    <glyph glyph-name="gcircumflex" unicode="&#x11d;" 
d="M418 1463h194l197 -308h-129l-166 197l-162 -197h-131zM844 1073l156.997 -0.000976562v-897c0 -210 -27.667 -358.667 -83 -446l-29 -39c-65.333 -82 -172.666 -127 -321.999 -135c-14.667 -1.33301 -29.667 -2 -45 -2c-188 0 -316.333 60 -385 180
c-23.333 42 -37.666 89.667 -42.999 143h174c8.66699 -52 28.667 -91.667 60 -119l6 -4c49.333 -38 114 -57 194 -57c110.667 0 190 33.333 238 100c40.667 56 61 153.667 61 293v55l-14 -18c-79.333 -106.667 -170.666 -164 -273.999 -172c-12.667 -1.33301 -25 -2 -37 -2
h-19c-113.333 6.66699 -209.333 54.334 -288 143.001c-90.667 104 -136 244.667 -136 422c0 206 56.667 363 170 471c79.333 76.667 175 115 287 115c134 0 243.333 -62 328 -186v155zM534.997 945.999c-120.667 0 -206 -61.333 -256 -184c-27.333 -64 -41 -142 -41 -234
c0 -189.333 53 -316.333 159 -381c40 -24 86.667 -36 140 -36c121.333 0 206 62.667 254 188c24 62.667 36 137 36 223c0 204.667 -56 336.667 -168 396c-36.667 18.667 -78 28 -124 28z" />
    <glyph glyph-name="Gbreve" unicode="&#x11e;" horiz-adv-x="1593" 
d="M1452 788l0.00195312 -795.999h-121l-47 198c-142 -158 -312 -237 -510 -237c-208.667 0 -377.334 77.667 -506.001 233c-118.667 142 -178 323.667 -178 545c0 240.667 69.667 436 209 586c19.333 20.667 39.666 39.667 60.999 57c116.667 96 265.667 144 447 144
c244.667 0 422 -80.667 532 -242c45.333 -66.667 76.333 -145.334 93 -236.001h-195c-28.667 134 -108 225.667 -238 275c-57.333 23.333 -122 35 -194 35c-180 0 -318.667 -71 -416 -213c-72 -106.667 -108 -238.667 -108 -396c0 -172 41.667 -315.333 125 -430l32 -39
c90 -98 215.667 -148.333 377 -151c156 0 279 54.667 369 164c66.667 82 100 180.333 100 295v41h-455v167h623zM510.002 1907h120.999c10.667 -90 73.334 -135 188.001 -135c105.333 0 167 38.667 185 116l2 19h120c-14.667 -184.667 -118.334 -277 -311.001 -277
c-117.333 0 -204.666 39 -261.999 117l-4 6c-24.667 34 -37.667 85.333 -39 154z" />
    <glyph glyph-name="gbreve" unicode="&#x11f;" 
d="M844 1073l156.997 -0.000976562v-897c0 -210 -27.667 -358.667 -83 -446l-29 -39c-65.333 -82 -172.666 -127 -321.999 -135c-14.667 -1.33301 -29.667 -2 -45 -2c-188 0 -316.333 60 -385 180c-23.333 42 -37.666 89.667 -42.999 143h174
c8.66699 -52 28.667 -91.667 60 -119l6 -4c49.333 -38 114 -57 194 -57c110.667 0 190 33.333 238 100c40.667 56 61 153.667 61 293v55l-14 -18c-79.333 -106.667 -170.666 -164 -273.999 -172c-12.667 -1.33301 -25 -2 -37 -2h-19
c-113.333 6.66699 -209.333 54.334 -288 143.001c-90.667 104 -136 244.667 -136 422c0 206 56.667 363 170 471c79.333 76.667 175 115 287 115c134 0 243.333 -62 328 -186v155zM534.997 945.999c-120.667 0 -206 -61.333 -256 -184c-27.333 -64 -41 -142 -41 -234
c0 -189.333 53 -316.333 159 -381c40 -24 86.667 -36 140 -36c121.333 0 206 62.667 254 188c24 62.667 36 137 36 223c0 204.667 -56 336.667 -168 396c-36.667 18.667 -78 28 -124 28zM269.997 1499h120.999c10 -90 73 -135 189 -135c104.667 0 166 39 184 117l2 18h121
c-15.333 -184 -119.333 -276 -312 -276c-117.333 0 -204.666 38.667 -261.999 116l-4 7c-24.667 36.667 -37.667 87.667 -39 153z" />
    <glyph glyph-name="Gdotaccent" unicode="&#x120;" horiz-adv-x="1593" 
d="M918 1788v-213h-213v213h213zM1452 788l0.00195312 -795.999h-121l-47 198c-142 -158 -312 -237 -510 -237c-208.667 0 -377.334 77.667 -506.001 233c-118.667 142 -178 323.667 -178 545c0 240.667 69.667 436 209 586c19.333 20.667 39.666 39.667 60.999 57
c116.667 96 265.667 144 447 144c244.667 0 422 -80.667 532 -242c45.333 -66.667 76.333 -145.334 93 -236.001h-195c-28.667 134 -108 225.667 -238 275c-57.333 23.333 -122 35 -194 35c-180 0 -318.667 -71 -416 -213c-72 -106.667 -108 -238.667 -108 -396
c0 -172 41.667 -315.333 125 -430l32 -39c90 -98 215.667 -148.333 377 -151c156 0 279 54.667 369 164c66.667 82 100 180.333 100 295v41h-455v167h623z" />
    <glyph glyph-name="gdotaccent" unicode="&#x121;" 
d="M627 1368v-213h-213v213h213zM844 1073l156.997 -0.000976562v-897c0 -210 -27.667 -358.667 -83 -446l-29 -39c-65.333 -82 -172.666 -127 -321.999 -135c-14.667 -1.33301 -29.667 -2 -45 -2c-188 0 -316.333 60 -385 180c-23.333 42 -37.666 89.667 -42.999 143h174
c8.66699 -52 28.667 -91.667 60 -119l6 -4c49.333 -38 114 -57 194 -57c110.667 0 190 33.333 238 100c40.667 56 61 153.667 61 293v55l-14 -18c-79.333 -106.667 -170.666 -164 -273.999 -172c-12.667 -1.33301 -25 -2 -37 -2h-19
c-113.333 6.66699 -209.333 54.334 -288 143.001c-90.667 104 -136 244.667 -136 422c0 206 56.667 363 170 471c79.333 76.667 175 115 287 115c134 0 243.333 -62 328 -186v155zM534.997 945.999c-120.667 0 -206 -61.333 -256 -184c-27.333 -64 -41 -142 -41 -234
c0 -189.333 53 -316.333 159 -381c40 -24 86.667 -36 140 -36c121.333 0 206 62.667 254 188c24 62.667 36 137 36 223c0 204.667 -56 336.667 -168 396c-36.667 18.667 -78 28 -124 28z" />
    <glyph glyph-name="Gcommaaccent" unicode="&#x122;" horiz-adv-x="1593" 
d="M1452 788l0.00195312 -795.999h-121l-47 198c-142 -158 -312 -237 -510 -237c-208.667 0 -377.334 77.667 -506.001 233c-118.667 142 -178 323.667 -178 545c0 240.667 69.667 436 209 586c19.333 20.667 39.666 39.667 60.999 57c116.667 96 265.667 144 447 144
c244.667 0 422 -80.667 532 -242c45.333 -66.667 76.333 -145.334 93 -236.001h-195c-28.667 134 -108 225.667 -238 275c-57.333 23.333 -122 35 -194 35c-180 0 -318.667 -71 -416 -213c-72 -106.667 -108 -238.667 -108 -396c0 -172 41.667 -315.333 125 -430l32 -39
c90 -98 215.667 -148.333 377 -151c156 0 279 54.667 369 164c66.667 82 100 180.333 100 295v41h-455v167h623zM690.002 -122.999h205v-211c0 -120 -40.333 -197 -121 -231c-24.667 -11.333 -52.667 -17 -84 -17v78c78 0 115.667 58.667 113 176h-113v205z" />
    <glyph glyph-name="gcommaaccent" unicode="&#x123;" 
d="M844 1073l156.997 -0.000976562v-897c0 -210 -27.667 -358.667 -83 -446l-29 -39c-65.333 -82 -172.666 -127 -321.999 -135c-14.667 -1.33301 -29.667 -2 -45 -2c-188 0 -316.333 60 -385 180c-23.333 42 -37.666 89.667 -42.999 143h174
c8.66699 -52 28.667 -91.667 60 -119l6 -4c49.333 -38 114 -57 194 -57c110.667 0 190 33.333 238 100c40.667 56 61 153.667 61 293v55l-14 -18c-79.333 -106.667 -170.666 -164 -273.999 -172c-12.667 -1.33301 -25 -2 -37 -2h-19
c-113.333 6.66699 -209.333 54.334 -288 143.001c-90.667 104 -136 244.667 -136 422c0 206 56.667 363 170 471c79.333 76.667 175 115 287 115c134 0 243.333 -62 328 -186v155zM534.997 945.999c-120.667 0 -206 -61.333 -256 -184c-27.333 -64 -41 -142 -41 -234
c0 -189.333 53 -316.333 159 -381c40 -24 86.667 -36 140 -36c121.333 0 206 62.667 254 188c24 62.667 36 137 36 223c0 204.667 -56 336.667 -168 396c-36.667 18.667 -78 28 -124 28zM679.997 1212h-205v211c0 120.667 40.333 198 121 232c24.667 10.667 52.667 16 84 16
v-78l-4 -2c-76.667 -2.66699 -113 -60.667 -109 -174h113v-205z" />
    <glyph glyph-name="Hcircumflex" unicode="&#x124;" horiz-adv-x="1478" 
d="M648 1883h194l197 -308h-129l-166 197l-162 -197h-131zM1128 680h-766v-680h-192v1493h190v-645h768v645h191v-1493h-191v680z" />
    <glyph glyph-name="hcircumflex" unicode="&#x125;" 
d="M132 1883h194l197 -308h-129l-166 197l-162 -197h-131zM143 1493l170.001 -0.000976562v-567l37 43c72.667 82 160 126.333 262 133l45 2c150.667 0 252.667 -50.667 306 -152c21.333 -40.667 32 -87.667 32 -141v-811h-170v743c0 75.333 -23 129.333 -69 162
c-44 32.667 -94.667 49 -152 49c-114.667 0 -197.334 -52.333 -248.001 -157c-28.667 -57.333 -43 -125.666 -43 -204.999v-592h-170v1493z" />
    <glyph glyph-name="Hbar" unicode="&#x126;" horiz-adv-x="1478" 
d="M1128 680h-766v-680h-192v1493h190v-645h768v645h191v-1493h-191v680z" />
    <glyph glyph-name="hbar" unicode="&#x127;" 
d="M313 1337l308.001 -0.000976562v-108h-308v-303l37 43c72.667 82 160 126.333 262 133l45 2c150.667 0 252.667 -50.667 306 -152c21.333 -40.667 32 -87.667 32 -141v-811h-170v743c0 75.333 -23 129.333 -69 162c-44 32.667 -94.667 49 -152 49
c-114.667 0 -197.334 -52.333 -248.001 -157c-28.667 -57.333 -43 -125.666 -43 -204.999v-592h-170v1229h-129v108h129v156h170v-156z" />
    <glyph glyph-name="Itilde" unicode="&#x128;" horiz-adv-x="569" 
d="M504 1787h118.001c-20 -142 -80.667 -213 -182 -213h-16c-12.667 1.33301 -26.334 4.33301 -41.001 9l-117 43c-48 17.333 -81.333 26 -100 26c-31.333 0 -54 -25.333 -68 -76h-119c22 127.333 73.333 197 154 209l22 2l33 -2c18 -2.66699 55 -14.667 111 -36l24 -11
c45.333 -17.333 80.333 -26 105 -26c34 0 59.333 25 76 75zM397.001 1493v-1493h-192v1493h192z" />
    <glyph glyph-name="itilde" unicode="&#x129;" horiz-adv-x="2048" 
d="M482 1368h118.001c-20 -142 -80.667 -213 -182 -213h-16c-12.667 1.33301 -26.334 4.33301 -41.001 9l-117 43c-48 17.333 -81.333 26 -100 26c-31.333 0 -54 -25.333 -68 -76h-119c22 127.333 73.333 197 154 209l22 2l33 -2c18 -2.66699 55 -14.667 111 -36l24 -11
c45.333 -17.333 80.333 -26 105 -26c34 0 59.333 25 76 75zM365.001 1073v-1073h-172v1073h172z" />
    <glyph glyph-name="Imacron" unicode="&#x12a;" horiz-adv-x="569" 
d="M397 1493v-1493h-192v1493h192zM561 1843v-143h-520v143h520z" />
    <glyph glyph-name="imacron" unicode="&#x12b;" horiz-adv-x="454" 
d="M305 1073v-1073h-170v1073h170zM473 1436v-144h-506v144h506z" />
    <glyph glyph-name="Ibreve" unicode="&#x12c;" horiz-adv-x="569" 
d="M-6 1851h121c10.667 -90 73.334 -135 188.001 -135c105.333 0 166.666 39 183.999 117l2 18h121c-14.667 -184 -118.334 -276 -311.001 -276c-117.333 0 -204.666 38.667 -261.999 116l-4 7c-24.667 36.667 -37.667 87.667 -39 153zM397 1493v-1493h-192v1493h192z" />
    <glyph glyph-name="ibreve" unicode="&#x12d;" horiz-adv-x="2048" 
d="M-28 1431h121c10.667 -90 73.334 -135 188.001 -135c105.333 0 166.666 39 183.999 117l2 18h121c-14.667 -184 -118.334 -276 -311.001 -276c-117.333 0 -204.666 38.667 -261.999 116l-4 7c-24.667 36.667 -37.667 87.667 -39 153zM365 1073v-1073h-172v1073h172z" />
    <glyph glyph-name="Iogonek" unicode="&#x12e;" horiz-adv-x="569" 
d="M397 1493l-0.00195312 -1493c-53.333 -49.333 -88 -101.333 -104 -156c-6.66699 -20 -10 -41 -10 -63c0 -54.667 23 -89 69 -103l35 -4h14c20.667 1.33301 46.667 7.66602 78 18.999v-92l-61 -13l-60 -6c-99.333 0 -166.666 33.667 -201.999 101
c-14 22.667 -21 49 -21 79c0 50.667 15 96 45 136c24.667 31.333 62.334 65.333 113.001 102h-88v1493h192z" />
    <glyph glyph-name="iogonek" unicode="&#x12f;" horiz-adv-x="454" 
d="M307 1073v-1073c-36.667 -32.667 -65.334 -73 -86.001 -121c-14.667 -32.667 -22 -62.667 -22 -90c0 -57.333 23 -93.333 69 -108l33 -7h12c18 1.33301 43.333 7.66602 76 18.999v-92l-59 -13l-60 -6c-95.333 0 -161.333 32 -198 96c-14 24.667 -21 52.667 -21 84
c0 40 9 75 27 105c20.667 38 62.334 82.333 125.001 133h-66v1073h170zM307 1493v-215h-172v215h172z" />
    <glyph glyph-name="Idotaccent" unicode="&#x130;" horiz-adv-x="569" 
d="M399 1493v-1493h-192v1493h192zM410 1874v-213h-213v213h213z" />
    <glyph glyph-name="dotlessi" unicode="&#x131;" horiz-adv-x="569" 
d="M365 1073v-1073h-172v1073h172z" />
    <glyph glyph-name="Jcircumflex" unicode="&#x134;" horiz-adv-x="1024" 
d="M680 1883h194l197 -308h-129l-166 197l-162 -197h-131zM682 1493h189.998v-1120c0 -169.333 -61.333 -290.333 -184 -363c-66.667 -38 -145.667 -57 -237 -57c-169.333 0 -289.666 58.667 -360.999 176c-36.667 61.333 -55 134.333 -55 219v131h194v-96
c0 -151.333 55.333 -239.333 166 -264l58 -6c78.667 0 139.334 30.667 182.001 92c31.333 46 47 125 47 237v1051z" />
    <glyph glyph-name="jcircumflex" unicode="&#x135;" horiz-adv-x="454" 
d="M143 1073h170v-1296c0 -140.667 -87.333 -215 -262 -223h-31l-36 2l-21 4v145l39 -2h2c71.333 0 114.333 22 129 66c6.66699 18.667 10 43.667 10 75v1229zM131 1608h195l196 -308h-129l-166 197l-161 -197h-132z" />
    <glyph glyph-name="Kcommaaccent" unicode="&#x136;" horiz-adv-x="1366" 
d="M352 522v-522h-190v1493h190v-756l744 756h245l-608 -608l615 -885h-226l-526 766zM612 -123h205v-211c0 -120 -40.333 -197 -121 -231c-24.667 -11.333 -52.667 -17 -84 -17v78c78 0 115.667 58.667 113 176h-113v205z" />
    <glyph glyph-name="kcommaaccent" unicode="&#x137;" horiz-adv-x="1024" 
d="M289 1493v-875l454 455h220l-373 -371l438 -702h-211l-362 582l-166 -164v-418h-170v1493h170zM444 -123h205v-211c0 -120 -40.333 -197 -121 -231c-24 -11.333 -52 -17 -84 -17v78c78 0 115.667 58.667 113 176h-113v205z" />
    <glyph glyph-name="kgreenlandic" unicode="&#x138;" horiz-adv-x="1024" 
d="M289 1073v-455l454 455h220l-557 -532l622 -541h-211l-528 442v-442h-170v1073h170z" />
    <glyph glyph-name="Lacute" unicode="&#x139;" 
d="M354 1493v-1325h738v-168h-928v1493h190zM340 1923h231l-305 -303h-123z" />
    <glyph glyph-name="lacute" unicode="&#x13a;" horiz-adv-x="454" 
d="M311 1493v-1493h-172v1493h172zM326 1923h231l-305 -303h-123z" />
    <glyph glyph-name="Lcommaaccent" unicode="&#x13b;" 
d="M354 1493v-1325h738v-168h-928v1493h190zM526 -123h205v-211c0 -120 -40.333 -197 -121 -231c-24.667 -11.333 -52.667 -17 -84 -17v78c78 0 115.667 58.667 113 176h-113v205z" />
    <glyph glyph-name="lcommaaccent" unicode="&#x13c;" horiz-adv-x="454" 
d="M311 1493v-1493h-172v1493h172zM129 -123h205v-211c0 -120 -40.333 -197 -121 -231c-24.667 -11.333 -52.667 -17 -84 -17v78c78 0 115.667 56 113 168v8h-113v205z" />
    <glyph glyph-name="Lcaron" unicode="&#x13d;" 
d="M354 1493v-1325h738v-168h-928v1493h190zM559 1493h204.999v-211c0 -104 -32.667 -177.667 -98 -221c-27.333 -18 -57.666 -27 -90.999 -27h-16v78c78 0 115.667 58.667 113 176h-113v205z" />
    <glyph glyph-name="lcaron" unicode="&#x13e;" horiz-adv-x="598" 
d="M311 1493v-1493h-172v1493h172zM420 1493h205v-211c0 -104 -33 -177.667 -99 -221c-27.333 -18 -57.333 -27 -90 -27h-16v78c78 0 115.333 58.667 112 176h-112v205z" />
    <glyph glyph-name="Lslash" unicode="&#x141;" 
d="M354 831l351 248v-155l-351 -250v-506h776v-168h-966v573l-164 -116v157l164 115v764h190v-662z" />
    <glyph glyph-name="lslash" unicode="&#x142;" horiz-adv-x="454" 
d="M299 862l135 105v-131l-135 -105v-731h-170v641l-129 -102v131l129 102v721h170v-631z" />
    <glyph glyph-name="Nacute" unicode="&#x143;" horiz-adv-x="1478" 
d="M1323 1493v-1493h-215l-772 1210v-1210h-180v1493h206l781 -1221v1221h180zM797 1923h231l-305 -303h-123z" />
    <glyph glyph-name="nacute" unicode="&#x144;" 
d="M143 1073h158.001v-180c74 116 162.667 183.667 266 203c27.333 5.33301 57.333 8 90 8c142 0 241.667 -47 299 -141c26 -42.667 39.667 -93.334 41 -152.001v-811h-170v743c0 94.667 -39.333 159 -118 193c-30 12 -64.333 18 -103 18
c-114.667 0 -197.334 -52.333 -248.001 -157c-28.667 -57.333 -43 -125.666 -43 -204.999v-592h-172v1073zM635.001 1516h231l-305 -304h-123z" />
    <glyph glyph-name="Ncommaaccent" unicode="&#x145;" horiz-adv-x="1478" 
d="M1323 1493v-1493h-215l-772 1210v-1210h-180v1493h206l781 -1221v1221h180zM610 -123h205v-211c0 -120 -40.333 -197 -121 -231c-24.667 -11.333 -52.667 -17 -84 -17v78c78 0 115.667 58.667 113 176h-113v205z" />
    <glyph glyph-name="ncommaaccent" unicode="&#x146;" 
d="M143 1073h158.001v-180c74 116 162.667 183.667 266 203c27.333 5.33301 57.333 8 90 8c142 0 241.667 -47 299 -141c26 -42.667 39.667 -93.334 41 -152.001v-811h-170v743c0 94.667 -39.333 159 -118 193c-30 12 -64.333 18 -103 18
c-114.667 0 -197.334 -52.333 -248.001 -157c-28.667 -57.333 -43 -125.666 -43 -204.999v-592h-172v1073zM469.001 -123h205v-211c0 -120 -40.333 -197 -121 -231c-24.667 -11.333 -52.667 -17 -84 -17v78c78 0 115.667 58.667 113 176h-113v205z" />
    <glyph glyph-name="Ncaron" unicode="&#x147;" horiz-adv-x="1478" 
d="M1323 1493v-1493h-215l-772 1210v-1210h-180v1493h206l781 -1221v1221h180zM838 1618h-195l-197 307h129l166 -196l162 196h131z" />
    <glyph glyph-name="ncaron" unicode="&#x148;" 
d="M143 1073h158.001v-180c74 116 162.667 183.667 266 203c27.333 5.33301 57.333 8 90 8c142 0 241.667 -47 299 -141c26 -42.667 39.667 -93.334 41 -152.001v-811h-170v743c0 94.667 -39.333 159 -118 193c-30 12 -64.333 18 -103 18
c-114.667 0 -197.334 -52.333 -248.001 -157c-28.667 -57.333 -43 -125.666 -43 -204.999v-592h-172v1073zM668.001 1210h-195l-197 308h130l165 -197l162 197h131z" />
    <glyph glyph-name="napostrophe" unicode="&#x149;" 
d="M143 1073h158.001v-180c74 116 162.667 183.667 266 203c27.333 5.33301 57.333 8 90 8c142 0 241.667 -47 299 -141c26 -42.667 39.667 -93.334 41 -152.001v-811h-170v743c0 94.667 -39.333 159 -118 193c-30 12 -64.333 18 -103 18
c-114.667 0 -197.334 -52.333 -248.001 -157c-28.667 -57.333 -43 -125.666 -43 -204.999v-592h-172v1073z" />
    <glyph glyph-name="Eng" unicode="&#x14a;" horiz-adv-x="1478" 
d="M1143 459l180 0.000976562v-682c0 -118.667 -67.667 -190.334 -203 -215.001c-30 -5.33301 -63.333 -8 -100 -8l-37 2l-20 4v145l38 -2h3c70.667 0 113.667 22 129 66c6.66699 18.667 10 43.667 10 75v615zM1323 1493v-1493h-215l-772 1210v-1210h-180v1493h206
l781 -1221v1221h180z" />
    <glyph glyph-name="eng" unicode="&#x14b;" 
d="M997 811l0.000976562 -1034c0 -140.667 -87.333 -215 -262 -223h-30l-37 2l-21 4v145l39 -2h2c71.333 0 114.333 22 129 66c6.66699 18.667 10 43.667 10 75v899c0 94.667 -39.333 159 -118 193c-30 12 -64.333 18 -103 18c-114.667 0 -197.334 -52.333 -248.001 -157
c-28.667 -57.333 -43 -125.666 -43 -204.999v-592h-172v1073h158v-180c74 116 162.667 183.667 266 203c27.333 5.33301 57.333 8 90 8c142 0 241.667 -47 299 -141c26 -42.667 39.667 -93.334 41 -152.001z" />
    <glyph glyph-name="Omacron" unicode="&#x14c;" horiz-adv-x="1593" 
d="M797 1518c237.333 0 422.333 -84.001 555 -252.001l2 -2l4 -4c82 -108 133 -240 153 -396c6 -44.667 9 -91.667 9 -141c0 -202 -56 -374.667 -168 -518c-27.333 -35.333 -57.333 -66.666 -90 -93.999c-124.667 -105.333 -279 -158 -463 -158c-228 0 -409 80 -543 240
c-118.667 142 -178 322.667 -178 542c0 251.333 75.667 450 227 596c130 124.667 294 187 492 187zM797 1350c-178 0 -316 -69.667 -414 -209c-76.667 -108 -115 -243.333 -115 -406c0 -215.333 65 -379.666 195 -492.999c91.333 -80.667 203.333 -121 336 -121
c176 0 313 68.333 411 205c79.333 106 119 239.667 119 401c0 225.333 -67 394.666 -201 507.999c-90 76.667 -200.333 115 -331 115zM1079 1843v-143h-561v143h561z" />
    <glyph glyph-name="omacron" unicode="&#x14d;" 
d="M557 1104c207.333 0 350 -87.999 428 -263.999c39.333 -88.667 59 -195.334 59 -320.001c0 -228 -69.333 -390.333 -208 -487c-76.667 -53.333 -169 -80 -277 -80c-196.667 0 -336 81.333 -418 244c-44.667 90 -67 200.333 -67 331c0 238 71.667 404.667 215 500
c74.667 50.667 164 76 268 76zM559 946.001c-126.667 0 -216 -62.667 -268 -188c-26 -64 -39 -140.667 -39 -230c0 -186.667 53.333 -312.667 160 -378c42 -26 91 -39 147 -39c122.667 0 210.667 60 264 180c28.667 64 43 141 43 231c0 198 -56 328.333 -168 391
c-40.667 22 -87 33 -139 33zM840 1436v-144h-561v144h561z" />
    <glyph glyph-name="Obreve" unicode="&#x14e;" horiz-adv-x="1593" 
d="M490 1851h121c10.667 -90 73.334 -135 188.001 -135c105.333 0 166.666 39 183.999 117l2 18h121c-14.667 -184 -118.334 -276 -311.001 -276c-117.333 0 -204.666 38.667 -261.999 116l-4 7c-24.667 36.667 -37.667 87.667 -39 153zM797 1518
c237.333 0 422.333 -84.001 555 -252.001l2 -2l4 -4c82 -108 133 -240 153 -396c6 -44.667 9 -91.667 9 -141c0 -202 -56 -374.667 -168 -518c-27.333 -35.333 -57.333 -66.666 -90 -93.999c-124.667 -105.333 -279 -158 -463 -158c-228 0 -409 80 -543 240
c-118.667 142 -178 322.667 -178 542c0 251.333 75.667 450 227 596c130 124.667 294 187 492 187zM797 1350c-178 0 -316 -69.667 -414 -209c-76.667 -108 -115 -243.333 -115 -406c0 -215.333 65 -379.666 195 -492.999c91.333 -80.667 203.333 -121 336 -121
c176 0 313 68.333 411 205c79.333 106 119 239.667 119 401c0 225.333 -67 394.666 -201 507.999c-90 76.667 -200.333 115 -331 115z" />
    <glyph glyph-name="obreve" unicode="&#x14f;" 
d="M250 1431h121c10.667 -90 73.334 -135 188.001 -135c105.333 0 166.666 39 183.999 117l2 18h121c-14.667 -184 -118.334 -276 -311.001 -276c-117.333 0 -204.666 38.667 -261.999 116l-4 7c-24.667 36.667 -37.667 87.667 -39 153zM557 1104
c207.333 0 350 -87.999 428 -263.999c39.333 -88.667 59 -195.334 59 -320.001c0 -228 -69.333 -390.333 -208 -487c-76.667 -53.333 -169 -80 -277 -80c-196.667 0 -336 81.333 -418 244c-44.667 90 -67 200.333 -67 331c0 238 71.667 404.667 215 500
c74.667 50.667 164 76 268 76zM559 946.001c-126.667 0 -216 -62.667 -268 -188c-26 -64 -39 -140.667 -39 -230c0 -186.667 53.333 -312.667 160 -378c42 -26 91 -39 147 -39c122.667 0 210.667 60 264 180c28.667 64 43 141 43 231c0 198 -56 328.333 -168 391
c-40.667 22 -87 33 -139 33z" />
    <glyph glyph-name="Ohungarumlaut" unicode="&#x150;" horiz-adv-x="1593" 
d="M797 1518c237.333 0 422.333 -84.001 555 -252.001l2 -2l4 -4c82 -108 133 -240 153 -396c6 -44.667 9 -91.667 9 -141c0 -202 -56 -374.667 -168 -518c-27.333 -35.333 -57.333 -66.666 -90 -93.999c-124.667 -105.333 -279 -158 -463 -158c-228 0 -409 80 -543 240
c-118.667 142 -178 322.667 -178 542c0 251.333 75.667 450 227 596c130 124.667 294 187 492 187zM797 1350c-178 0 -316 -69.667 -414 -209c-76.667 -108 -115 -243.333 -115 -406c0 -215.333 65 -379.666 195 -492.999c91.333 -80.667 203.333 -121 336 -121
c176 0 313 68.333 411 205c79.333 106 119 239.667 119 401c0 225.333 -67 394.666 -201 507.999c-90 76.667 -200.333 115 -331 115zM745 1923h232l-305 -307h-123zM1102 1923h231l-305 -307h-123z" />
    <glyph glyph-name="ohungarumlaut" unicode="&#x151;" 
d="M557 1104c207.333 0 350 -87.999 428 -263.999c39.333 -88.667 59 -195.334 59 -320.001c0 -228 -69.333 -390.333 -208 -487c-76.667 -53.333 -169 -80 -277 -80c-196.667 0 -336 81.333 -418 244c-44.667 90 -67 200.333 -67 331c0 238 71.667 404.667 215 500
c74.667 50.667 164 76 268 76zM559 946.001c-126.667 0 -216 -62.667 -268 -188c-26 -64 -39 -140.667 -39 -230c0 -186.667 53.333 -312.667 160 -378c42 -26 91 -39 147 -39c122.667 0 210.667 60 264 180c28.667 64 43 141 43 231c0 198 -56 328.333 -168 391
c-40.667 22 -87 33 -139 33zM489 1516h232l-305 -308h-123zM846 1516h231l-305 -308h-123z" />
    <glyph glyph-name="OE" unicode="&#x152;" horiz-adv-x="2048" 
d="M1266 670l0.000976562 -502.001h698v-168h-889v152c-88.667 -126 -214.334 -190.333 -377.001 -193c-178.667 0 -322.667 62.667 -432 188c-118.667 136.667 -178 330.667 -178 582c0 281.333 70.333 491 211 629c92.667 92.667 210.667 145.334 354 158.001
c10 1.33301 20.333 2 31 2h16c165.333 0 290.333 -60.333 375 -181v156h879v-168h-688v-487h671v-168h-671zM1075 372.999l-0.000976562 731c-80.667 164 -205.667 246 -375 246c-137.333 0 -243 -53.333 -317 -160c-69.333 -104 -104 -255 -104 -453
c0 -196.667 34.667 -346.667 104 -450c74 -106.667 179 -160 315 -160c170.667 0 296.334 82 377.001 246z" />
    <glyph glyph-name="oe" unicode="&#x153;" horiz-adv-x="1933" 
d="M1647 326l172 -0.00195312c-30 -164 -114.667 -275.333 -254 -334c-60 -26 -127.667 -39 -203 -39c-169.333 0 -297.666 63.333 -384.999 190l-12 21c-84.667 -139.333 -217.334 -209.666 -398.001 -210.999c-211.333 0 -355.333 90.667 -432 272
c-35.333 84.667 -53 186.334 -53 305.001c0 262.667 83.333 437 250 523c66.667 34 145 51 235 51c184.667 0 318.667 -72.333 402 -217c73.333 120 180.333 190.333 321 211l74 6c156.667 0 279.667 -56 369 -168c27.333 -34 49 -72.333 65 -115
c28.667 -73.333 43 -187.333 43 -342h-790c1.33301 -98 20.333 -174.333 57 -229c58.667 -92.667 144.667 -139 258 -139c139.333 0 233 71.667 281 215zM567 945.998c-126.667 0 -216 -63.333 -268 -190c-22 -53.333 -35 -116.333 -39 -189v-37
c0 -189.333 54 -316 162 -380c42 -26 90.333 -39 145 -39c124.667 0 213.667 60.667 267 182c26.667 64 40 141 40 231c0 195.333 -55 324.333 -165 387c-23.333 12.667 -48 21.667 -74 27zM1055 617.998l601.999 -0.000976562c0 127.333 -44.333 221 -133 281
c-46.667 31.333 -100.667 47 -162 47c-116 0 -202 -51 -258 -153c-27.333 -49.333 -43.666 -107.666 -48.999 -174.999z" />
    <glyph glyph-name="Racute" unicode="&#x154;" horiz-adv-x="1478" 
d="M381 643v-642.999h-191v1493h689c232 0 376 -82 432 -246c14.667 -44.667 22 -95.667 22 -153c0 -134 -49 -236 -147 -306c-26 -17.333 -55.333 -34.333 -88 -51c84.667 -36.667 140 -82.334 166 -137.001c22.667 -50.667 34.667 -134.667 36 -252
c3.33301 -130.667 16.333 -214.667 39 -252c12.667 -17.333 30 -33.666 52 -48.999v-47h-232c-28.667 65.333 -43 146.666 -43 243.999l2 133c0 148.667 -54.667 234.667 -164 258c-24 5.33301 -51.333 8 -82 8h-491zM381 811.001h461c165.333 0 260 58.667 284 176
c6 23.333 9 50 9 80c0 90 -26 157 -78 201c-44 38 -115.667 57 -215 57h-461v-514zM784 1923h232l-305 -303h-123z" />
    <glyph glyph-name="racute" unicode="&#x155;" horiz-adv-x="681" 
d="M141 1073h158.002v-194c34 56 67.333 101 100 135c57.333 60 121.666 90 192.999 90h22l43 -6v-174c-98 -1.33301 -168.333 -16.333 -211 -45c-2.66699 -1.33301 -5.33398 -3 -8.00098 -5l-4 -4c-80.667 -58.667 -121 -163 -121 -313v-557h-172v1073zM446.002 1516h232
l-305 -304h-123z" />
    <glyph glyph-name="Rcommaaccent" unicode="&#x156;" horiz-adv-x="1478" 
d="M381 643v-642.999h-191v1493h689c232 0 376 -82 432 -246c14.667 -44.667 22 -95.667 22 -153c0 -134 -49 -236 -147 -306c-26 -17.333 -55.333 -34.333 -88 -51c84.667 -36.667 140 -82.334 166 -137.001c22.667 -50.667 34.667 -134.667 36 -252
c3.33301 -130.667 16.333 -214.667 39 -252c12.667 -17.333 30 -33.666 52 -48.999v-47h-232c-28.667 65.333 -43 146.666 -43 243.999l2 133c0 148.667 -54.667 234.667 -164 258c-24 5.33301 -51.333 8 -82 8h-491zM381 811.001h461c165.333 0 260 58.667 284 176
c6 23.333 9 50 9 80c0 90 -26 157 -78 201c-44 38 -115.667 57 -215 57h-461v-514zM653 -122.999h205v-211c0 -120 -40.333 -197 -121 -231c-24.667 -11.333 -52.667 -17 -84 -17v78c78 0 115.667 58.667 113 176h-113v205z" />
    <glyph glyph-name="rcommaaccent" unicode="&#x157;" horiz-adv-x="681" 
d="M141 1073h158.002v-194c34 56 67.333 101 100 135c57.333 60 121.666 90 192.999 90h22l43 -6v-174c-98 -1.33301 -168.333 -16.333 -211 -45c-2.66699 -1.33301 -5.33398 -3 -8.00098 -5l-4 -4c-80.667 -58.667 -121 -163 -121 -313v-557h-172v1073zM133.002 -123h205
v-211c0 -120 -40.333 -197 -121 -231c-24.667 -11.333 -52.667 -17 -84 -17v78c78 0 115.667 56 113 168v8h-113v205z" />
    <glyph glyph-name="Rcaron" unicode="&#x158;" horiz-adv-x="1478" 
d="M381 643v-642.999h-191v1493h689c232 0 376 -82 432 -246c14.667 -44.667 22 -95.667 22 -153c0 -134 -49 -236 -147 -306c-26 -17.333 -55.333 -34.333 -88 -51c84.667 -36.667 140 -82.334 166 -137.001c22.667 -50.667 34.667 -134.667 36 -252
c3.33301 -130.667 16.333 -214.667 39 -252c12.667 -17.333 30 -33.666 52 -48.999v-47h-232c-28.667 65.333 -43 146.666 -43 243.999l2 133c0 148.667 -54.667 234.667 -164 258c-24 5.33301 -51.333 8 -82 8h-491zM381 811.001h461c165.333 0 260 58.667 284 176
c6 23.333 9 50 9 80c0 90 -26 157 -78 201c-44 38 -115.667 57 -215 57h-461v-514zM827 1618h-194l-197 307h129l166 -196l162 196h131z" />
    <glyph glyph-name="rcaron" unicode="&#x159;" horiz-adv-x="681" 
d="M141 1073h158.002v-194c34 56 67.333 101 100 135c57.333 60 121.666 90 192.999 90h22l43 -6v-174c-98 -1.33301 -168.333 -16.333 -211 -45c-2.66699 -1.33301 -5.33398 -3 -8.00098 -5l-4 -4c-80.667 -58.667 -121 -163 -121 -313v-557h-172v1073zM489.002 1210h-194
l-197 308h129l166 -197l162 197h131z" />
    <glyph glyph-name="Sacute" unicode="&#x15a;" horiz-adv-x="1366" 
d="M1221 1055l-181.001 0.00292969c-1.33301 151.333 -76.333 246.666 -225 285.999c-43.333 11.333 -92.333 17 -147 17c-142 0 -241 -42.333 -297 -127v0c-24.667 -36.667 -37 -78.334 -37 -125.001c0 -76.667 36.667 -134 110 -172c34.667 -18 80 -34.333 136 -49
l374 -101c164 -44.667 265 -133.334 303 -266.001c10 -34 15 -70 15 -108v-29c-8 -114.667 -53.667 -211.667 -137 -291l-27 -22c-100 -76.667 -240 -115 -420 -115c-230.667 0 -398 71 -502 213c-57.333 78 -86.666 181 -87.999 309h181c-2 -88.667 23.667 -165 77 -229
c70 -83.333 184.667 -125 344 -125c122 0 213.667 21 275 63c61.333 44 96 104.333 104 181c1.33301 4 2 8.66699 2 14v12c0 104 -75 179.667 -225 227c-14.667 6 -31 11 -49 15l-371 98c-194 50.667 -291.667 166.667 -293 348c0 169.333 71 292.333 213 369
c87.333 46.667 193.333 70 318 70c240 0 403 -76 489 -228c38.667 -66.667 58 -145 58 -235zM740.999 1923h232l-305 -303h-123z" />
    <glyph glyph-name="sacute" unicode="&#x15b;" horiz-adv-x="1024" 
d="M897 774l-179.999 0.00195312c-4 114.667 -75.667 172 -215 172c-112 0 -183.667 -33.333 -215 -100c-8.66699 -18 -13 -38.667 -13 -62c0 -61.333 45.333 -107 136 -137l63 -16l164 -39c161.333 -38 257.666 -105 288.999 -201c9.33301 -28.667 14 -61.334 14 -98.001
c0 -131.333 -61.333 -227 -184 -287c-71.333 -35.333 -157.333 -53 -258 -53c-265.333 0 -407.333 110.667 -426 332l-2 34h180c8 -64 24.333 -109.667 49 -137c45.333 -47.333 116.333 -71 213 -71c114.667 0 191 32 229 96c14 20.667 21 44.667 21 72
c0 62.667 -37 107 -111 133c-12 4 -25 8 -39 12h-2l-14 4l-160 39c-162 39.333 -264.333 94 -307 164c-12 22 -21 47.333 -27 76l-6 69c0 127.333 57.333 219.666 172 276.999c67.333 34 147.333 51 240 51c198 0 321 -69 369 -207c13.333 -36.667 20 -77.667 20 -123z
M563.001 1516h232l-306 -304h-122z" />
    <glyph glyph-name="Scircumflex" unicode="&#x15c;" horiz-adv-x="1366" 
d="M590 1928h194l197 -308h-129l-166 197l-162 -197h-131zM1221 1055l-181.001 0.00292969c-1.33301 151.333 -76.333 246.666 -225 285.999c-43.333 11.333 -92.333 17 -147 17c-142 0 -241 -42.333 -297 -127v0c-24.667 -36.667 -37 -78.334 -37 -125.001
c0 -76.667 36.667 -134 110 -172c34.667 -18 80 -34.333 136 -49l374 -101c164 -44.667 265 -133.334 303 -266.001c10 -34 15 -70 15 -108v-29c-8 -114.667 -53.667 -211.667 -137 -291l-27 -22c-100 -76.667 -240 -115 -420 -115c-230.667 0 -398 71 -502 213
c-57.333 78 -86.666 181 -87.999 309h181c-2 -88.667 23.667 -165 77 -229c70 -83.333 184.667 -125 344 -125c122 0 213.667 21 275 63c61.333 44 96 104.333 104 181c1.33301 4 2 8.66699 2 14v12c0 104 -75 179.667 -225 227c-14.667 6 -31 11 -49 15l-371 98
c-194 50.667 -291.667 166.667 -293 348c0 169.333 71 292.333 213 369c87.333 46.667 193.333 70 318 70c240 0 403 -76 489 -228c38.667 -66.667 58 -145 58 -235z" />
    <glyph glyph-name="scircumflex" unicode="&#x15d;" horiz-adv-x="1024" 
d="M414 1463h194l197 -308h-129l-166 197l-162 -197h-131zM897 774l-179.999 0.00195312c-4 114.667 -75.667 172 -215 172c-112 0 -183.667 -33.333 -215 -100c-8.66699 -18 -13 -38.667 -13 -62c0 -61.333 45.333 -107 136 -137l63 -16l164 -39
c161.333 -38 257.666 -105 288.999 -201c9.33301 -28.667 14 -61.334 14 -98.001c0 -131.333 -61.333 -227 -184 -287c-71.333 -35.333 -157.333 -53 -258 -53c-265.333 0 -407.333 110.667 -426 332l-2 34h180c8 -64 24.333 -109.667 49 -137
c45.333 -47.333 116.333 -71 213 -71c114.667 0 191 32 229 96c14 20.667 21 44.667 21 72c0 62.667 -37 107 -111 133c-12 4 -25 8 -39 12h-2l-14 4l-160 39c-162 39.333 -264.333 94 -307 164c-12 22 -21 47.333 -27 76l-6 69c0 127.333 57.333 219.666 172 276.999
c67.333 34 147.333 51 240 51c198 0 321 -69 369 -207c13.333 -36.667 20 -77.667 20 -123z" />
    <glyph glyph-name="Scedilla" unicode="&#x15e;" horiz-adv-x="1366" 
d="M686 -49l-31 -65.9971l47 4h11c95.333 0 148.333 -37.333 159 -112l2 -25c0 -86 -45 -144 -135 -174c-34 -10.667 -72.667 -16 -116 -16l-58 4c-43.333 5.33301 -109.333 27 -198 65l43 82l18 -8c68 -34 119.333 -53 154 -57l28 -2c52 0 87 19.667 105 59
c4 9.33301 6 20.333 6 33c0 44.667 -31.333 70 -94 76c-8.66699 0 -30 -5 -64 -15l35 13v0l-35 -13l-22 13l63 141l-22 6l-90 14c-160 34.667 -273.333 118.667 -340 252c-38.667 75.333 -56.667 158.666 -54 249.999h181c-2 -88.667 23.667 -165 77 -229
c70 -83.333 184.667 -125 344 -125c122 0 213.667 21 275 63c61.333 44 96 104.333 104 181c1.33301 4 2 8.66699 2 14v12c0 104 -75 179.667 -225 227c-14.667 6 -31 11 -49 15l-371 98c-194 50.667 -291.667 166.667 -293 348c0 169.333 71 292.333 213 369
c87.333 46.667 193.333 70 318 70c240 0 403 -76 489 -228c38.667 -66.667 58 -145 58 -235h-181c-1.33301 151.333 -76.333 246.666 -225 285.999c-43.333 11.333 -92.333 17 -147 17c-142 0 -241 -42.333 -297 -127v0c-24.667 -36.667 -37 -78.334 -37 -125.001
c0 -76.667 36.667 -134 110 -172c34.667 -18 80 -34.333 136 -49l374 -101c164 -44.667 265 -133.334 303 -266.001c10 -34 15 -70 15 -108c0 -128.667 -48.667 -236.667 -146 -324c-38 -35.333 -81 -62.666 -129 -81.999l-8 -2c-73.333 -28.667 -174.333 -45.667 -303 -51z
" />
    <glyph glyph-name="scedilla" unicode="&#x15f;" horiz-adv-x="1024" 
d="M500 -49l-28.999 -65.998l47 4h10c96 0 149.333 -37.333 160 -112l2 -25c0 -86 -45 -144 -135 -174c-34 -10.667 -73 -16 -117 -16l-57 4c-44 5.33301 -110.333 27 -199 65l43 82l19 -8c68 -34 119 -53 153 -57l29 -2c52 0 86.667 19.667 104 59
c4.66699 9.33301 7 20.333 7 33c0 44.667 -31.667 70 -95 76l-32 -4l-31 -11l-23 13l64 145c-229.333 23.333 -346 144 -350 362h180c8 -64 24.333 -109.667 49 -137c45.333 -47.333 116.333 -71 213 -71c114.667 0 191 32 229 96c14 20.667 21 44.667 21 72
c0 62.667 -37 107 -111 133c-12 4 -25 8 -39 12h-2l-14 4l-160 39c-162 39.333 -264.333 94 -307 164c-12 22 -21 47.333 -27 76l-6 69c0 127.333 57.333 219.666 172 276.999c67.333 34 147.333 51 240 51c198 0 321 -69 369 -207c13.333 -36.667 20 -77.667 20 -123h-180
c-4 114.667 -75.667 172 -215 172c-112 0 -183.667 -33.333 -215 -100c-8.66699 -18 -13 -38.667 -13 -62c0 -61.333 45.333 -107 136 -137l63 -16l164 -39c161.333 -38 257.666 -105 288.999 -201c9.33301 -28.667 14 -61.334 14 -98.001c0 -108 -44.333 -194 -133 -258
c-22 -15.333 -44.667 -28.333 -68 -39c-51.333 -23.333 -131 -38.333 -239 -45z" />
    <glyph glyph-name="Scaron" unicode="&#x160;" horiz-adv-x="1366" 
d="M1221 1055l-181.001 0.00292969c-1.33301 151.333 -76.333 246.666 -225 285.999c-43.333 11.333 -92.333 17 -147 17c-142 0 -241 -42.333 -297 -127v0c-24.667 -36.667 -37 -78.334 -37 -125.001c0 -76.667 36.667 -134 110 -172c34.667 -18 80 -34.333 136 -49
l374 -101c164 -44.667 265 -133.334 303 -266.001c10 -34 15 -70 15 -108v-29c-8 -114.667 -53.667 -211.667 -137 -291l-27 -22c-100 -76.667 -240 -115 -420 -115c-230.667 0 -398 71 -502 213c-57.333 78 -86.666 181 -87.999 309h181c-2 -88.667 23.667 -165 77 -229
c70 -83.333 184.667 -125 344 -125c122 0 213.667 21 275 63c61.333 44 96 104.333 104 181c1.33301 4 2 8.66699 2 14v12c0 104 -75 179.667 -225 227c-14.667 6 -31 11 -49 15l-371 98c-194 50.667 -291.667 166.667 -293 348c0 169.333 71 292.333 213 369
c87.333 46.667 193.333 70 318 70c240 0 403 -76 489 -228c38.667 -66.667 58 -145 58 -235zM777.999 1618h-194l-197 307h129l166 -196l162 196h131z" />
    <glyph glyph-name="scaron" unicode="&#x161;" horiz-adv-x="1024" 
d="M897 774l-179.999 0.00195312c-4 114.667 -75.667 172 -215 172c-112 0 -183.667 -33.333 -215 -100c-8.66699 -18 -13 -38.667 -13 -62c0 -61.333 45.333 -107 136 -137l63 -16l164 -39c161.333 -38 257.666 -105 288.999 -201c9.33301 -28.667 14 -61.334 14 -98.001
c0 -131.333 -61.333 -227 -184 -287c-71.333 -35.333 -157.333 -53 -258 -53c-265.333 0 -407.333 110.667 -426 332l-2 34h180c8 -64 24.333 -109.667 49 -137c45.333 -47.333 116.333 -71 213 -71c114.667 0 191 32 229 96c14 20.667 21 44.667 21 72
c0 62.667 -37 107 -111 133c-12 4 -25 8 -39 12h-2l-14 4l-160 39c-162 39.333 -264.333 94 -307 164c-12 22 -21 47.333 -27 76l-6 69c0 127.333 57.333 219.666 172 276.999c67.333 34 147.333 51 240 51c198 0 321 -69 369 -207c13.333 -36.667 20 -77.667 20 -123z
M602.001 1210h-194l-197 308h129l166 -197l162 197h131z" />
    <glyph glyph-name="Tcedilla" unicode="&#x162;" horiz-adv-x="1251" 
d="M600 0h78.002l-47 -115l51 4h6c95.333 0 148.666 -37.333 159.999 -112l2 -25c0 -86 -45 -144 -135 -174c-34.667 -10.667 -73.667 -16 -117 -16l-64 4c-32.667 4 -72 15.667 -118 35l-74 30l43 82l18 -8c67.333 -34 116.666 -53 147.999 -57l35 -2
c51.333 0 86 19.667 104 59c4 9.33301 6 20.333 6 33c0 44.667 -31.333 70 -94 76l-33 -4l-31 -13l-24 15zM725.002 1325v-1325h-190v1325h-492v168h1171v-168h-489z" />
    <glyph glyph-name="tcedilla" unicode="&#x163;" horiz-adv-x="569" 
d="M350 -46h78.002l-47 -115l51 4h6c95.333 0 148.666 -37.333 159.999 -112l2 -25c0 -86 -45 -144 -135 -174c-34.667 -10.667 -73.667 -16 -117 -16l-64 4c-32.667 4 -72 15.667 -118 35l-74 30l43 82l18 -8c67.333 -34 116.666 -53 147.999 -57l35 -2
c51.333 0 86 19.667 104 59c4 9.33301 6 20.333 6 33c0 44.667 -31.333 70 -94 76l-33 -4l-31 -13l-24 15zM520.002 1073l-0.00195312 -139h-176v-735c0 -52 15 -82 45 -90l49 -7c34 0 61.333 3 82 9v-144c-53.333 -9.33301 -99.666 -14 -138.999 -14
c-121.333 0 -189.666 45.667 -204.999 137l-2 33v811h-145v139h145v295h170v-295h176z" />
    <glyph glyph-name="Tcaron" unicode="&#x164;" horiz-adv-x="1251" 
d="M725 1325v-1325h-190v1325h-492v168h1171v-168h-489zM727 1618h-195l-196 307h129l166 -196l162 196h131z" />
    <glyph glyph-name="tcaron" unicode="&#x165;" horiz-adv-x="630" 
d="M520 1073l-0.00195312 -139h-176v-735c0 -52 15 -82 45 -90l49 -7c34 0 61.333 3 82 9v-144c-53.333 -9.33301 -99.666 -14 -138.999 -14c-121.333 0 -189.666 45.667 -204.999 137l-2 33v811h-145v139h145v295h170v-295h176zM452.998 1638h204.001v-211
c0 -103.333 -32.667 -177 -98 -221c-27.333 -17.333 -57.333 -26 -90 -26h-16v77c77.333 0 114.666 59 111.999 177h-112v204z" />
    <glyph glyph-name="Tbar" unicode="&#x166;" horiz-adv-x="1251" 
d="M725 1325v-1325h-190v1325h-492v168h1171v-168h-489z" />
    <glyph glyph-name="tbar" unicode="&#x167;" horiz-adv-x="569" 
d="M520 1073l-0.00195312 -139h-176v-735c0 -52 15 -82 45 -90l49 -7c34 0 61.333 3 82 9v-144c-53.333 -9.33301 -99.666 -14 -138.999 -14c-121.333 0 -189.666 45.667 -204.999 137l-2 33v811h-145v139h145v295h170v-295h176z" />
    <glyph glyph-name="Utilde" unicode="&#x168;" horiz-adv-x="1478" 
d="M951 1787h118.001c-20 -142 -80.667 -213 -182 -213h-16c-12.667 1.33301 -26.334 4.33301 -41.001 9l-117 43c-48 17.333 -81.333 26 -100 26c-31.333 0 -54 -25.333 -68 -76h-119c22 127.333 73.333 197 154 209l22 2l33 -2c18 -2.66699 55 -14.667 111 -36l24 -11
c45.333 -17.333 80.333 -26 105 -26c34 0 59.333 25 76 75zM1130 1493l191 -0.000976562v-1049c0 -177.333 -71 -310.333 -213 -399c-98 -61.333 -219 -92 -363 -92c-224.667 0 -387 69 -487 207c-54.667 77.333 -82.667 172 -84 284v1049h191v-1049
c0 -107.333 36 -189 108 -245c72.667 -52 163.334 -78 272.001 -78c168 0 283 54 345 162c25.333 44.667 38.666 98.334 39.999 161.001v1049z" />
    <glyph glyph-name="utilde" unicode="&#x169;" 
d="M762 1368h118.001c-20 -142 -80.667 -213 -182 -213h-16c-12.667 1.33301 -26.334 4.33301 -41.001 9l-117 43c-48 17.333 -81.333 26 -100 26c-31.333 0 -54 -25.333 -68 -76h-119c22 127.333 73.333 197 154 209l22 2l33 -2c18 -2.66699 55 -14.667 111 -36l24 -11
c45.333 -17.333 80.333 -26 105 -26c34 0 59.333 25 76 75zM987.001 0h-153v150c-76.667 -108 -165.667 -171 -267 -189c-27.333 -5.33301 -58 -8 -92 -8c-146 0 -247 47.667 -303 143c-26 42.667 -39 92.667 -39 150v827h170v-760c0 -95.333 40.333 -159.333 121 -192
c28.667 -12.667 62 -19 100 -19c116 0 200 53.333 252 160c27.333 57.333 41 125 41 203v608h170v-1073z" />
    <glyph glyph-name="Umacron" unicode="&#x16a;" horiz-adv-x="1478" 
d="M1130 1493l191 -0.000976562v-1049c0 -177.333 -71 -310.333 -213 -399c-98 -61.333 -219 -92 -363 -92c-224.667 0 -387 69 -487 207c-54.667 77.333 -82.667 172 -84 284v1049h191v-1049c0 -107.333 36 -189 108 -245c72.667 -52 163.334 -78 272.001 -78
c168 0 283 54 345 162c25.333 44.667 38.666 98.334 39.999 161.001v1049zM1028 1843v-143h-561v143h561z" />
    <glyph glyph-name="umacron" unicode="&#x16b;" 
d="M987 0h-153v150c-76.667 -108 -165.667 -171 -267 -189c-27.333 -5.33301 -58 -8 -92 -8c-146 0 -247 47.667 -303 143c-26 42.667 -39 92.667 -39 150v827h170v-760c0 -95.333 40.333 -159.333 121 -192c28.667 -12.667 62 -19 100 -19c116 0 200 53.333 252 160
c27.333 57.333 41 125 41 203v608h170v-1073zM842 1436v-144h-561v144h561z" />
    <glyph glyph-name="Ubreve" unicode="&#x16c;" horiz-adv-x="1478" 
d="M439 1851h121c10.667 -90 73.334 -135 188.001 -135c105.333 0 166.666 39 183.999 117l2 18h121c-14.667 -184 -118.334 -276 -311.001 -276c-117.333 0 -204.666 38.667 -261.999 116l-4 7c-24.667 36.667 -37.667 87.667 -39 153zM1130 1493l191 -0.000976562v-1049
c0 -177.333 -71 -310.333 -213 -399c-98 -61.333 -219 -92 -363 -92c-224.667 0 -387 69 -487 207c-54.667 77.333 -82.667 172 -84 284v1049h191v-1049c0 -107.333 36 -189 108 -245c72.667 -52 163.334 -78 272.001 -78c168 0 283 54 345 162
c25.333 44.667 38.666 98.334 39.999 161.001v1049z" />
    <glyph glyph-name="ubreve" unicode="&#x16d;" 
d="M252 1431h121c10.667 -90 73.334 -135 188.001 -135c105.333 0 166.666 39 183.999 117l2 18h121c-14.667 -184 -118.334 -276 -311.001 -276c-117.333 0 -204.666 38.667 -261.999 116l-4 7c-24.667 36.667 -37.667 87.667 -39 153zM987 0h-153v150
c-76.667 -108 -165.667 -171 -267 -189c-27.333 -5.33301 -58 -8 -92 -8c-146 0 -247 47.667 -303 143c-26 42.667 -39 92.667 -39 150v827h170v-760c0 -95.333 40.333 -159.333 121 -192c28.667 -12.667 62 -19 100 -19c116 0 200 53.333 252 160
c27.333 57.333 41 125 41 203v608h170v-1073z" />
    <glyph glyph-name="Uring" unicode="&#x16e;" horiz-adv-x="1478" 
d="M1130 1493l191 -0.000976562v-1049c0 -177.333 -71 -310.333 -213 -399c-98 -61.333 -219 -92 -363 -92c-224.667 0 -387 69 -487 207c-54.667 77.333 -82.667 172 -84 284v1049h191v-1049c0 -107.333 36 -189 108 -245c72.667 -52 163.334 -78 272.001 -78
c168 0 283 54 345 162c25.333 44.667 38.666 98.334 39.999 161.001v1049zM748 1952c68 0 119.667 -29.335 155 -88.002v0c16.667 -27.333 25 -58 25 -92c0 -67.333 -29.333 -118.666 -88 -153.999c-28.667 -16.667 -59.334 -25 -92.001 -25c-66 0 -117.333 28.667 -154 86
c-18 28.667 -27 60.334 -27 95.001c0 64 28.667 114.333 86 151c28.667 18 60.334 27 95.001 27zM748 1862c-40 0 -67.999 -18.667 -83.999 -56l-7 -32c0 -40 18.667 -67.333 56 -82l35 -9c39.333 0 67 18.667 83 56l7 33c0 42 -19.333 69.667 -58 83
c-10.667 4.66699 -21.334 7 -32.001 7z" />
    <glyph glyph-name="uring" unicode="&#x16f;" 
d="M987 0h-153v150c-76.667 -108 -165.667 -171 -267 -189c-27.333 -5.33301 -58 -8 -92 -8c-146 0 -247 47.667 -303 143c-26 42.667 -39 92.667 -39 150v827h170v-760c0 -95.333 40.333 -159.333 121 -192c28.667 -12.667 62 -19 100 -19c116 0 200 53.333 252 160
c27.333 57.333 41 125 41 203v608h170v-1073zM559 1544c68.667 0 120.668 -29.333 156.001 -88v0c16 -27.333 24 -58 24 -92c0 -66.667 -29.333 -118 -88 -154c-28.667 -16 -59.334 -24 -92.001 -24c-65.333 0 -116.333 28.667 -153 86c-18 28.667 -27 60 -27 94
c0 64 28.667 114.667 86 152c28.667 17.333 60 26 94 26zM559.001 1454c-39.333 0 -67.333 -18.333 -84 -55l-6 -33c0 -39.333 18.333 -67.333 55 -84l35 -6c39.333 0 67.333 18.333 84 55l6 33c0 42 -19 70 -57 84c-11.333 4 -22.333 6 -33 6z" />
    <glyph glyph-name="Uhungarumlaut" unicode="&#x170;" horiz-adv-x="1478" 
d="M1130 1493l191 -0.000976562v-1049c0 -177.333 -71 -310.333 -213 -399c-98 -61.333 -219 -92 -363 -92c-224.667 0 -387 69 -487 207c-54.667 77.333 -82.667 172 -84 284v1049h191v-1049c0 -107.333 36 -189 108 -245c72.667 -52 163.334 -78 272.001 -78
c168 0 283 54 345 162c25.333 44.667 38.666 98.334 39.999 161.001v1049zM674 1923h231l-305 -307h-123zM1030 1923h232l-306 -307h-122z" />
    <glyph glyph-name="uhungarumlaut" unicode="&#x171;" 
d="M987 0h-153v150c-76.667 -108 -165.667 -171 -267 -189c-27.333 -5.33301 -58 -8 -92 -8c-146 0 -247 47.667 -303 143c-26 42.667 -39 92.667 -39 150v827h170v-760c0 -95.333 40.333 -159.333 121 -192c28.667 -12.667 62 -19 100 -19c116 0 200 53.333 252 160
c27.333 57.333 41 125 41 203v608h170v-1073zM498 1516h231l-305 -308h-123zM854 1516h231l-305 -308h-123z" />
    <glyph glyph-name="Uogonek" unicode="&#x172;" horiz-adv-x="1478" 
d="M1233 -307l0.000976562 -92.0029l-62 -11l-92 -10c-26 0 -54.667 3.33301 -86 10c-18.667 4.66699 -37.667 10.334 -57 17.001c-84.667 32.667 -127.667 87.334 -129 164.001c0 64 30.667 120.667 92 170c16.667 12 35.667 25 57 39
c-54.667 -12.667 -97.667 -20.334 -129 -23.001c-22.667 -2.66699 -48.334 -4 -77.001 -4c-229.333 0 -394 69.667 -494 209c-54.667 78 -82 172 -82 282v1049h191v-1049c0 -107.333 36 -189 108 -245c72.667 -52 163.334 -78 272.001 -78c168 0 283 54 345 162
c25.333 44.667 38.666 98.334 39.999 161.001v1049h191v-1049c0 -114.667 -34 -217.667 -102 -309l-19 -22c-1.33301 -2.66699 -3.33301 -5.66699 -6 -9c-10.667 -12 -29 -31 -55 -57v0l-2 -2v0l-2 -2l-45 -43c-88 -83.333 -132.667 -155.666 -134 -216.999
c0 -74 49.333 -111 148 -111c50.667 0 93.667 7 129 21z" />
    <glyph glyph-name="uogonek" unicode="&#x173;" 
d="M987 1073l-0.000976562 -1073c-80.667 -45.333 -131 -103.333 -151 -174l-7 -47c0 -54.667 31 -89 93 -103c13.333 -2.66699 28.333 -4 45 -4l28 2c15.333 1.33301 31 5 47 11h2l23 8v-92l-27 -7l-61 -12h-18c-131.333 0 -217.666 37 -258.999 111
c-13.333 23.333 -20 50 -20 80c0 83.333 62.667 157.666 188 222.999c2.66699 1.33301 5.66699 2.66602 9 3.99902h-45v150c-76.667 -108 -165.667 -171 -267 -189c-27.333 -5.33301 -58 -8 -92 -8c-146 0 -247 47.667 -303 143c-26 42.667 -39 92.667 -39 150v827h170v-760
c0 -95.333 40.333 -159.333 121 -192c28.667 -12.667 62 -19 100 -19c116 0 200 53.333 252 160c27.333 57.333 41 125 41 203v608h170z" />
    <glyph glyph-name="Wcircumflex" unicode="&#x174;" horiz-adv-x="1933" 
d="M877 1883h194l197 -308h-129l-166 197l-162 -197h-131zM1524 0h-209l-344 1227l-334 -1227h-209l-383 1493h213l281 -1212l331 1212h205l340 -1212l275 1212h213z" />
    <glyph glyph-name="wcircumflex" unicode="&#x175;" horiz-adv-x="1478" 
d="M633 1463h194l197 -308h-129l-166 197l-162 -197h-131zM1135 0h-195l-217 842l-207 -842h-192l-312 1073h189l219 -835l205 835h209l210 -835l213 835h193z" />
    <glyph glyph-name="Ycircumflex" unicode="&#x176;" horiz-adv-x="1366" 
d="M592 1883h194l197 -308h-129l-166 197l-162 -197h-131zM793 586v-586h-191v586l-575 907h235l438 -727l426 727h228z" />
    <glyph glyph-name="ycircumflex" unicode="&#x177;" horiz-adv-x="1024" 
d="M412 1463h194l197 -308h-129l-166 197l-162 -197h-131zM795 1073l183.999 0.000976562l-477 -1298l-8 -19v-2c-27.333 -66.667 -63.666 -116.334 -108.999 -149.001c-35.333 -26 -76.333 -42.333 -123 -49c-12 -1.33301 -24.333 -2 -37 -2c-42 0 -80 8.66699 -114 26v154
c36.667 -8.66699 66.667 -13 90 -13c61.333 0 104.333 27.333 129 82l8 23l65 170l-362 1077h182l275 -835z" />
    <glyph glyph-name="Ydieresis" unicode="&#x178;" horiz-adv-x="1366" 
d="M793 586v-586h-191v586l-575 907h235l438 -727l426 727h228zM639 1872v-211h-213v211h213zM971 1872v-211h-213v211h213z" />
    <glyph glyph-name="Zacute" unicode="&#x179;" horiz-adv-x="1251" 
d="M1190 1493v-172l-893 -1153h897v-168h-1137v168l897 1157h-839v168h1075zM711 1923h231l-305 -303h-123z" />
    <glyph glyph-name="zacute" unicode="&#x17a;" horiz-adv-x="1024" 
d="M907 1073v-151l-637 -772h666v-150h-873v154l642 770h-599v149h801zM569 1516h232l-305 -304h-123z" />
    <glyph glyph-name="Zdotaccent" unicode="&#x17b;" horiz-adv-x="1251" 
d="M1190 1493v-172l-893 -1153h897v-168h-1137v168l897 1157h-839v168h1075zM760 1874v-213h-213v213h213z" />
    <glyph glyph-name="zdotaccent" unicode="&#x17c;" horiz-adv-x="1024" 
d="M907 1073v-151l-637 -772h666v-150h-873v154l642 770h-599v149h801zM621 1466v-213h-213v213h213z" />
    <glyph glyph-name="Zcaron" unicode="&#x17d;" horiz-adv-x="1251" 
d="M1190 1493v-172l-893 -1153h897v-168h-1137v168l897 1157h-839v168h1075zM750 1618h-195l-197 307h129l166 -196l162 196h131z" />
    <glyph glyph-name="zcaron" unicode="&#x17e;" horiz-adv-x="1024" 
d="M907 1073v-151l-637 -772h666v-150h-873v154l642 770h-599v149h801zM610 1210h-194l-197 308h129l166 -197l162 197h131z" />
    <glyph glyph-name="longs" unicode="&#x17f;" horiz-adv-x="569" 
d="M350 0l-170 -0.000976562v934h-143v139h143v182c0 120.667 50.667 197.334 152 230.001c30 9.33301 63.333 14 100 14l41 -2l55 -8v-141l-51 2h-8c-78 0 -117.667 -36.333 -119 -109v-1241z" />
    <glyph glyph-name="uni0964" unicode="&#x964;" horiz-adv-x="914" 
d="M590 -21l-51 40l2 1105l123 -64v-1123z" />
    <glyph glyph-name="uni0965" unicode="&#x965;" horiz-adv-x="942" 
d="M499 -36l-50.002 38.001l-27 44l-7 45c-1.33301 13.333 -2.33301 27 -3 41l-3 42c-0.666992 13.333 -1 28.333 -1 45v641c-0.666992 6.66699 -1.5 20.667 -2.5 42s-2 44.5 -3 69.5s-3 48.5 -6 70.5s-6.83301 36.667 -11.5 44l-25 67l77 -34
c0.666992 -0.666992 2.83398 -2.33398 6.50098 -5.00098s7.5 -5.66699 11.5 -9l11 -7c4 -2.66699 6.33301 -4 7 -4l29 -28c8.66699 -10 14.334 -17.5 17.001 -22.5s5 -13.833 7 -26.5l6 -49v-814l3 -54c2 -18 3 -30.333 3 -37c0 -5.33301 0.166992 -10 0.5 -14
s1 -9.5 2 -16.5s3.5 -20.5 7.5 -40.5l22 -57zM744.998 -35.999l-50.002 38.001l-27 44l-6 45c-2 13.333 -3.33301 27 -4 41l-3 42c-0.666992 13.333 -1 28.333 -1 45v641c-0.666992 6.66699 -1.5 20.667 -2.5 42s-2 44.5 -3 69.5s-3 48.5 -6 70.5s-6.83301 36.667 -11.5 44
l-25 67l77 -34c0.666992 -0.666992 2.83398 -2.33398 6.50098 -5.00098s7.5 -5.66699 11.5 -9l12 -7c3.33301 -2.66699 5.33301 -4 6 -4l29 -28c8.66699 -10 14.334 -17.5 17.001 -22.5s5 -13.833 7 -26.5l6 -49v-814l3 -54c2 -18 3 -30.333 3 -37
c0 -5.33301 0.166992 -10 0.5 -14s1 -9.5 2 -16.5s3.5 -20.5 7.5 -40.5l22 -57z" />
    <glyph glyph-name="bn_chandrabindu" unicode="&#x981;" horiz-adv-x="2" 
d="M-472 1837c12 19.333 31.668 28.999 59.001 28.999c20 0 38 -6.5 54 -19.5s24 -29.5 24 -49.5c0 -6 -0.333008 -10.833 -1 -14.5s-2 -7.5 -4 -11.5c0 -16 -6.33301 -31.167 -19 -45.5s-29 -24.166 -49 -29.499c-38.667 -4.66699 -68.334 12 -89.001 50l-5 27l8 34z
M-166.999 1743c0 -73.333 -22.999 -138.001 -68.999 -194.001c-46.667 -54 -103.167 -81 -169.5 -81s-128.833 26 -187.5 78c-40 37.333 -77.667 91.333 -113 162l-24 65c-2 11.333 -5 21.833 -9 31.5s-9.33301 19.5 -16 29.5l30 3c18 0 31.333 -2.33301 40 -7l49 -99
c12 -17.333 24.833 -32.666 38.5 -45.999s27.5 -25 41.5 -35l77 -38l61 -9l40 7c19.333 3.33301 38.166 11 56.499 23s35.5 29 51.5 51l54 128c6.66699 0 11.667 -0.5 15 -1.5s7 -2.16699 11 -3.5l18 -17z" />
    <glyph glyph-name="bn_anusvar" unicode="&#x982;" horiz-adv-x="739" 
d="M546 723c-20 -20.667 -43.8311 -38.334 -71.498 -53.001s-56.167 -22 -85.5 -22c-66.667 0 -130 32.667 -190 98c-56 70.667 -84 143.334 -84 218.001c0 36 6.16699 69 18.5 99s33.5 56.667 63.5 80c50 40.667 103 61 159 61c71.333 0 133 -28.333 185 -85
c27.333 -28 47.666 -59 60.999 -93s20 -70 20 -108c0 -18.667 -1.66699 -36.167 -5 -52.5s-8.33301 -32.5 -15 -48.5c-4.66699 -15.333 -11.834 -30.833 -21.501 -46.5s-21.167 -31.5 -34.5 -47.5zM696.002 -100l-199.001 164l-126 96c-40.667 32 -78.667 60.333 -114 85
s-67.666 45.667 -96.999 63v277l130 -113l52 -44l101 -98c13.333 -14 40 -43.667 80 -89l160 -186l157 -190v-105zM420.001 819c17.333 12 32.001 23.502 44.001 34.502s21.667 21.667 29 32s13 20.666 17 30.999s6.66699 21.166 8 32.499c0 12 -4.16699 23.167 -12.5 33.5
s-19.5 19.333 -33.5 27s-29.333 13.5 -46 17.5s-33.334 6 -50.001 6c-47.333 0 -82 -10.333 -104 -31c-40.667 -38 -61 -89 -61 -153c0 -60.667 24 -91 72 -91c16.667 0 36.667 5 60 15s49 25.333 77 46z" />
    <glyph glyph-name="bn_bisarga" unicode="&#x983;" horiz-adv-x="769" 
d="M629 733c-14 -14 -27.167 -25.6689 -39.5 -35.002s-25.166 -17.333 -38.499 -24l-40 -14l-44 -5c-70 0 -133.333 32 -190 96c-28 33.333 -49.167 67.833 -63.5 103.5s-21.5 73.834 -21.5 114.501c0 12.667 0.166992 23.334 0.5 32.001s1.16602 16.667 2.49902 24
s3.33301 14.833 6 22.5s7 17.5 13 29.5s15 24.167 27 36.5s26 25.5 42 39.5c56 41.333 111.667 62 167 62c68.667 0 130 -28 184 -84c54 -54 81 -118 81 -192c0 -75.333 -28.667 -144 -86 -206zM619 14.998c-9.33301 -11.333 -20.165 -21.3271 -32.498 -29.9941
s-25.833 -17.334 -40.5 -26.001c-12.667 -4.66699 -25.834 -8.83398 -39.501 -12.501s-28.5 -6.83398 -44.5 -9.50098c-33.333 0 -65.333 8 -96 24s-60.334 41 -89.001 75c-53.333 65.333 -80 138 -80 218c0 40.667 6.83301 77.167 20.5 109.5s37.834 61.5 72.501 87.5
c49.333 39.333 103.333 59 162 59c68 0 127.667 -28 179 -84s77 -121 77 -195c0 -14 -0.166992 -25.833 -0.5 -35.5s-1.33301 -18.334 -3 -26.001s-3.66699 -15.167 -6 -22.5s-5.83301 -16 -10.5 -26c-6.66699 -16.667 -15.834 -33.834 -27.501 -51.501
s-25.5 -35.834 -41.5 -54.501zM506.001 819.004c67.333 48 101.002 92.334 101.002 133.001c0 14.667 -4.16699 27.667 -12.5 39s-19.5 21 -33.5 29s-30 14.167 -48 18.5s-36.667 6.5 -56 6.5c-42 0 -73 -9 -93 -27c-44 -34 -66 -86.333 -66 -157
c0 -28 5.16699 -49.833 15.5 -65.5s30.166 -25.834 59.499 -30.501c18.667 0 39.167 4.5 61.5 13.5s46.166 22.5 71.499 40.5zM516.003 97.0049c28 23.333 48.999 46.3281 62.999 68.9951s23.333 46.334 28 71.001c0 16.667 -5.33301 32.334 -16 47.001s-24.5 27 -41.5 37
s-35.833 17.667 -56.5 23s-41 8 -61 8c-14.667 0 -28.5 -1.66699 -41.5 -5s-25.167 -9 -36.5 -17c-12 -12 -25.333 -34 -40 -66c-9.33301 -29.333 -14 -60 -14 -92c0 -17.333 2 -34.166 6 -50.499s9.66699 -30.666 17 -42.999s16.5 -22.166 27.5 -29.499
s23.833 -11 38.5 -11c11.333 0 21.333 1 30 3s17.334 5 26.001 9z" />
    <glyph glyph-name="bn_a" unicode="&#x985;" horiz-adv-x="1460" 
d="M1285 1148l-0.00292969 -1255l-47 61l-14 40l-12 42l-20 73l-22 47l-66 110l-55 84c-7.33301 9.33301 -16.333 19.666 -27 30.999s-23.667 23 -39 35c-14.667 -25.333 -33 -49.5 -55 -72.5s-46.167 -43 -72.5 -60s-54.666 -30.833 -84.999 -41.5s-61.166 -16 -92.499 -16
l-54 3c-12.667 0 -31.334 6 -56.001 18c-68 24.667 -123.667 52.334 -167 83.001c-18.667 16 -43.167 42.333 -73.5 79s-65.833 84.334 -106.5 143.001c-16 22.667 -33.833 56 -53.5 100s-41.167 99 -64.5 165s-41.666 121.333 -54.999 166s-23 78.334 -29 101.001l77 -31
l86 -234c5.33301 -15.333 12.333 -32 21 -50s19.667 -37.333 33 -58l54 -77c38.667 -38 74.834 -69.833 108.501 -95.5s64.834 -46.167 93.501 -61.5c59.333 -25.333 123 -38 191 -38c35.333 0 66 5 92 15s47.333 24 64 42s29.167 39.167 37.5 63.5s12.5 50.833 12.5 79.5
c0 30.667 -3.33301 60.167 -10 88.5s-15.834 53.5 -27.501 75.5s-24.834 39.667 -39.501 53s-30.667 20 -48 20c-10 0 -24.667 -12.667 -44 -38c-40 -56.667 -76 -85 -108 -85c-60 0 -106.667 11.333 -140 34c-46 27.333 -69 67 -69 119c0 22 9.66699 58 29 108
c4.66699 12 12.5 22.167 23.5 30.5s23 15 36 20s27.333 8.83301 43 11.5s30.834 4 45.501 4c96.667 0 184 -29.667 262 -89l35 -36l45 -52c33.333 -40 58 -88 74 -144s24 -113 24 -171l143 -248v808h-1163l-122 124h1560l124 -124h-277z" />
    <glyph glyph-name="bn_aa" unicode="&#x986;" horiz-adv-x="1904" 
d="M1325 1148h-40.001v-1255l-47 61l-14 40l-12 42l-20 73l-22 47l-66 110l-55 84c-7.33301 9.33301 -16.333 19.666 -27 30.999s-23.667 23 -39 35c-14.667 -25.333 -33 -49.5 -55 -72.5s-46.167 -43 -72.5 -60s-54.666 -30.833 -84.999 -41.5s-61.166 -16 -92.499 -16
l-54 3c-12.667 0 -31.334 6 -56.001 18c-36 12 -67.667 24.833 -95 38.5s-51.333 28.5 -72 44.5c-38.667 30.667 -98.667 104.667 -180 222c-16 22.667 -33.833 56.334 -53.5 101.001s-41.167 101 -64.5 169l-56 166c-14.667 43.333 -24 75.333 -28 96l77 -31l86 -234
c5.33301 -15.333 12.333 -32 21 -50s19.667 -37.333 33 -58l54 -77c39.333 -38 75.666 -70.167 108.999 -96.5s64.333 -46.5 93 -60.5c54.667 -25.333 118.334 -38 191.001 -38c35.333 0 66 5 92 15s47.333 24 64 42s29.167 39.167 37.5 63.5s12.5 50.833 12.5 79.5
c0 30.667 -3.33301 60.167 -10 88.5s-15.834 53.5 -27.501 75.5s-24.834 39.667 -39.501 53s-30.667 20 -48 20c-10 0 -24.667 -12.667 -44 -38c-40 -56.667 -76 -85 -108 -85c-57.333 0 -104 11.333 -140 34c-46 27.333 -69 67 -69 119c0 24.667 9.66699 60.667 29 108
c4.66699 12 12.5 22.167 23.5 30.5s23 15 36 20s27.333 8.83301 43 11.5s30.834 4 45.501 4c98.667 0 186 -29.667 262 -89l35 -36l45 -52c33.333 -40.667 58 -87.667 74 -141s24 -111.333 24 -174l143 -248v808h-1163l-122 124h1323h37l72 -3l88 -7
c84 -10.667 145.667 -63 185 -157l21 -47l21 -52l14 -51l-39 279l-10 148v54c0 12 -0.333008 22.833 -1 32.5s-2 17.5 -4 23.5l49 -39l10 -64l10 -39l13 -27l26 -35l15 -16h150l122 -124h-272v-1288l-118 126v838v42v42c0 12 -0.333008 22.167 -1 30.5s-2 14.5 -4 18.5
c-2 18.667 -5.66699 34.5 -11 47.5s-12.333 24.167 -21 33.5l-59 61c-11.333 10 -24.166 18.667 -38.499 26s-29.833 13.333 -46.5 18z" />
    <glyph glyph-name="bn_i" unicode="&#x987;" horiz-adv-x="1153" 
d="M530 1148l23 -56.0039l31 -29l54 -23l47 -12c68 -19.333 126.333 -66 175 -140c49.333 -70.667 74 -142 74 -214l-3 -24c0 -32.667 -7.33301 -65.667 -22 -99s-36.834 -65.166 -66.501 -95.499s-66.167 -58.333 -109.5 -84s-93.666 -46.834 -150.999 -63.501l47 -42
c65.333 -39.333 121.833 -76.166 169.5 -110.499s86.167 -65.5 115.5 -93.5l188 -172l38 -166c-60 68 -127.167 130.667 -201.5 188s-155.166 111.333 -242.499 162c-50.667 28.667 -95.334 52.5 -134.001 71.5s-72 33.833 -100 44.5
c-27.333 11.333 -62.333 23.666 -105 36.999s-93.667 28 -153 44l-148 307c25.333 -14.667 52 -28.167 80 -40.5s58 -23.166 90 -32.499l91 -18l91 -7c28 0 52.333 1.33301 73 4s38 7.33398 52 14.001l114 44c11.333 7.33301 26.5 19.333 45.5 36s42.167 39 69.5 67
c12.667 18 19 40 19 66c0 16 -1.83301 32.5 -5.5 49.5s-9.83398 33.5 -18.501 49.5c-16 36.667 -40 61 -72 73c-30 15.333 -55 23 -75 23c-9.33301 0 -18.5 -0.833008 -27.5 -2.5s-17.833 -4.5 -26.5 -8.5c0 -46 -14 -85.333 -42 -118l-59 -59
c-40.667 -30.667 -85 -46 -133 -46c-14.667 0 -30 1.66699 -46 5s-32 9 -48 17c-23.333 14.667 -38.666 40 -45.999 76c-8 28.667 2.66699 66.334 32 113.001l30 42l44 51c7.33301 6.66699 21.166 14.834 41.499 24.501s47.166 20.5 80.499 32.5
c27.333 7.33301 42.333 14 45 20c5.33301 10.667 -5.66699 29.667 -33 57l-44 38h-378l-120 124h805l25 4l57 3c27.333 4.66699 51.666 23.334 72.999 56.001l11 25c0 18 -24 36 -72 54c-23.333 9.33301 -46.666 15.666 -69.999 18.999s-45.666 5 -66.999 5l-103 -2h-75
l-61 -10c-13.333 0 -24.166 -0.333008 -32.499 -1s-14.5 -1.66699 -18.5 -3h-35c-52.667 0 -105 7.33301 -157 22s-97.333 40 -136 76c-11.333 9.33301 -22 20.833 -32 34.5s-18.833 28.334 -26.5 44.001s-13.667 31.5 -18 47.5s-6.5 31.333 -6.5 46c0 16 1 29.5 3 40.5
s5 20.167 9 27.5c4.66699 17.333 14 33.666 28 48.999l17 7l37 6h19l14 -3c-38.667 -24.667 -58 -59 -58 -103l7 -52c2 -10.667 24.333 -26.667 67 -48l78 -25l35 -3l174 15l219 7c85.333 0 151.333 -16.333 198 -49c44 -24 79.333 -56.333 106 -97
c32.667 -47.333 49 -101 49 -161l-2 -31h180l123 -124h-714z" />
    <glyph glyph-name="bn_ii" unicode="&#x988;" horiz-adv-x="1261" 
d="M1320 1148l-912.002 -0.00195312c-1.33301 -1.33301 -2 -3 -2 -5l-3 -2c-4.66699 -6.66699 -8.66699 -16.334 -12 -29.001l7 -44l10 -18l32 -10c16 0 38 -7.33301 66 -22c31.333 -10.667 59.333 -31 84 -61c24 -28 41.5 -50.5 52.5 -67.5s18.5 -33 22.5 -48
s5.5 -30.333 4.5 -46s0.166992 -34.167 3.5 -55.5l61 77l28 29l44 37l106 81c28 19.333 60.667 36.666 98 51.999l202 -133l-124 -125c-8 -8 -16.5 -19.333 -25.5 -34l-30.5 -52l-66 -143l-30 -101l-14 -94l-5 -82c0 -50 3.16699 -92.5 9.5 -127.5s19.5 -73.833 39.5 -116.5
l22 -49l42 -73l-104 46l-56 170l-28 112c-9.33301 59.333 -14 118 -14 176c0 68.667 8.66699 132.834 26 192.501s42.333 126.167 75 199.5c-3.33301 -8 -23 -33.333 -59 -76l-145 -168c-54 -73.333 -100 -128.666 -138 -165.999
c-63.333 -59.333 -128.666 -99.333 -195.999 -120c-74 0 -135.667 35 -185 105c-6 6.66699 -18.333 34.667 -37 84c-3.33301 10 -5.66602 19.667 -6.99902 29l-5 35l5 19l49 44c20 -90 53.667 -135 101 -135l44 11c22 4.66699 45.667 17.334 71 38.001l106 112l39 54l12 73
c0 90 -25 141.667 -75 155l-45 9c-12.667 0 -29.667 -8 -51 -24c3.33301 -42 -6.5 -79.833 -29.5 -113.5s-57.5 -50.5 -103.5 -50.5c-44 0 -82.5 15.333 -115.5 46s-49.5 68.334 -49.5 113.001c0 22.667 5.33301 45.667 16 69l26 49l54 42
c26.667 16 46.334 25.667 59.001 29l35 8l-57 95h-258l-123 124h1031c42 12.667 63 43 63 91c0 19.333 -14.333 34 -43 44s-60.334 15 -95.001 15l-68 -3l-99 -13l-86 -5l-101 -2h-47l-49 -5h-61c-16 0 -29 1.16699 -39 3.5s-25 7.16602 -45 14.499
c-20.667 8 -42.667 21 -66 39s-39.666 31.667 -48.999 41l-34 40c-10 12.667 -18.333 26.667 -25 42l-17 83c0 43.333 10.333 80 31 110l45 35l42 -49c-8 -11.333 -15.5 -23.666 -22.5 -36.999s-11.167 -28 -12.5 -44l7 -34l23 -33c9.33301 -9.33301 26.666 -19 51.999 -29
l75 -9l106 7l126 10l89 2h26l47 5c21.333 0 42.166 -0.833008 62.499 -2.5s39.5 -4.83398 57.5 -9.50098c36.667 -3.33301 73.334 -14.833 110.001 -34.5s60.667 -37.167 72 -52.5c10 -9.33301 19.5 -20.666 28.5 -33.999s17.5 -28 25.5 -44l19 -54l9 -60l-3 -28h144z" />
    <glyph glyph-name="bn_u" unicode="&#x989;" horiz-adv-x="1264" 
d="M607 1148l-0.00195312 -363.996l17 -63l30 -24l31 -11c24 0 62 37.333 114 112c51.333 74.667 93.666 112 126.999 112l33 -7c11.333 -5.33301 22.333 -11.666 33 -18.999s20.667 -16.666 30 -27.999l54 -84c20 -34 37.333 -70.167 52 -108.5s22 -81.5 22 -129.5
c0 -32 -3 -65.833 -9 -101.5s-16 -73.834 -30 -114.501c-25.333 -81.333 -71.333 -145.333 -138 -192c-33.333 -23.333 -71.166 -41 -113.499 -53s-89.5 -18 -141.5 -18h-35l-22 2c-113.333 0 -211.666 47.667 -294.999 143c-12 13.333 -30 39.666 -54 78.999l-89 156
l-24 65l-44 120c-6.66699 23.333 -14.167 57.166 -22.5 101.499s-18.166 100.5 -29.499 168.5l-21 185l73 -40c0 -32 3 -66.833 9 -104.5s15.333 -77.834 28 -120.501l59 -162c12 -36 26.5 -68.833 43.5 -98.5s36.167 -56.834 57.5 -81.501l91 -111
c28.667 -30 77.667 -56.333 147 -79c34 -9.33301 69.333 -14 106 -14c69.333 0 130 14.333 182 43s91 65.667 117 111l37 69l17 60l3 26c0 10 -1.33301 21.667 -4 35s-6.66699 27.5 -12 42.5s-12 29.667 -20 44s-16.667 26.166 -26 35.499
c-4.66699 -21.333 -34.667 -59.666 -90 -114.999l-55 -48l-48 -36c-58 -31.333 -106.333 -47 -145 -47c-23.333 0 -44.166 3.66699 -62.499 11s-34.5 17.666 -48.5 30.999c-25.333 28 -41.666 67.667 -48.999 119l-5 39v88v376h-504l-119 124h959l96 39l30 24
c0 12 -4.83301 24.167 -14.5 36.5s-22.834 23.5 -39.501 33.5s-37 18 -61 24s-50.333 9 -79 9l-103 -2h-75l-61 -10c-13.333 0 -24.333 -0.333008 -33 -1s-15 -1.66699 -19 -3h-34c-53.333 0 -105.666 7.33301 -156.999 22s-96.333 40 -135 76
c-32 25.333 -54.333 53.666 -67 84.999l-15 42l-4 49c0 18 2.16699 35.333 6.5 52s9.66602 31.667 15.999 45s12.833 23.833 19.5 31.5s13 10.834 19 9.50098l56 -25c-12.667 -9.33301 -23.667 -20.333 -33 -33l-16 -50c0 -46 26.333 -82.667 79 -110
c34 -15.333 63.667 -23 89 -23l98 3l125 4l96 5l96 5c31.333 0 65.666 -4.66699 102.999 -14c40 -7.33301 72 -19 96 -35c69.333 -34 116 -87.333 140 -160l13 -56l2 -73h160l122 -124h-732z" />
    <glyph glyph-name="bn_uu" unicode="&#x98a;" horiz-adv-x="1379" 
d="M762 1148l-0.00683594 -338.004v-104c0 -34 6.33301 -51 19 -51c44 9.33301 86 33 126 71c26 20.667 49.333 42.334 70 65.001s39 47 55 73l52 61c12 0 24.333 -6.33301 37 -19c24.667 -22.667 46.167 -45 64.5 -67s34.5 -43.333 48.5 -64
c22.667 -39.333 39.667 -79.166 51 -119.499s17 -80.833 17 -121.5c0 -32 -3 -65.333 -9 -100s-15.667 -71 -29 -109c-25.333 -72 -82.333 -139.333 -171 -202c-84.667 -58 -179.334 -87 -284.001 -87c-26.667 0 -55 3.33301 -85 10s-60.333 16.667 -91 30
s-61.667 29.333 -93 48s-61.333 40 -90 64c-68.667 53.333 -133.334 140 -194.001 260c-21.333 42 -43.166 92.333 -65.499 151s-45.166 125.667 -68.499 201l-19 92l-9 112l2 31h14l50 -49l14 -64l28 -120l21 -76l52 -138c8.66699 -21.333 19 -41.666 31 -60.999
s24.667 -38.333 38 -57c42.667 -64.667 76.334 -108.667 101.001 -132l83 -70c-16 18.667 -32 40.334 -48 65.001s-32 53 -48 85l-71 167l-30 91l-21 122l-22 174v30c0 6 -0.333008 12 -1 18s-2 13.333 -4 22l71 -51c0 -60 7.33301 -120.333 22 -181l37 -119l9 -36l23 -52
l17 -44l25 -40l34 -59l39 -54l76 -79c13.333 -9.33301 28 -18.166 44 -26.499s33.333 -16.5 52 -24.5l52 -12l54 -5c26 0 52.5 3.16699 79.5 9.5s53 15.333 78 27s49 25.5 72 41.5s43.167 33.667 60.5 53l44 56c6.66699 9.33301 12.334 21.5 17.001 36.5l16 51.5l2 34
c0 14 -1.16699 26.5 -3.5 37.5s-5.5 22.167 -9.5 33.5l-47 87c-4.66699 -22 -37.334 -60.667 -98.001 -116c-35.333 -30 -63.833 -52.833 -85.5 -68.5s-40 -27.334 -55 -35.001s-28.5 -12.334 -40.5 -14.001s-26 -3.5 -42 -5.5c-44 0 -83.333 14.667 -118 44
c-29.333 30 -46.666 59.667 -51.999 89l-14 84l-6 96v348h-636l-122 124h1039h56c34.667 0 54.334 5.33301 59.001 16l5 38c0 29.333 -18 52 -54 68c-18 7.33301 -30.333 12 -37 14c-11.333 4 -22.666 6.83301 -33.999 8.5s-23.666 2.5 -36.999 2.5l-84 3l-81 -8l-108 -13
l-115 -5c-70 -0.666992 -134.333 2 -193 8s-110.334 15.667 -155.001 29s-82 30.333 -112 51s-51.333 46.334 -64 77.001l-19 47c-2.66699 6 -5 14.667 -7 26s-3.66699 25 -5 41c0 29.333 7 63 21 101l28 33l31 -26l28 -37l7 -15c-11.333 -17.333 -19.666 -32 -24.999 -44
s-8 -22 -8 -30c0 -4.66699 0.833008 -10.667 2.5 -18s5.33398 -14.833 11.001 -22.5s14.167 -15.5 25.5 -23.5s26.333 -15 45 -21l54 -11l74 -3h96l76 11l238 22c51.333 0 109 -5 173 -15c64.667 -6.66699 115.334 -19.667 152.001 -39c38 -14 75.667 -49.333 113 -106
c37.333 -52 56 -105 56 -159l35 -3h52h61l47 3l120 -124h-683z" />
    <glyph glyph-name="bn_ri" unicode="&#x98b;" horiz-adv-x="1487" 
d="M1250 1148l0.00195312 -992.001l-38 46c0 14 -10 43 -30 87l-42 98c-12 26 -24.833 48.333 -38.5 67s-28.5 34.667 -44.5 48c-12.667 12 -29.334 24.833 -50.001 38.5s-46 27.834 -76 42.501v-592l-42 45l-43 122l-58 103c-13.333 20 -27.833 39.167 -43.5 57.5
s-32.5 36.833 -50.5 55.5c-6.66699 4 -12.667 8.33301 -18 13l-17 15l-40 26c-12.667 9.33301 -26.667 18.666 -42 27.999c-8 4.66699 -17.667 9.66699 -29 15l-34 19c-12 6 -24 11.5 -36 16.5s-23 9.16699 -33 12.5l-143 33l-128 183l131 99l75 49l210 113l142 72
c-8.66699 10.667 -19 21.834 -31 33.501s-26 23.167 -42 34.5c-3.33301 2.66699 -8.16602 5.66699 -14.499 9s-13.5 6.83301 -21.5 10.5s-16.5 6.66699 -25.5 9s-17.5 3.5 -25.5 3.5c-4.66699 -10.667 -16.834 -24 -36.501 -40s-46.5 -35.333 -80.5 -58
c-34.667 -20.667 -65.5 -36 -92.5 -46s-51.167 -15 -72.5 -15c-36 0 -66.667 1.16699 -92 3.5s-45.333 6.83301 -60 13.5c-47.333 16.667 -79.333 55 -96 115l-5 39c0 17.333 3.16699 34.166 9.5 50.499s15.166 30.833 26.499 43.5s24.666 22.834 39.999 30.501
s31.666 11.5 48.999 11.5c34.667 0 63.334 -12.333 86.001 -37c16 -26.667 24 -54.667 24 -84c106.667 9.33301 192 66 256 170c28 -13.333 55.167 -29.5 81.5 -48.5s52.5 -39.833 78.5 -62.5c22 -19.333 43 -42.5 63 -69.5s39.333 -57.167 58 -90.5v424l122 -122v-658
l57 -39l51 -42c18.667 -16 35.334 -33.5 50.001 -52.5s27.667 -39.167 39 -60.5v965l110 -90l8 -147h190l125 -124h-311zM811.002 907.999c-20.667 -4 -39.833 -9.66797 -57.5 -17.001s-33.5 -15.666 -47.5 -24.999l-87 -59l-47 -27l-46 -32l-78 -64l124 -74l72 -58l78 -77
c14 -14.667 27.667 -30.667 41 -48l48 -65v546z" />
    <glyph glyph-name="bn_li" unicode="&#x98c;" horiz-adv-x="1102" 
d="M1022 470l2.99609 -30.9961c0 -52.667 -17.667 -111.834 -53 -177.501s-86.666 -122.167 -153.999 -169.5c-29.333 -20 -62 -37.833 -98 -53.5s-72 -28.667 -108 -39s-70 -18.166 -102 -23.499s-58.667 -8 -80 -8l72 119l44 113l10 78c0 15.333 2 29.5 6 42.5
s3.33301 24.5 -2 34.5c-2.66699 8 -4 15 -4 21v23c0 8 -1.33301 16 -4 24s-8.33398 16.333 -17.001 25l-56 57c-3.33301 3.33301 -14 9 -32 17s-36.667 10.333 -56 7c-7.33301 -2 -18.166 -4.16699 -32.499 -6.5s-29.666 -5.83301 -45.999 -10.5s-31.5 -11.167 -45.5 -19.5
s-24.333 -19.833 -31 -34.5c-8.66699 -20 -13 -38 -13 -54c0 -15.333 7 -27 21 -35l31 3c37.333 0 64.166 -10.333 80.499 -31s24.5 -48 24.5 -82c0 -28 -4.66699 -54.333 -14 -79c-14.667 -38 -46 -57 -94 -57c-22 0 -42 5 -60 15s-37 24 -57 42
c-23.333 21.333 -37.833 45.166 -43.5 71.499s-10.834 55.166 -15.501 86.499l-2 54c6 45.333 14 82 24 110s21.5 50.667 34.5 68s29.5 30.833 49.5 40.5s43.333 18.5 70 26.5c10.667 5.33301 24 9.33301 40 12l46 7c14.667 2.66699 29 4.33398 43 5.00098s26.333 1 37 1
c42.667 0 83.167 -12.833 121.5 -38.5s73.833 -57.167 106.5 -94.5c16 -19.333 27 -38.833 33 -58.5s9.33301 -39.834 10 -60.501s-0.166016 -42 -2.49902 -64s-3.5 -44 -3.5 -66c0 -9.33301 -2.5 -20.166 -7.5 -32.499s-10.333 -24.5 -16 -36.5s-11.667 -23.833 -18 -35.5
s-11.166 -20.834 -14.499 -27.501l157 116c45.333 36 68 84.333 68 145c0 50 -10.5 96.5 -31.5 139.5s-55.5 86.5 -103.5 130.5l-118 108c-24.667 23.333 -50.334 43.666 -77.001 60.999l-75 50l-70 52.5c-22 17 -41 37.167 -57 60.5c-36 50.667 -54 97 -54 139l2 35
c8 32.667 21.667 61.667 41 87c7.33301 6 17.666 13 30.999 21s28.333 15.5 45 22.5s32 12.5 46 16.5s25 6 33 6c14.667 0 31.834 0.333008 51.501 1s35.334 -1 47.001 -5s17.167 -12.167 16.5 -24.5s-14.334 -30.833 -41.001 -55.5c-8 -8 -17.833 -17.333 -29.5 -28
s-21.5 -20.334 -29.5 -29.001c-13.333 -34 -17.5 -59.667 -12.5 -77s9.16699 -30 12.5 -38l40 -56l137 -99c50.667 -37.333 92.834 -72 126.501 -104s67.834 -71.667 102.501 -119l41 -55c12 -18 22.667 -35.5 32 -52.5s17.833 -35.667 25.5 -56
s13.834 -43.833 18.501 -70.5z" />
    <glyph glyph-name="bn_e" unicode="&#x98f;" horiz-adv-x="1426" 
d="M1156 -48c-8 4.66699 -15.667 22.668 -23 54.001c-7.33301 33.333 -15.166 60.833 -23.499 82.5s-18.166 39.334 -29.499 53.001s-24 24.167 -38 31.5s-29.667 14 -47 20c-16 4.66699 -32.667 8.66699 -50 12s-36 5 -56 5l-75 -3l-104 -14l-126 -18l-90 -5
c-44.667 0 -84.167 6.16699 -118.5 18.5s-69.5 30.166 -105.5 53.499c-24.667 16 -46 34.833 -64 56.5s-33.333 45.167 -46 70.5l-42 106c-10 44 -15 91.667 -15 143l3 86l19 78l44 94l37 63l50 -51l-33 -54c-14 -26.667 -21 -45.667 -21 -57l-3 -24l-9 -98l2 -65l14 -66
c10 -28 32 -60 66 -96c23.333 -22.667 63 -41.334 119 -56.001c28 -6.66699 52.167 -11.667 72.5 -15s41.166 -5 62.499 -5l51 5l77 10l91 5c91.333 0 165.666 -14 222.999 -42l123 -99v895c0 13.333 -12 22.333 -36 27l-45 -7l-54 -22c-10.667 -4 -21.667 -9.66699 -33 -17
s-23.333 -15.666 -36 -24.999l-81 -66c-29.333 -23.333 -53.666 -50.5 -72.999 -81.5s-34.333 -71.833 -45 -122.5l64 7l45 -7c10 -2.66699 23.667 -20 41 -52c4 -8.66699 7 -19.667 9 -33l11 -48c0 -20 -3.66699 -38.5 -11 -55.5s-17.666 -32.167 -30.999 -45.5
c-9.33301 -9.33301 -19.5 -17 -30.5 -23s-22.167 -10.333 -33.5 -13l-62 -6c-33.333 0 -62.833 5.83301 -88.5 17.5s-47.334 27 -65.001 46s-30.834 40.5 -39.501 64.5s-13 48.667 -13 74l3 30c8.66699 57.333 25.5 112.333 50.5 165s57.833 103 98.5 151
c27.333 32 67.666 69 120.999 111l157 72l47 14l49 3c14.667 0 30 -3.33301 46 -10s32 -16.667 48 -30l56 -54c18.667 -18.667 32.834 -36.334 42.501 -53.001s14.5 -31.667 14.5 -45v-1197z" />
    <glyph glyph-name="bn_ai" unicode="&#x990;" horiz-adv-x="1487" 
d="M1414 1141c0 -120 -53.666 -213.333 -160.999 -280c-8.66699 -6 -17.834 -15 -27.501 -27s-20.167 -26 -31.5 -42v-899l-56 56l-24 96c-13.333 48 -37.333 84.667 -72 110s-84.667 38 -150 38l-209 -18l-135 -10c-25.333 0 -47.833 1 -67.5 3s-35.167 5 -46.5 9
c-42.667 10.667 -80 22.5 -112 35.5s-59.667 27.5 -83 43.5c-34 23.333 -62 57 -84 101c-16 34 -27.833 70.5 -35.5 109.5s-11.5 81.5 -11.5 127.5c0 56 7.66699 114.667 23 176c2 9.33301 6 22 12 38s14.667 34.667 26 56l40 61l44 -57l-27 -54l-20 -54l-2 -25l-12 -103
c0 -19.333 1 -37.833 3 -55.5s5.83301 -34.834 11.5 -51.501s13.834 -33.167 24.501 -49.5s24.334 -32.833 41.001 -49.5c24 -22.667 67.667 -42.334 131 -59.001l78 -15l70 -2c68 9.33301 126.667 14 176 14c48 0 90.833 -3.5 128.5 -10.5s70.5 -17.5 98.5 -31.5l120 -96
v886c0 12.667 -12.333 21.334 -37 26.001l-45 -7l-43 -17l-39 -22l-35 -27l-27 -23l-49 -49l-32 -31c-18.667 -20.667 -35.334 -44.834 -50.001 -72.501s-28.334 -58.167 -41.001 -91.5l30 4l39 5c34.667 0 63 -18.667 85 -56l16 -37l5 -42
c0 -17.333 -3.66699 -33.5 -11 -48.5s-16.333 -28.667 -27 -41s-22.667 -23.166 -36 -32.499s-26 -16.333 -38 -21l-63 -5c-64 0 -113.667 21.167 -149 63.5s-53 99.833 -53 172.5c0 12 3 29 9 51s14.667 48.333 26 79c24 62.667 56.667 119.334 98 170.001
c8.66699 11.333 21.667 24.666 39 39.999s38.666 32 63.999 50c9.33301 6.66699 20.5 14.167 33.5 22.5l44.5 27.5l33 18l32 19l71 23l73 9l58 -27c20.667 -10 37.167 -19.167 49.5 -27.5s20.833 -15.833 25.5 -22.5c33.333 -36.667 50 -75 50 -115
c0 -38 6.33301 -58.333 19 -61l35 2l39 20c8.66699 4.66699 15.667 10 21 16s10 12 14 18l14 62l-7 63l-11 21c-24 58.667 -110.667 112.667 -260 162l-272 90c-63.333 20.667 -99.333 33 -108 37c-131.333 64.667 -197 150.667 -197 258l2 35l23 54
c16 32.667 40.333 65.334 73 98.001l22 30c3.33301 5.33301 11 7 23 5l66 -72l-40 -17l-34 -17c-25.333 -18 -44 -50 -56 -96c-10.667 -56 125.333 -126.333 408 -211c80 -23.333 146.333 -46.5 199 -69.5s92 -45.167 118 -66.5c48 -38 85.667 -84.667 113 -140
c8.66699 -20.667 15.334 -41.5 20.001 -62.5s7 -42.5 7 -64.5z" />
    <glyph glyph-name="bn_o" unicode="&#x993;" horiz-adv-x="1356" 
d="M902 1218c72 0 131.667 -18.9971 179 -56.9971c48 -32.667 88 -88.667 120 -168c6 -12.667 9 -30.667 9 -54c0 -29.333 -2.33301 -54.166 -7 -74.499s-11.667 -48.5 -21 -84.5c-16 -59.333 -39.667 -104.333 -71 -135c19.333 -24.667 35.333 -47.334 48 -68.001l35 -55
l18 -57c4.66699 -20 7 -43.667 7 -71c0 -48 -9 -96.333 -27 -145c-13.333 -40.667 -40.333 -81.667 -81 -123c-37.333 -33.333 -77 -55.333 -119 -66c-22 -5.33301 -45.833 -9.5 -71.5 -12.5s-53.167 -4.5 -82.5 -4.5c-62 0 -120 13 -174 39
c-34.667 16 -66.667 35.667 -96 59l-134 132c-14 14 -28.833 32.333 -44.5 55s-33.167 49.667 -52.5 81l-35 63l-51 106l-99 246l-91 286l84 -45l31 -101l33 -76c12.667 -34.667 28.167 -70.834 46.5 -108.501s40.5 -76.834 66.5 -117.501l54 -101
c26 -49.333 57 -91.666 93 -126.999s76.333 -69.333 121 -102c21.333 -14.667 44 -28.334 68 -41.001l69 -35c36 -14 77.333 -21 124 -21c65.333 0 121.166 14.5 167.499 43.5s79.5 74.833 99.5 137.5l5 42c0 31.333 -10 59.333 -30 84l-44 34
c-38 -33.333 -75.667 -50 -113 -50c-47.333 5.33301 -82.333 19.166 -105 41.499s-37.667 58.5 -45 108.5c0 26.667 6.66699 51.667 20 75c10 12.667 16.5 21.834 19.5 27.501s14.5 15.167 34.5 28.5c10 10 21.167 16.5 33.5 19.5s24.833 4.5 37.5 4.5l54 -7l45 -19
c58.667 29.333 88 78.333 88 147c0 36 -11.333 67.667 -34 95c-10 14 -23.5 24.167 -40.5 30.5s-42.833 11.833 -77.5 16.5c-45.333 0 -90.666 -8 -135.999 -24c-32.667 -11.333 -56 -22 -70 -32l-94 -64c-20 -14.667 -38 -35 -54 -61c34.667 -20 59 -61.333 73 -124l3 -14
v-12c0 -34.667 -12 -62 -36 -82c-26.667 -16 -56.334 -24 -89.001 -24c-40.667 0 -79 12.333 -115 37c-12 10 -26 29.667 -42 59c-10 26 -15 54.333 -15 85c0 45.333 8 81.333 24 108c51.333 89.333 121 156.666 209 201.999c49.333 23.333 95.333 40.833 138 52.5
s89.334 17.5 140.001 17.5z" />
    <glyph glyph-name="bn_au" unicode="&#x994;" horiz-adv-x="1524" 
d="M1440 1004c0 -73.333 -35.3213 -153.002 -105.988 -239.002l-138 -140c27.333 -46 50 -97 68 -153c4.66699 -16 8.5 -33 11.5 -51s4.5 -36 4.5 -54c0 -52.667 -8.5 -99.667 -25.5 -141s-45.167 -74.666 -84.5 -99.999c-25.333 -16 -50 -30 -74 -42
s-47.667 -21.667 -71 -29c-20.667 -4 -43 -7 -67 -9s-50 -3 -78 -3c-38.667 0 -77.167 6 -115.5 18s-76.833 30.333 -115.5 55c-48 32.667 -104.667 85 -170 157c-14 14 -29.333 32.167 -46 54.5s-34.334 48.5 -53.001 78.5l-87 172l-101 256l-79 265l77 -39l63 -175
c14 -36 30.5 -72.333 49.5 -109s40.167 -74.667 63.5 -114l74 -124l74 -87l88 -82c25.333 -20.667 53.166 -39 83.499 -55s63.833 -30.333 100.5 -43c48.667 -14.667 97 -22 145 -22c59.333 0 110.166 12.5 152.499 37.5s71.166 64.833 86.499 119.5l5 27v20
c0 14 -2.5 28.167 -7.5 42.5s-12.5 28.5 -22.5 42.5l-41 42c-8 -9.33301 -16.333 -17.666 -25 -24.999s-18.667 -13.666 -30 -18.999l-64 -12l-47 2l-38 18c-11.333 7.33301 -20.833 15.166 -28.5 23.499s-13.834 17.166 -18.501 26.499l-15 75c0 54.667 23 99 69 133l31 15
l45 5c13.333 0 26.166 -1 38.499 -3s24.166 -5 35.499 -9l27 -10c10 4.66699 20.667 12.167 32 22.5s21.333 22.5 30 36.5s16 29.333 22 46s9 33.334 9 50.001c0 32.667 -14.667 66.334 -44 101.001c-19.333 18.667 -53.666 28 -102.999 28
c-17.333 0 -31.333 -0.166992 -42 -0.5s-21.334 -1.33301 -32.001 -3s-22 -3.83398 -34 -6.50098l-50 -14c-34.667 -10 -59 -19 -73 -27l-81 -54c-6.66699 -6.66699 -14.334 -16 -23.001 -28l-34 -48l37 -32c21.333 -26.667 32 -55.667 32 -87
c0 -18.667 -3.33301 -36.334 -10 -53.001s-15.334 -31 -26.001 -43s-23.667 -21.333 -39 -28s-31.333 -10 -48 -10c-36 0 -73.667 12.667 -113 38c-37.333 28 -56 78 -56 150l2 57c0 12.667 5.66699 29 17 49c40 92 110.333 160.667 211 206c42.667 20 86.667 35 132 45
s93 15 143 15c72.667 0 134.334 -18.333 185.001 -55s87.334 -91.334 110.001 -164.001l3 -27c0 -34.667 -9.66699 -74 -29 -118c-20.667 -42 -37 -66.667 -49 -74l93 80c62 76 93 148 93 216c0 10.667 -0.666992 21.334 -2 32.001s-4 20.334 -8 29.001
c-15.333 48.667 -57 91 -125 127l-86 30l-113 32c-82 16 -154.5 35.5 -217.5 58.5s-116.833 49.167 -161.5 78.5c-104.667 66.667 -157 145.667 -157 237c-2.66699 18.667 -0.333984 38.667 6.99902 60s18.166 42.333 32.499 63s32.166 39.834 53.499 57.501
s44.666 32.5 69.999 44.5l36 -33l30 -42c-38.667 -11.333 -66.334 -23.5 -83.001 -36.5s-25 -29.833 -25 -50.5c0 -12.667 3.33301 -22.334 10 -29.001c0 -49.333 34.333 -92.666 103 -129.999l243 -84c80 -26 147.667 -51.5 203 -76.5s98.333 -49.167 129 -72.5
c26.667 -20 50 -42.833 70 -68.5s37 -53.834 51 -84.501l24 -74l9 -73v-35z" />
    <glyph glyph-name="bn_ka" unicode="&#x995;" horiz-adv-x="1403" 
d="M856 1148l0.000976562 -92.002l24 4c81.333 0 167.333 -40.333 258 -121c118 -100.667 177 -228.334 177 -383.001c0 -32.667 -5.33301 -62.834 -16 -90.501s-25.167 -51.667 -43.5 -72s-39.5 -36 -63.5 -47s-49.333 -16.5 -76 -16.5c-47.333 0 -91 22.333 -131 67
l-24 42l-7 41l7 44c2.66699 8.66699 6.16699 16.834 10.5 24.501s9.83301 15.167 16.5 22.5l37 35l73 12c36 0 68 -12.667 96 -38l23 -24l7 22c0 33.333 -5.66699 63 -17 89c-16 47.333 -42.333 86.333 -79 117c-26.667 28 -58 51.333 -94 70c-46.667 24 -96.667 36 -150 36
l-31 -2v-981l-44 45l-37 108c-6.66699 20.667 -19 44.334 -37 71.001s-41 57 -69 91c-54.667 72.667 -107 121.667 -157 147l-64 37l-81 35c-14.667 6.66699 -34.334 12.834 -59.001 18.501s-55 10.834 -91 15.501l-170 209l102 74c38 26.667 81 55 129 85
c84 51.333 157 91 219 119s143 58.333 243 91v95h-749l-126 124h1492l121 -124h-619zM732.001 884.998c-59.333 -18 -109.334 -38.334 -150.001 -61.001l-132 -73l-82 -57l-75 -55l72 -31c20.667 -9.33301 38.334 -19.333 53.001 -30c6.66699 -4 13 -8 19 -12l20 -13l25 -19
l32 -24c18 -14 36.667 -30.167 56 -48.5s38 -39.166 56 -62.499c16 -20.667 33 -44 51 -70s36.333 -55 55 -87v643z" />
    <glyph glyph-name="bn_kha" unicode="&#x996;" horiz-adv-x="1194" 
d="M1018 1148l0.000976562 -1241l-33 35l-21 40l-21 40l-17 45l-37 74l-29 47l-49 64c-28.667 33.333 -63.667 63.666 -105 90.999c-58 36 -118.167 65 -180.5 87s-125.833 37.667 -190.5 47l-204 253l103 -9l90 7l94 20c40.667 12 77.167 26.833 109.5 44.5
s61.166 38.167 86.499 61.5c36 35.333 54 69 54 101c0 28 -4.33301 50.333 -13 67s-24.667 34.334 -48 53.001l-105 -99l-72 -39l-101 -36c-47.333 -14 -85 -21 -113 -21c-23.333 0 -45.833 3.66699 -67.5 11s-40.5 17.166 -56.5 29.499s-28.667 27.5 -38 45.5
s-14 38 -14 60l2 61c1.33301 6 4 12.667 8 20s9.33301 15.333 16 24c25.333 32.667 58 49 98 49c44 0 77 -12.333 99 -37c6 -8.66699 10.833 -19 14.5 -31s5.5 -26 5.5 -42c34 4.66699 57.667 11 71 19l110 96l82 77l76 -65l72 -63c10.667 -12 22.667 -27.833 36 -47.5
s28 -43.167 44 -70.5c7.33301 -15.333 13 -30.833 17 -46.5s6 -32.167 6 -49.5c0 -44.667 -11.5 -89.167 -34.5 -133.5s-61.5 -85.833 -115.5 -124.5l-67 -40l-54 -21l79 -42l75 -54c44 -35.333 88.667 -77.333 134 -126c17.333 -19.333 32.833 -38.833 46.5 -58.5
s26.167 -38.5 37.5 -56.5v1231l70 -45l5 -75l15 -66c2 -4 6.16699 -8 12.5 -12s14.5 -8.33301 24.5 -13l144 -3l110 -133h-261z" />
    <glyph glyph-name="bn_ga" unicode="&#x997;" horiz-adv-x="1192" 
d="M1006 1148l-0.00585938 -1290l-112 108v731l-24 78c-1.33301 13.333 -5 26 -11 38l-17 39c-10.667 29.333 -39.667 67.666 -87 114.999l-101 86l-35 17l-54 24c-39.333 15.333 -73 20.666 -101 15.999c-30 -6 -56.667 -12 -80 -18s-41.666 -13.333 -54.999 -22
c-43.333 -24.667 -81 -72.334 -113 -143.001l56 12l80 10l66 -7c16 0 37 -7.33301 63 -22c72.667 -40 109 -93.333 109 -160c0 -17.333 -1.16699 -33.166 -3.5 -47.499s-5.5 -27.166 -9.5 -38.499c-2 -12 -8.66699 -29 -20 -51s-27.333 -48.333 -48 -79l-75 -114l-68 -82
l-143 159l54 47l87 94l76 80c14 16 24.333 30.333 31 43s10 24.667 10 36c0 10 -3 18 -9 24c-14.667 20 -34.334 30 -59.001 30c-23.333 0 -62.666 -17 -117.999 -51c-53.333 -34.667 -93.666 -52 -120.999 -52c-15.333 0 -29.666 4 -42.999 12
c-34 20.667 -58.5 44.5 -73.5 71.5s-22.5 57.167 -22.5 90.5c0 54.667 20.333 112.334 61 173.001c30.667 44 65 79 103 105c28 16 58.167 28.333 90.5 37s67.833 13 106.5 13c28.667 0 58.167 -2.5 88.5 -7.5s59.333 -11.833 87 -20.5s53 -19 76 -31s41.5 -25.333 55.5 -40
l83 -79c18.667 -18.667 34.334 -37 47.001 -55s23.334 -35.667 32.001 -53s19 -40.833 31 -70.5s26 -66.167 42 -109.5l-21 136c-7.33301 50 -13 94.667 -17 134s-6 72.666 -6 99.999l-2 340l74 -70l-5 -33c0 -13.333 1.83301 -28.5 5.5 -45.5s9.16699 -34.5 16.5 -52.5
c4.66699 -12.667 15.334 -22.334 32.001 -29.001l81 -10l42 8l120 -124h-252z" />
    <glyph glyph-name="bn_gha" unicode="&#x998;" horiz-adv-x="1158" 
d="M971 1148l1.99902 -1250l-59 56l-51 128c-24.667 55.333 -71.667 115 -141 179c-38 32 -78.5 58.167 -121.5 78.5s-88.5 35.166 -136.5 44.499l-68 8l-65 2l-162 167l119 123c20.667 22.667 42.5 44.334 65.5 65.001s45.833 40 68.5 58l-46 -18l-47 -5
c-55.333 0 -108.666 20.667 -159.999 62c-20.667 16 -36.667 31 -48 45s-19 27.667 -23 41l-4 10c-4 10.667 -7 21.834 -9 33.501s-3 24.5 -3 38.5l7 70l29 64h-123l-120 124h1246l121 -124h-271zM847.999 1148l-408.001 -0.00195312c-34.667 4.66699 -66.667 -5 -96 -29
c-8.66699 -8.66699 -16.5 -18 -23.5 -28s-13.833 -21.667 -20.5 -35l-17 -63c0 -16.667 4.16699 -32.667 12.5 -48s19 -28.666 32 -39.999s27.5 -20.333 43.5 -27s31.5 -10 46.5 -10s31.5 2.83301 49.5 8.5s35.667 13 53 22s33.833 19.5 49.5 31.5s28.167 24.333 37.5 37
l132 -131c-20.667 -12 -43.834 -28.333 -69.501 -49s-54.167 -45 -85.5 -73c-29.333 -28 -56.166 -55.333 -80.499 -82s-46.166 -52.667 -65.499 -78l88 -37c13.333 -4 25.833 -8.83301 37.5 -14.5s23.167 -12.5 34.5 -20.5c25.333 -12.667 47.333 -27 66 -43l30 -28
c10 -9.33301 22 -21.666 36 -36.999c22.667 -23.333 44 -47.333 64 -72s38 -50.667 54 -78v924z" />
    <glyph glyph-name="bn_nga" unicode="&#x999;" horiz-adv-x="1123" 
d="M1081 298c0 -100 -31.002 -183.335 -93.002 -250.002c-68 -74 -163.667 -111 -287 -111l-54 3l-49 7c-38.667 4.66699 -77.667 17 -117 37s-77 46.167 -113 78.5s-70 70.166 -102 113.499s-60 90.666 -84 141.999l-49 110l-44 131l-28 117l-19 124l-23 167l65 -49
c14.667 -70.667 27 -127.167 37 -169.5s18 -70.5 24 -84.5l61 -145c20 -41.333 42.333 -80.833 67 -118.5s50.667 -72.167 78 -103.5s56.333 -58.5 87 -81.5s62.334 -40.5 95.001 -52.5c47.333 -16 95 -24 143 -24c81.333 0 149.333 18.667 204 56
c65.333 46.667 98 109.667 98 189c0 48 -23.667 98 -71 150l-20 -32l-22 -20l-86 -66l-108 -71c-10 -5.33301 -20.333 -9.16602 -31 -11.499s-21.667 -3.5 -33 -3.5c-16 0 -32.5 3.66699 -49.5 11s-35.5 18.333 -55.5 33l-40 32l-37 50c-22 34.667 -34 62 -36 82v298l-65 47
l-47 39l-90 80l-62 68l-34 42l-39 54l182 49l101 -189l29 -35l30 -27c10.667 30 21.834 55.833 33.501 77.5s23.167 39.167 34.5 52.5c25.333 28 67 56.667 125 86c35.333 16 73.333 24 114 24c43.333 0 85 -9.33301 125 -28c37.333 -16 65.333 -44 84 -84l9 -45l10 -45
c0 -70 -38.333 -126 -115 -168c-66.667 -31.333 -138 -47 -214 -47c-54.667 0 -87.334 8.33301 -98.001 25v-222c0 -24 5.5 -43.167 16.5 -57.5s30.5 -23.5 58.5 -27.5c30 0 59.667 12.333 89 37l76 76l46 54l35 61c40.667 -14.667 77.5 -37.167 110.5 -67.5
s61.167 -68.166 84.5 -113.499c20.667 -41.333 36.334 -82.666 47.001 -123.999s16 -84.666 16 -129.999zM822.998 1058c-7.33301 16 -23.668 24 -49.001 24c-8.66699 0 -17.167 -0.666992 -25.5 -2s-17.166 -4 -26.499 -8l-42 -12c-36 -10 -68 -28.667 -96 -56
c-13.333 -11.333 -25 -25.5 -35 -42.5s-19.333 -36.5 -28 -58.5c6 -12 27 -18 63 -18l70 7c27.333 5.33301 51.5 13 72.5 23s39.167 21.333 54.5 34s27 26.167 35 40.5s12 28.833 12 43.5c0 10 -1.66699 18.333 -5 25z" />
    <glyph glyph-name="bn_cha" unicode="&#x99a;" horiz-adv-x="1003" 
d="M293 1148c0 -6.66699 0.333008 -11.6699 1 -15.0029s2 -7 4 -11l14 -40l14 -37c8 -12 16.833 -23.667 26.5 -35s20.834 -21.666 33.501 -30.999l57 -42c23.333 -16 61 -33.333 113 -52l230 -80c25.333 -14 46.333 -32.667 63 -56s29.334 -46.666 38.001 -69.999l7 -42
c0 -16 -0.333008 -29.5 -1 -40.5s-2 -19.5 -4 -25.5l-21 -76c-6.66699 -23.333 -15.334 -47 -26.001 -71s-24 -48.667 -40 -74c-34.667 -52 -70 -98.333 -106 -139s-72 -75.5 -108 -104.5s-72 -51 -108 -66s-70.667 -22.5 -104 -22.5l-29 2
c-34.667 4.66699 -72.334 34.334 -113.001 89.001c-40 54 -60 100.667 -60 140v899h-174l-120 124h1058l125 -124h-770zM617 668.997c-16 6.66699 -29.5 12.5 -40.5 17.5s-19.5 10.833 -25.5 17.5c-34 19.333 -64.667 38.333 -92 57s-48.333 35.667 -63 51
c-16 14.667 -32.167 33.167 -48.5 55.5s-33.833 48.5 -52.5 78.5v-694c0 -20 3 -35.333 9 -46s19.333 -18.334 40 -23.001c9.33301 0 20 1.83301 32 5.5s26 9.83398 42 18.501c20.667 12 39.5 24.167 56.5 36.5s32.5 24.5 46.5 36.5l101 114c4.66699 5.33301 13 17 25 35
s24.667 41 38 69c14 36.667 21 68.667 21 96v24l-5 24z" />
    <glyph glyph-name="bn_chha" unicode="&#x99b;" horiz-adv-x="1111" 
d="M1196 -285c-161.333 170.667 -336.333 286.337 -525 347.004l-148 47c-33.333 8.66699 -70 17 -110 25s-83.333 15.333 -130 22l-121 225c42.667 -13.333 81.167 -23 115.5 -29s65.5 -9 93.5 -9l74 2l88 15c15.333 2.66699 27.666 5.33398 36.999 8.00098s18 5.5 26 8.5
s16.667 7.5 26 13.5l32 19c18.667 11.333 43.667 29.166 75 53.499s69 56.5 113 96.5l42 47c6.66699 12 12.167 24.667 16.5 38s7.5 27.333 9.5 42c0 32.667 -12.667 68 -38 106l-93 27l-76 15l7 -45c0 -48 -19.5 -94.5 -58.5 -139.5s-92.833 -87.5 -161.5 -127.5
c-54.667 -34.667 -107.667 -52 -159 -52l-45 7c-18.667 4.66699 -36.334 12.5 -53.001 23.5s-31.5 23.5 -44.5 37.5s-23.5 29 -31.5 45s-12 31.667 -12 47v519h-152l-113 125h1195l113 -125h-923c10 -23.333 17.5 -42 22.5 -56s10.833 -24 17.5 -30
c10 -12 54.333 -37 133 -75c16 -6 34.333 -10.667 55 -14s44 -5 70 -5h42l44 10l31 5h26c81.333 0 152.333 -37.667 213 -113c62.667 -74.667 94 -158.334 94 -251.001c0 -14.667 -0.166992 -26.334 -0.5 -35.001s-1.16602 -17.334 -2.49902 -26.001
s-3.66602 -18.667 -6.99902 -30l-13 -42c-6.66699 -16.667 -15.334 -32.834 -26.001 -48.501s-24 -30.5 -40 -44.5c-23.333 -24 -72.666 -59 -147.999 -105l-73 -45l-59 -20l111 -54l51 -29c6.66699 -1.33301 13.667 -4.5 21 -9.5s15.333 -10.833 24 -17.5
c18 -11.333 43.5 -31 76.5 -59s73.5 -65.667 121.5 -113l133 -131zM474 854.003c-36.667 9.33301 -68 25.667 -94 49l-78 43l-37 60v-354c0 -30.667 3.33301 -49.334 10 -56.001c8 -5.33301 22.667 -8 44 -8c16 2.66699 29.667 6.33398 41 11.001s21 10 29 16l41 30
c76 56 114 108.333 114 157l-3 29z" />
    <glyph glyph-name="bn_ja" unicode="&#x99c;" horiz-adv-x="1454" 
d="M814 1148l-76.9951 -40.9971c-10 -45.333 13 -86.333 69 -123l76 -29l91 -11l35 2l47 3c11.333 0 31 6 59 18l115 39l115 -118l70 -71c-30.667 -30.667 -68 -82.334 -112 -155.001c-53.333 -92.667 -80 -176.334 -80 -251.001l-12 -93v-62
c0 -48 7.66699 -100.333 23 -157s38.333 -119 69 -187c-14.667 0 -27 0.333008 -37 1s-17.333 2 -22 4c-34 10 -55 19 -63 27l-69 300l-20 111l-7 86c0 55.333 10 124.333 30 207c6 30 13 58 21 84s16.333 49.333 25 70l-27 5l-69 -2c-34.667 0 -70.5 3.33301 -107.5 10
s-72.333 16.167 -106 28.5s-64.5 27.166 -92.5 44.499s-50.667 36.666 -68 57.999l-71 94c-14 15.333 -46.667 -7.33398 -98 -68.001c-44.667 -57.333 -78.334 -119 -101.001 -185l-2 -17v-10c0 -57.333 30.333 -86 91 -86l39 7c14 0 34.667 7.66699 62 23l103 52l39 19
c14.667 7.33301 26.667 7.33301 36 0c10.667 0 24 -8 40 -24l35 -45c13.333 -16 26 -35.667 38 -59s23.667 -50.333 35 -81c23.333 -62.667 35 -112 35 -148c0 -26.667 -4 -47 -12 -61c-16 -66 -40 -115 -72 -147c-12 -12 -27.5 -24.333 -46.5 -37s-41.167 -25 -66.5 -37
c-20 -8.66699 -43.333 -16.167 -70 -22.5s-50 -9.5 -70 -9.5c-68 0 -135.333 17.333 -202 52c-29.333 16 -58 37.167 -86 63.5s-55 57.5 -81 93.5c-29.333 40.667 -59 92.334 -89 155.001l-38 105c-10.667 28 -19.5 61 -26.5 99s-12.833 80 -17.5 126l-3 115l-2 98v24l2 12
l49 -38l20 -25c8 -14 12 -37 12 -69v-49c0 -40 2.66699 -69.667 8 -89l38 -140c25.333 -74.667 66.666 -138.334 123.999 -191.001c36.667 -33.333 67 -59 91 -77s45.5 -31 64.5 -39s36.667 -12.833 53 -14.5l56.5 -5.5c30.667 0 61.334 3.83301 92.001 11.5
s61.334 19.5 92.001 35.5c62 32 93 73 93 123c0 18.667 -5.33301 38 -16 58c-5.33301 23.333 -22 37.333 -50 42l-30 -7l-103 -39l-61 -12h-31c-18.667 0 -38.334 2.33301 -59.001 7s-41.334 12.334 -62.001 23.001c-18.667 12 -37.334 28.333 -56.001 49
s-38.667 45.667 -60 75c-29.333 51.333 -44 104.666 -44 159.999c0 38.667 5.66699 71.334 17 98.001c5.33301 16 15.166 35.833 29.499 59.5s34.166 50.834 59.499 81.501l69 73h-509l-123 124h1529l120 -124h-690z" />
    <glyph glyph-name="bn_jha" unicode="&#x99d;" horiz-adv-x="1356" 
d="M1205 1148l-0.000976562 -1079l-60 59l-36 109l-18 43l-24 42l-59 77c-39.333 42 -84.666 76.333 -135.999 103v-578l-54 58l-46 110c-6.66699 16 -17.167 35.333 -31.5 58s-32.833 49 -55.5 79c-44 55.333 -85.5 100.166 -124.5 134.499s-77.167 61.333 -114.5 81
s-74 33.5 -110 41.5s-72.667 12.667 -110 14l-165 206l64 42l65 44c25.333 17.333 48.333 32 69 44l51 32l108 62c36.667 20.667 74 40 112 58l225 99v23v38h-755l-120 124h992v-630c10 -4 20.333 -9.5 31 -16.5s21.667 -16.167 33 -27.5l47 -44l49 -56l44 -68v1070l59 -50
l12 -78l6 -32l17 -44l37 -15c6 -2 14.167 -3.83301 24.5 -5.5s20.833 -3 31.5 -4s21.167 -1.5 31.5 -1.5s18.833 0.666992 25.5 2l124 -124h-239zM754.999 895.001c-20 -6.66699 -42.834 -15.333 -68.501 -26s-53.834 -24 -84.501 -40l-147 -83l-64 -40l-67 -46
c35.333 -16 64.5 -30.5 87.5 -43.5s41.5 -25.167 55.5 -36.5l77 -66l54 -54l63 -73c18.667 -23.333 35.834 -46.333 51.501 -69s29.834 -45.667 42.501 -69v646z" />
    <glyph glyph-name="bn_nya" unicode="&#x99e;" horiz-adv-x="1897" 
d="M1799 183c-18 -23.333 -38.499 -41.165 -61.499 -53.498s-50.167 -18.5 -81.5 -18.5c-28 0 -57.333 5.5 -88 16.5s-64 26.833 -100 47.5c-27.333 16 -54.5 34.5 -81.5 55.5s-53.167 45.167 -78.5 72.5c-8 4 -18 11.167 -30 21.5s-26 23.5 -42 39.5l-37 45l-3 -514l-58 59
l-36 108c-6.66699 25.333 -19.334 49.333 -38.001 72c-30.667 34.667 -62.667 54.334 -96 59.001l-81 5h-64l-56 -10c-56.667 -8 -104 -13.833 -142 -17.5s-66.667 -5.5 -86 -5.5l-52 3c-15.333 0 -27.666 0.166992 -36.999 0.5s-18.333 1 -27 2s-17.5 3 -26.5 6l-35.5 11.5
l-44 22.5c-16 8.33301 -33.333 18.166 -52 29.499c-20.667 14 -40 31.5 -58 52.5s-34.667 44.167 -50 69.5l-42 106c-9.33301 38.667 -14 85.334 -14 140.001l2 83l19 79l42 94l40 61l49 -49l-37 -59l-19 -52l-7 -44l-3 -59l7 -94c2.66699 -12 7.16699 -25 13.5 -39
s15.166 -29 26.499 -45c32 -46.667 100.667 -82.667 206 -108c34.667 -6 70 -10.667 106 -14s76.667 -5 122 -5c106.667 0 196 -12.333 268 -37l140 -83v805l-12 47c-4.66699 24.667 -24 37 -58 37c-18.667 0 -37.667 -4.66699 -57 -14l-37 -23l-42 -29l-42 -32l-29 -32
c-15.333 -12 -28.5 -24.333 -39.5 -37s-20.833 -25.667 -29.5 -39c-22.667 -37.333 -40 -77.333 -52 -120l67 7c14.667 0 28.334 -4.33301 41.001 -13c8.66699 -2.66699 20.334 -14.667 35.001 -36l19 -44l8 -47c0 -20 -3.66699 -38.167 -11 -54.5s-16.5 -30.5 -27.5 -42.5
s-22.833 -21.5 -35.5 -28.5s-24.334 -10.5 -35.001 -10.5l-31 -2h-23c-64 0 -116.333 19.667 -157 59c-16 20.667 -28.167 45.167 -36.5 73.5s-12.5 60.5 -12.5 96.5c0 73.333 39.667 161.666 119 264.999c8.66699 12 23 29 43 51l74 76
c36.667 22.667 68.5 41.167 95.5 55.5s50.833 26 71.5 35s39.834 15.167 57.501 18.5s36.167 5 55.5 5l62 -30c23.333 -9.33301 42.166 -18.833 56.499 -28.5s24.833 -18.834 31.5 -27.501c15.333 -13.333 27.666 -31.333 36.999 -54c9.33301 -14.667 14 -31 14 -49v-275
c5.33301 20 18.666 46 39.999 78c11.333 20 23.333 38.667 36 56s27 33 43 47c38.667 47.333 78 84.333 118 111c52 32.667 100.333 49 145 49c55.333 0 111 -27 167 -81c34 -29.333 59.333 -62.333 76 -99s25 -73 25 -109c0 -46 -9 -89.333 -27 -130
s-41 -76.334 -69 -107.001l69 -143c8.66699 -28 14.834 -52.667 18.501 -74s5.5 -39 5.5 -53v-37l-12 -49c0 -11.333 -3 -23 -9 -35zM1733 350.001c12.667 20 21.332 43.6699 25.999 71.0029c0 23.333 -8 43 -24 59l-49 49l-54 -27l-79 -25c-20 0 -39 3 -57 9
s-33.667 14.667 -47 26s-24 25 -32 41s-12 34.333 -12 55c0 16.667 4 33.5 12 50.5s18.667 31.833 32 44.5s28.333 23 45 31s34 12 52 12c12.667 0 30.667 -5.33301 54 -16l30 3l49 -10l17 10c28 37.333 42 74 42 110c0 22.667 -6.66699 43.667 -20 63
c-32.667 40.667 -73.667 61 -123 61l-42 -3c-6.66699 0 -13.5 -1.33301 -20.5 -4s-15.167 -7.33398 -24.5 -14.001c-16 -4.66699 -31.167 -10.5 -45.5 -17.5s-28.166 -16.167 -41.499 -27.5c-54 -34.667 -104 -82.334 -150 -143.001
c-46.667 -58.667 -70 -110.334 -70 -155.001l4 -25c28.667 -111.333 104.667 -199 228 -263c41.333 -19.333 87.333 -29 138 -29c75.333 0 129.333 21.333 162 64z" />
    <glyph glyph-name="bn_Ta" unicode="&#x99f;" horiz-adv-x="1018" 
d="M253 1148l0.00878906 -823.001c0 -20.667 7.33301 -42 22 -64c16.667 -16 40.667 -24 72 -24c17.333 0 36.666 3.66699 57.999 11s44.166 19.333 68.499 36s50.666 38.667 78.999 66s58.166 61 89.499 101c36.667 50 58.667 101.667 66 155l-37 -5
c-39.333 0 -76.333 12 -111 36c-30.667 26 -46 60.333 -46 103l4 40c14 45.333 35.5 77.666 64.5 96.999s61.5 29 97.5 29c9.33301 0 17.333 -0.5 24 -1.5s12 -2.16699 16 -3.5c52 -11.333 96.333 -45.666 133 -102.999l24 -58l10 -85c0 -36 -2.5 -69.5 -7.5 -100.5
s-12.5 -60 -22.5 -87s-23.167 -52.667 -39.5 -77s-35.5 -48.5 -57.5 -72.5c-40 -42 -78.5 -78.333 -115.5 -109s-73.5 -56.334 -109.5 -77.001c-32 -21.333 -67 -35.333 -105 -42l-62 -8h-21c-20 0 -45 9.66699 -75 29c-16.667 10 -37 31.333 -61 64
c-16 20.667 -29.333 41.167 -40 61.5s-19.334 40.833 -26.001 61.5l-9 76v98v676h-143l-101 124h875v49c0 20.667 -2.83301 38 -8.5 52s-17.834 27.667 -36.501 41c-38 21.333 -84.667 32 -140 32l-103 -3h-73l-62 -9c-13.333 0 -24.166 -0.5 -32.499 -1.5
s-14.5 -2.16699 -18.5 -3.5h-35c-52.667 0 -105.167 7.33301 -157.5 22s-96.5 40 -132.5 76c-12 10 -23.333 22 -34 36s-19.667 28.667 -27 44s-13.333 30.833 -18 46.5s-7 30.834 -7 45.501c0 16 1 29.5 3 40.5s5 20.167 9 27.5c5.33301 16.667 14.333 33 27 49
c3.33301 8 11.666 13.333 24.999 16l26 10v-23l6 -22c-20 -19.333 -30 -40.333 -30 -63l5 -33l12 -33l52 -40l44 -20l61 -12l70 4l85 5l126 5l127 8c43.333 0 81.666 -4.16699 114.999 -12.5s61.666 -20.5 84.999 -36.5c25.333 -15.333 50.666 -36.666 75.999 -63.999
s46 -58.333 62 -93c6 -20.667 10.167 -39.167 12.5 -55.5s3.5 -30.5 3.5 -42.5v-42h134l98 -124h-863z" />
    </font>
</defs>
</svg>
