<svg width="30" height="29" viewBox="0 0 30 29" fill="none" xmlns="http://www.w3.org/2000/svg">
<path d="M10.9498 28C11.6368 28 12.1936 27.4432 12.1936 26.7562C12.1936 26.0693 11.6368 25.5125 10.9498 25.5125C10.2629 25.5125 9.70605 26.0693 9.70605 26.7562C9.70605 27.4432 10.2629 28 10.9498 28Z" stroke="black" stroke-width="2" stroke-linecap="round" stroke-linejoin="round"/>
<path d="M24.6315 28C25.3184 28 25.8753 27.4432 25.8753 26.7562C25.8753 26.0693 25.3184 25.5125 24.6315 25.5125C23.9446 25.5125 23.3877 26.0693 23.3877 26.7562C23.3877 27.4432 23.9446 28 24.6315 28Z" stroke="black" stroke-width="2" stroke-linecap="round" stroke-linejoin="round"/>
<path d="M1 1.88037H5.97517L9.30853 18.5348C9.42227 19.1074 9.7338 19.6218 10.1886 19.9879C10.6433 20.354 11.2124 20.5484 11.7961 20.5373H23.8858C24.4695 20.5484 25.0385 20.354 25.4933 19.9879C25.9481 19.6218 26.2596 19.1074 26.3734 18.5348L28.3634 8.09933H7.21896" stroke="black" stroke-width="2" stroke-linecap="round" stroke-linejoin="round"/>
</svg>
