<svg width="22" height="21" viewBox="0 0 22 21" fill="none" xmlns="http://www.w3.org/2000/svg">
<path d="M8.5493 20.1999C9.03739 20.1999 9.43307 19.8042 9.43307 19.3161C9.43307 18.8281 9.03739 18.4324 8.5493 18.4324C8.06121 18.4324 7.66553 18.8281 7.66553 19.3161C7.66553 19.8042 8.06121 20.1999 8.5493 20.1999Z" stroke="black" stroke-width="1.06587" stroke-linecap="round" stroke-linejoin="round"/>
<path d="M18.2707 20.1999C18.7588 20.1999 19.1545 19.8042 19.1545 19.3161C19.1545 18.8281 18.7588 18.4324 18.2707 18.4324C17.7826 18.4324 17.387 18.8281 17.387 19.3161C17.387 19.8042 17.7826 20.1999 18.2707 20.1999Z" stroke="black" stroke-width="1.06587" stroke-linecap="round" stroke-linejoin="round"/>
<path d="M1.47998 1.63989H5.01507L7.38358 13.4736C7.46439 13.8805 7.68575 14.246 8.00889 14.5061C8.33203 14.7662 8.73636 14.9044 9.15112 14.8965H17.7414C18.1561 14.9044 18.5605 14.7662 18.8836 14.5061C19.2068 14.246 19.4281 13.8805 19.5089 13.4736L20.923 6.05875H5.89884" stroke="black" stroke-width="1.3" stroke-linecap="round" stroke-linejoin="round"/>
</svg>
