<svg width="27" height="24" viewBox="0 0 27 24" fill="none" xmlns="http://www.w3.org/2000/svg">
<path d="M23.5952 2.88787C22.997 2.28936 22.2867 1.81458 21.5049 1.49065C20.7231 1.16673 19.8852 1 19.039 1C18.1928 1 17.3548 1.16673 16.5731 1.49065C15.7913 1.81458 15.081 2.28936 14.4828 2.88787L13.2412 4.12941L11.9997 2.88787C10.7913 1.67949 9.15238 1.00063 7.44346 1.00063C5.73455 1.00063 4.09563 1.67949 2.88725 2.88787C1.67886 4.09626 1 5.73518 1 7.44409C1 9.153 1.67886 10.7919 2.88725 12.0003L4.12879 13.2418L13.2412 22.3543L22.3537 13.2418L23.5952 12.0003C24.1937 11.4021 24.6685 10.6918 24.9924 9.91002C25.3163 9.12825 25.4831 8.29031 25.4831 7.44409C25.4831 6.59787 25.3163 5.75993 24.9924 4.97816C24.6685 4.19639 24.1937 3.4861 23.5952 2.88787V2.88787Z" stroke="black" stroke-width="2" stroke-linecap="round" stroke-linejoin="round"/>
</svg>
