<svg width="19" height="19" viewBox="0 0 19 19" fill="none" xmlns="http://www.w3.org/2000/svg">
<g clip-path="url(#clip0)">
<path d="M16.4367 3.84511C16.0417 3.44994 15.5727 3.13646 15.0565 2.92259C14.5404 2.70871 13.9871 2.59863 13.4284 2.59863C12.8697 2.59863 12.3164 2.70871 11.8003 2.92259C11.2841 3.13646 10.8151 3.44994 10.4201 3.84511L9.6004 4.66484L8.78066 3.84511C7.98282 3.04727 6.90072 2.59905 5.7724 2.59905C4.64408 2.59905 3.56197 3.04727 2.76413 3.84511C1.96629 4.64295 1.51807 5.72506 1.51807 6.85338C1.51807 7.9817 1.96629 9.0638 2.76413 9.86165L3.58386 10.6814L9.6004 16.6979L15.6169 10.6814L16.4367 9.86165C16.8318 9.46666 17.1453 8.99769 17.3592 8.48152C17.5731 7.96535 17.6831 7.4121 17.6831 6.85338C17.6831 6.29465 17.5731 5.7414 17.3592 5.22524C17.1453 4.70907 16.8318 4.2401 16.4367 3.84511V3.84511Z" stroke="black" stroke-width="1.3" stroke-linecap="round" stroke-linejoin="round"/>
</g>
<defs>
<clipPath id="clip0">
<rect width="18.56" height="18.56" fill="white" transform="translate(0.319946 0.280029)"/>
</clipPath>
</defs>
</svg>
