<?xml version="1.0" standalone="no"?>
<!DOCTYPE svg PUBLIC "-//W3C//DTD SVG 20010904//EN"
 "http://www.w3.org/TR/2001/REC-SVG-20010904/DTD/svg10.dtd">
<svg version="1.0" xmlns="http://www.w3.org/2000/svg"
 width="1024.000000pt" height="300.000000pt" viewBox="0 0 1024.000000 300.000000"
 preserveAspectRatio="xMidYMid meet">

<g transform="translate(0.000000,300.000000) scale(0.100000,-0.100000)"
fill="#000000" stroke="none">
<path d="M0 1500 l0 -1500 1810 0 1810 0 0 1500 0 1500 -1810 0 -1810 0 0
-1500z"/>
<path d="M6620 1500 l0 -1500 1810 0 1810 0 0 1500 0 1500 -1810 0 -1810 0 0
-1500z"/>
<path d="M5345 2850 c-58 -12 -154 -49 -198 -77 l-38 -24 36 -67 c19 -36 35
-69 35 -73 0 -4 -28 -20 -62 -37 -156 -73 -290 -240 -323 -402 l-7 -35 31 48
c136 211 390 339 643 325 l88 -5 -1 121 c-1 66 -4 146 -7 176 l-7 55 -75 2
c-41 0 -93 -3 -115 -7z"/>
<path d="M4612 2640 c-136 -87 -246 -232 -304 -400 -30 -90 -32 -103 -32 -235
-1 -162 13 -224 74 -350 209 -425 755 -559 1145 -280 150 107 261 278 300 463
15 69 18 248 6 292 l-7 25 -13 -23 c-11 -21 -14 -22 -29 -9 -16 14 -17 9 -18
-73 -4 -278 -193 -526 -469 -617 -69 -23 -97 -26 -205 -27 -111 0 -134 3 -205
28 -283 97 -465 348 -465 641 0 176 62 333 181 460 57 61 119 145 106 145 -2
0 -31 -18 -65 -40z"/>
<path d="M4961 949 c-52 -10 -113 -48 -137 -84 -9 -14 -19 -45 -21 -68 -7 -62
17 -104 74 -129 45 -20 53 -20 150 -2 25 5 33 2 43 -15 25 -47 -23 -91 -98
-91 -41 0 -63 12 -80 45 -10 18 -12 17 -27 -18 -21 -50 -7 -94 40 -135 93 -82
245 -30 281 96 20 69 8 120 -42 170 -34 34 -36 35 -99 28 -57 -6 -65 -4 -75
13 -21 40 15 88 73 98 48 7 97 -19 157 -84 l50 -55 0 -266 0 -267 51 -28 c27
-16 57 -26 65 -23 12 5 14 60 14 361 l0 355 75 0 75 0 0 -228 0 -227 60 -23
c34 -13 67 -22 74 -19 7 3 17 26 20 51 10 68 61 160 113 206 25 22 49 40 53
40 4 0 10 -64 13 -142 9 -236 55 -338 153 -338 56 0 82 32 67 83 -8 29 -12 32
-43 29 -49 -4 -63 22 -68 130 -6 116 18 226 59 273 34 39 31 55 -21 98 -47 40
-89 50 -138 33 -47 -17 -117 -63 -174 -114 l-38 -34 0 91 0 91 233 2 232 3 3
43 3 42 -440 0 -441 0 0 -56 0 -56 -47 42 c-84 74 -154 97 -242 79z"/>
<path d="M4102 898 l3 -43 258 -3 257 -2 0 -136 0 -136 -63 59 c-123 115 -242
112 -314 -7 -28 -46 -33 -64 -33 -117 0 -123 56 -198 162 -217 90 -16 168 39
168 119 0 37 -5 47 -35 74 -44 38 -55 39 -55 3 0 -60 -70 -82 -115 -37 -29 28
-31 45 -10 86 21 39 55 51 107 40 58 -13 108 -58 146 -133 30 -57 34 -77 39
-166 l6 -102 47 -30 c26 -16 52 -30 58 -30 9 0 12 94 12 365 l0 365 30 0 c29
0 30 2 30 45 l0 45 -351 0 -350 0 3 -42z"/>
</g>
</svg>
