<svg width="18" height="18" viewBox="0 0 18 18" fill="none" xmlns="http://www.w3.org/2000/svg">
<path d="M6.30567 2.26966C6.98981 1.53103 7.94536 1.12427 9.00004 1.12427C10.0604 1.12427 11.0191 1.52856 11.7 2.26263C12.3884 3.00478 12.7238 4.01341 12.645 5.10255C12.4889 7.2513 10.8538 8.99927 9.00004 8.99927C7.14625 8.99927 5.51395 7.25165 5.35539 5.10325C5.27559 4.02396 5.61309 3.01743 6.30567 2.26966ZM2.81254 16.8743H15.1875C15.3495 16.8764 15.5099 16.8423 15.6571 16.7747C15.8043 16.707 15.9345 16.6073 16.0383 16.483C16.2668 16.2098 16.3589 15.8368 16.2907 15.4596C15.994 13.8136 15.068 12.4309 13.6125 11.4602C12.3195 10.5985 10.6816 10.1243 9.00004 10.1243C7.31852 10.1243 5.68059 10.5989 4.38754 11.4602C2.93207 12.4305 2.00606 13.8132 1.70934 15.4592C1.64114 15.8365 1.73325 16.2095 1.96176 16.4826C2.06555 16.607 2.19576 16.7068 2.34294 16.7745C2.49011 16.8423 2.65054 16.8763 2.81254 16.8743Z" fill="#828282"/>
</svg>
