<svg width="100" height="16" viewBox="0 0 100 16" fill="none" xmlns="http://www.w3.org/2000/svg">
<path d="M15.7497 6.48834H9.72412L7.87484 0.867676L6.02557 6.48834H0L4.92867 9.94671L3.00917 15.5674L7.87484 12.0841L12.7405 15.5674L10.8174 9.94671L15.7497 6.48834Z" fill="#FF0000"/>
<path d="M36.7493 6.4881H30.7238L28.8745 0.867432L27.0252 6.4881H20.9996L25.9283 9.94647L24.0088 15.5671L28.8745 12.0838L33.7401 15.5671L31.817 9.94647L36.7493 6.4881Z" fill="#FF0000"/>
<path d="M57.7487 6.4881H51.7231L49.8739 0.867432L48.0246 6.4881H41.999L46.9277 9.94647L45.0082 15.5671L49.8739 12.0838L54.7395 15.5671L52.8164 9.94647L57.7487 6.4881Z" fill="#FF0000"/>
<path d="M78.7485 6.4881H72.7229L70.8736 0.867432L69.0243 6.4881H62.9988L67.9274 9.94647L66.008 15.5671L70.8736 12.0838L75.7393 15.5671L73.8162 9.94647L78.7485 6.4881Z" fill="#FF0000"/>
<path d="M99.7481 6.4881H93.7225L91.8733 0.867432L90.024 6.4881H83.9984L88.9271 9.94647L87.0076 15.5671L91.8733 12.0838L96.7389 15.5671L94.8158 9.94647L99.7481 6.4881Z" fill="#FF0000"/>
</svg>
