<svg width="100" height="15" viewBox="0 0 100 15" fill="none" xmlns="http://www.w3.org/2000/svg">
<path d="M15.7497 5.85968H9.72412L7.87484 0.239014L6.02557 5.85968H0L4.92867 9.31805L3.00917 14.9387L7.87484 11.4554L12.7405 14.9387L10.8174 9.31805L15.7497 5.85968Z" fill="#FF0000"/>
<path d="M36.7493 5.85944H30.7238L28.8745 0.23877L27.0252 5.85944H20.9996L25.9283 9.31781L24.0088 14.9385L28.8745 11.4552L33.7401 14.9385L31.817 9.31781L36.7493 5.85944Z" fill="#FF0000" fill-opacity="0.3"/>
<path d="M57.7487 5.85944H51.7231L49.8739 0.23877L48.0246 5.85944H41.999L46.9277 9.31781L45.0082 14.9385L49.8739 11.4552L54.7395 14.9385L52.8164 9.31781L57.7487 5.85944Z" fill="#FF0000" fill-opacity="0.3"/>
<path d="M78.7485 5.85944H72.7229L70.8736 0.23877L69.0243 5.85944H62.9988L67.9274 9.31781L66.008 14.9385L70.8736 11.4552L75.7393 14.9385L73.8162 9.31781L78.7485 5.85944Z" fill="#FF0000" fill-opacity="0.3"/>
<path d="M99.7481 5.85944H93.7225L91.8733 0.23877L90.024 5.85944H83.9984L88.9271 9.31781L87.0076 14.9385L91.8733 11.4552L96.7389 14.9385L94.8158 9.31781L99.7481 5.85944Z" fill="#FF0000" fill-opacity="0.3"/>
</svg>
